/* XPM */
static char *cxmenu_tmp[] = {
/* columns rows colors chars-per-pixel */
"24 24 195 2 ",
"   c #29826B097EF9",
".  c #CCE85E5B37D6",
"X  c #C11376613DF9",
"o  c #F3CF3DEF453F",
"O  c #BA9B516B68D3",
"+  c #A90C77CE7523",
"@  c #E4344DB64644",
"#  c #FE1252E156A5",
"$  c #D1ED6BAC536B",
"%  c #EB1C7DCA5FB5",
"&  c #C1AA49A9640C",
"*  c #D8767E1D6585",
"=  c #F4406AD16A83",
"-  c #FCB97941686F",
";  c #06568BC430F7",
":  c #01F89C823B29",
">  c #0000A5E73C19",
",  c #3691A1382EA5",
"<  c #33B1BEDA358F",
"1  c #55F3994C2317",
"2  c #5FFE9DA32B63",
"3  c #474CBB5F2E8D",
"4  c #5E10BB903091",
"5  c #6656A77125BD",
"6  c #6F17AB492400",
"7  c #6A9FB54B3765",
"8  c #5512C58331CB",
"9  c #12BC9D2A4C63",
"0  c #360C9F5548AE",
"q  c #3F98BC6946F3",
"w  c #3B86B4145605",
"e  c #5F1189E85F94",
"r  c #7FF39E394956",
"t  c #68D78A2A5BF8",
"y  c #5E32A4FD41AE",
"u  c #6CA7B2ED55CA",
"i  c #583D9D307ECF",
"p  c #761EA57A6422",
"a  c #6B90A8BE776C",
"s  c #0FDBC1E2401E",
"d  c #7BC9CAFC45E9",
"f  c #6385C4115596",
"g  c #BC2E8E6C3957",
"h  c #8E78BC1A2646",
"j  c #BADBA88A2003",
"k  c #B985B4443EC1",
"l  c #B186BF5D3962",
"z  c #DCAE99333E3B",
"x  c #C346AEE13B71",
"c  c #DE87B19E3E83",
"v  c #D29CBB9A3CB7",
"b  c #9779CD4D2FEC",
"n  c #A056C18F2267",
"m  c #BA56C5332E45",
"M  c #AD59C18634E8",
"N  c #B7F7CE0E39F8",
"B  c #E095C97116A1",
"V  c #DEECE39319AD",
"C  c #E4D0E61A0BD1",
"Z  c #E796E95D114F",
"A  c #F6BFF88111EF",
"S  c #FB9FFBB41C72",
"D  c #CAE8D3DD293B",
"F  c #CE07C3933586",
"G  c #C773CF573157",
"H  c #C84BD18233FF",
"J  c #C618DD613B37",
"K  c #D5C9DC3F37FD",
"L  c #E378C8BC3BA5",
"P  c #D0F9E46A2C22",
"I  c #DC12E88F289F",
"U  c #E40FE5372435",
"Y  c #F060EF8022C0",
"T  c #EDFDEE952C7D",
"R  c #EF4DF1DC2109",
"E  c #F932F97B1FBD",
"W  c #F7B4F81D2E17",
"Q  c #F970F9F22EDF",
"!  c #ECEEEED633C9",
"~  c #EDDBEF0239E0",
"^  c #F957FB153461",
"/  c #F463F5933B53",
"(  c #F9DCFB343BE9",
")  c #99B99A285B20",
"_  c #81F4A2FB4C1F",
"`  c #BA6DB3EC48A5",
"'  c #9BD59C366144",
"]  c #A174A1E067CF",
"[  c #A691A6F46DB8",
"{  c #AAF4AB5C7383",
"}  c #B5B6B622743E",
"|  c #C7AF84A94F94",
" . c #F6E48BA3503F",
".. c #CA8FB15557F5",
"X. c #F31F81B07735",
"o. c #F9AA86427C21",
"O. c #FBD889C07A80",
"+. c #D43CA2F4693F",
"@. c #D73DABE16BF0",
"#. c #C56EBC816E33",
"$. c #DAEDB51368F0",
"%. c #F7F1B9016DD4",
"&. c #F381A0FB7EB7",
"*. c #8910CC9D462A",
"=. c #BFDBDBDE45DC",
"-. c #B939D3A25327",
";. c #9D49D69C6287",
":. c #A5EAC3A76420",
">. c #D787C21444AA",
",. c #DA1DC4AD5BE3",
"<. c #D88DDD5356CF",
"1. c #D79CD2F45AE8",
"2. c #EA2FD03C4134",
"3. c #EDF0D45040DF",
"4. c #F818D9684098",
"5. c #DD4EEB384DC4",
"6. c #D814E6AD5DBB",
"7. c #F657F75740D2",
"8. c #FA0CFB1344C4",
"9. c #F628FA1948F0",
"0. c #FA21FB214B53",
"q. c #E8ABE99B5760",
"w. c #E464F00A5D97",
"e. c #E8DDEA605B5B",
"r. c #FBAFE6945267",
"t. c #FD26EB935FBD",
"y. c #F464F5595344",
"u. c #FA0CFB0D542E",
"i. c #F240F72859C2",
"p. c #FA48FB485B38",
"a. c #D7F0C7FD6E7F",
"s. c #C8BBC2A073D9",
"d. c #D9E8EC277B9C",
"f. c #F54CE4FE6342",
"g. c #FA00E99562D5",
"h. c #FCC7E5A26D87",
"j. c #FAD5FBD863EB",
"k. c #F4ABF9306C3A",
"l. c #FAF8FBFC6A7E",
"z. c #EDF0E61E79F9",
"x. c #FD68E7E8728A",
"c. c #FC98E90E73BA",
"v. c #FCE5E8937D81",
"b. c #FB25FC0C7407",
"n. c #F499F50F7CE2",
"m. c #FAD6FB9A7BDC",
"M. c #197667C08E5C",
"N. c #1DE4768299C2",
"B. c #03666605AAEB",
"V. c #0055707CB803",
"C. c #00007402BCB3",
"Z. c #03EC7EE2C026",
"A. c #42816C7F885B",
"S. c #4606712B9A1E",
"D. c #6C766C6190FE",
"F. c #4EEE798DA0C7",
"G. c #3EE8919C95E8",
"H. c #28BE9047AFA3",
"J. c #4A069348A618",
"K. c #F65D980F8813",
"L. c #FE069E378D79",
"P. c #FAFCB92F8C87",
"I. c #FE94A0D991E0",
"U. c #FCEFABFC950A",
"Y. c #F335B80A9CD6",
"T. c #D8AAC7A28DEC",
"R. c #D929CD3B9337",
"E. c #E6EDD5718507",
"W. c #EA7BDF7A8934",
"Q. c #E33EE39F8412",
"!. c #EA7DEAA3884A",
"~. c #F25EEF6E8FC0",
"^. c #F4E9F5FF8497",
"/. c #FBACFCC7840B",
"(. c #F601F6F88A63",
"). c #FC36FD1C8C29",
"_. c #F4BFEA3F9E4D",
"`. c #F76CF85C9153",
"'. c #FC8CFDDD9261",
"]. c #F082F15BA005",
"[. c #FBEFF0AF9AD8",
"{. c #FBDFFD709DAA",
"}. c #E526D7FDA10B",
"|. c #F25AF316A2E1",
" X c #FA8CFB26A4EB",
".X c #F77FF86CAB45",
"XX c #FD0FF387AF74",
"oX c #FB8CED68BB5E",
"OX c #FCFEF489B346",
"+X c #FC84FD00B59C",
"@X c #FB38F2A7B88E",
"#X c #FD01FD03BD04",
"$X c #FD75FDD7C30A",
"%X c #FE0AFE44CBE6",
"&X c None",
/* pixels */
"&X&X&X&X&X&X&X&X&X&X&X&X&X&X&X&X&X&X&X&X&X&X&X&X",
"&X&X&X&X&X&X&X&X&X&X&X&X&X&X&X&X&X&X&X&X&X&X&X&X",
"&X&X&X&X&X&X&X&X&X&X&X&X&X&X&X&X&X&X&X&X&X&X&X&X",
"&X&X&X&X&X&X&X&X&X&X&X&X&X&X&X&X&X&X&X&X&X&X&X&X",
"&X&X&X&X&X&X&X&X&X&X&X&X&X&X&X&X&X&X&X&X&X&X&X&X",
"&X&X&X&X&X&X&X&X&X&X&X&X&X&X&X&X&X&X&X&X&X&X&X&X",
"].+X#X#X$X+X[.c.4.W.+X+X X!.&X&X&X&X&X&X&X&X&X&X",
".X$X%X%XOXv.r.2.,.}.oX@X+X XQ.} { [ ] ' ) &X&X&X",
"|.#X%XXXx.r.>.T.Y.U.I.O.K._.|.`.(.^.^.n.n.b.b.e.",
"&X+X+Xh.t.v R.U.I.K.X.= #  .~.'.).)././.m.m.l.y.",
"&X Xz.g.L s.P.O.* +.@.+ O o $./.m.m.b.b.b.l.p.&X",
"&X^.-.f.x E.- $ a.d.u #.F.& | k.l.l.j.j.p.p.0.&X",
"&X6.*.3.` %.@ ..b.;.0 1.J.D.X i.p.u.u.u.u.u.7.&X",
"&X=.8 B `  .. e.w.w y <.H.S.g 9.0.8.8.8.8.8./ &X",
"&XJ < b j z c 5.f 9 M :.Z.A.F ( ( ( ( 8.8.8.( &X",
"&X! 4 s 3 7 d q : 2 K G.C.t T ^ ^ ( ( 8.8.0.~ &X",
"&XY P , : > : ; 1 D a V.  G Q ^ ^ ( 8.0.0.0.~ &X",
"&X&XS I h 5 6 n N i B.  l W ^ ( ( 8.0.0.u.8.~ &X",
"&X&XA S S S R p N.M.e H W ^ ( ( 8.0.0.0.0.8.~ &X",
"&X&XC Z Z Z V _ _ m U T T T ~ ~ ~ ~ ~ ~ ~ T &X&X",
"&X&X&X&X&X&X&X&X&X&X&X&X&X&X&X&X&X&X&X&X&X&X&X&X",
"&X&X&X&X&X&X&X&X&X&X&X&X&X&X&X&X&X&X&X&X&X&X&X&X",
"&X&X&X&X&X&X&X&X&X&X&X&X&X&X&X&X&X&X&X&X&X&X&X&X",
"&X&X&X&X&X&X&X&X&X&X&X&X&X&X&X&X&X&X&X&X&X&X&X&X"
};
