<?xml version="1.0" standalone="no"?>
<!DOCTYPE svg PUBLIC "-//W3C//DTD SVG 20010904//EN"
  "http://www.w3.org/TR/2001/REC-SVG-20010904/DTD/svg10.dtd">
<svg width="24" height="24">
  <circle cx="0" cy="0" r="1" fill="white"/>
  <circle cx="1" cy="0" r="1" fill="white"/>
  <circle cx="2" cy="0" r="1" fill="white"/>
  <circle cx="3" cy="0" r="1" fill="white"/>
  <circle cx="4" cy="0" r="1" fill="white"/>
  <circle cx="5" cy="0" r="1" fill="white"/>
  <circle cx="6" cy="0" r="1" fill="white"/>
  <circle cx="7" cy="0" r="1" fill="white"/>
  <circle cx="8" cy="0" r="1" fill="white"/>
  <circle cx="9" cy="0" r="1" fill="white"/>
  <circle cx="10" cy="0" r="1" fill="white"/>
  <circle cx="11" cy="0" r="1" fill="white"/>
  <circle cx="12" cy="0" r="1" fill="white"/>
  <circle cx="13" cy="0" r="1" fill="white"/>
  <circle cx="14" cy="0" r="1" fill="white"/>
  <circle cx="15" cy="0" r="1" fill="white"/>
  <circle cx="16" cy="0" r="1" fill="white"/>
  <circle cx="17" cy="0" r="1" fill="white"/>
  <circle cx="18" cy="0" r="1" fill="white"/>
  <circle cx="19" cy="0" r="1" fill="white"/>
  <circle cx="20" cy="0" r="1" fill="white"/>
  <circle cx="21" cy="0" r="1" fill="white"/>
  <circle cx="22" cy="0" r="1" fill="white"/>
  <circle cx="23" cy="0" r="1" fill="white"/>
  <circle cx="0" cy="1" r="1" fill="white"/>
  <circle cx="1" cy="1" r="1" fill="white"/>
  <circle cx="2" cy="1" r="1" fill="white"/>
  <circle cx="3" cy="1" r="1" fill="white"/>
  <circle cx="4" cy="1" r="1" fill="white"/>
  <circle cx="5" cy="1" r="1" fill="white"/>
  <circle cx="6" cy="1" r="1" fill="white"/>
  <circle cx="7" cy="1" r="1" fill="white"/>
  <circle cx="8" cy="1" r="1" fill="white"/>
  <circle cx="9" cy="1" r="1" fill="white"/>
  <circle cx="10" cy="1" r="1" fill="white"/>
  <circle cx="11" cy="1" r="1" fill="white"/>
  <circle cx="12" cy="1" r="1" fill="white"/>
  <circle cx="13" cy="1" r="1" fill="white"/>
  <circle cx="14" cy="1" r="1" fill="white"/>
  <circle cx="15" cy="1" r="1" fill="white"/>
  <circle cx="16" cy="1" r="1" fill="white"/>
  <circle cx="17" cy="1" r="1" fill="white"/>
  <circle cx="18" cy="1" r="1" fill="white"/>
  <circle cx="19" cy="1" r="1" fill="white"/>
  <circle cx="20" cy="1" r="1" fill="white"/>
  <circle cx="21" cy="1" r="1" fill="white"/>
  <circle cx="22" cy="1" r="1" fill="white"/>
  <circle cx="23" cy="1" r="1" fill="white"/>
  <circle cx="0" cy="2" r="1" fill="white"/>
  <circle cx="1" cy="2" r="1" fill="white"/>
  <circle cx="2" cy="2" r="1" fill="white"/>
  <circle cx="3" cy="2" r="1" fill="white"/>
  <circle cx="4" cy="2" r="1" fill="white"/>
  <circle cx="5" cy="2" r="1" fill="white"/>
  <circle cx="6" cy="2" r="1" fill="white"/>
  <circle cx="7" cy="2" r="1" fill="white"/>
  <circle cx="8" cy="2" r="1" fill="white"/>
  <circle cx="9" cy="2" r="1" fill="white"/>
  <circle cx="10" cy="2" r="1" fill="white"/>
  <circle cx="11" cy="2" r="1" fill="white"/>
  <circle cx="12" cy="2" r="1" fill="white"/>
  <circle cx="13" cy="2" r="1" fill="white"/>
  <circle cx="14" cy="2" r="1" fill="white"/>
  <circle cx="15" cy="2" r="1" fill="srgba(100%,99.9908%,99.9939%,1)"/>
  <circle cx="16" cy="2" r="1" fill="srgba(100%,99.9908%,99.9954%,1)"/>
  <circle cx="17" cy="2" r="1" fill="white"/>
  <circle cx="18" cy="2" r="1" fill="white"/>
  <circle cx="19" cy="2" r="1" fill="white"/>
  <circle cx="20" cy="2" r="1" fill="white"/>
  <circle cx="21" cy="2" r="1" fill="white"/>
  <circle cx="22" cy="2" r="1" fill="white"/>
  <circle cx="23" cy="2" r="1" fill="white"/>
  <circle cx="0" cy="3" r="1" fill="white"/>
  <circle cx="1" cy="3" r="1" fill="white"/>
  <circle cx="2" cy="3" r="1" fill="white"/>
  <circle cx="3" cy="3" r="1" fill="white"/>
  <circle cx="4" cy="3" r="1" fill="white"/>
  <circle cx="5" cy="3" r="1" fill="white"/>
  <circle cx="6" cy="3" r="1" fill="white"/>
  <circle cx="7" cy="3" r="1" fill="white"/>
  <circle cx="8" cy="3" r="1" fill="srgba(100%,99.9741%,99.9924%,1)"/>
  <circle cx="9" cy="3" r="1" fill="srgba(99.7848%,99.7498%,99.9512%,1)"/>
  <circle cx="10" cy="3" r="1" fill="srgba(98.9975%,99.3317%,99.881%,1)"/>
  <circle cx="11" cy="3" r="1" fill="srgba(97.6852%,98.7182%,99.7833%,1)"/>
  <circle cx="12" cy="3" r="1" fill="srgba(95.7992%,97.9339%,99.6674%,1)"/>
  <circle cx="13" cy="3" r="1" fill="srgba(93.1945%,96.9329%,99.5239%,1)"/>
  <circle cx="14" cy="3" r="1" fill="srgba(89.868%,95.7351%,99.3576%,1)"/>
  <circle cx="15" cy="3" r="1" fill="srgba(86.5965%,94.7112%,99.237%,1)"/>
  <circle cx="16" cy="3" r="1" fill="srgba(93.1716%,97.5738%,99.6963%,1)"/>
  <circle cx="17" cy="3" r="1" fill="srgba(93.0266%,96.0235%,98.32%,1)"/>
  <circle cx="18" cy="3" r="1" fill="srgba(88.1956%,92.5719%,97.1557%,1)"/>
  <circle cx="19" cy="3" r="1" fill="srgba(97.8286%,98.4848%,99.4873%,1)"/>
  <circle cx="20" cy="3" r="1" fill="white"/>
  <circle cx="21" cy="3" r="1" fill="white"/>
  <circle cx="22" cy="3" r="1" fill="white"/>
  <circle cx="23" cy="3" r="1" fill="white"/>
  <circle cx="0" cy="4" r="1" fill="white"/>
  <circle cx="1" cy="4" r="1" fill="white"/>
  <circle cx="2" cy="4" r="1" fill="srgba(99.4263%,99.675%,99.9512%,1)"/>
  <circle cx="3" cy="4" r="1" fill="srgba(98.7091%,99.2142%,99.881%,1)"/>
  <circle cx="4" cy="4" r="1" fill="srgba(97.29%,98.5611%,99.7787%,1)"/>
  <circle cx="5" cy="4" r="1" fill="srgba(95.1019%,97.6562%,99.6399%,1)"/>
  <circle cx="6" cy="4" r="1" fill="srgba(92.1798%,96.5438%,99.4659%,1)"/>
  <circle cx="7" cy="4" r="1" fill="srgba(88.571%,95.2575%,99.2828%,1)"/>
  <circle cx="8" cy="4" r="1" fill="srgba(84.4327%,93.8964%,99.1058%,1)"/>
  <circle cx="9" cy="4" r="1" fill="srgba(79.8627%,92.491%,98.9425%,1)"/>
  <circle cx="10" cy="4" r="1" fill="srgba(75.172%,91.1192%,98.7961%,1)"/>
  <circle cx="11" cy="4" r="1" fill="srgba(70.4921%,89.7993%,98.6694%,1)"/>
  <circle cx="12" cy="4" r="1" fill="srgba(66.2074%,88.6702%,98.5702%,1)"/>
  <circle cx="13" cy="4" r="1" fill="srgba(62.4781%,87.7104%,98.4924%,1)"/>
  <circle cx="14" cy="4" r="1" fill="srgba(59.4308%,86.9444%,98.436%,1)"/>
  <circle cx="15" cy="4" r="1" fill="srgba(57.3083%,86.4714%,98.4436%,1)"/>
  <circle cx="16" cy="4" r="1" fill="srgba(67.8859%,89.4331%,98.2757%,1)"/>
  <circle cx="17" cy="4" r="1" fill="srgba(43.7003%,71.8791%,86.3767%,1)"/>
  <circle cx="18" cy="4" r="1" fill="srgba(29.9474%,63.0259%,82.5544%,1)"/>
  <circle cx="19" cy="4" r="1" fill="srgba(59.4278%,76.7468%,89.9504%,1)"/>
  <circle cx="20" cy="4" r="1" fill="srgba(84.2771%,90.1366%,96.2005%,1)"/>
  <circle cx="21" cy="4" r="1" fill="srgba(97.0962%,98.0987%,99.3118%,1)"/>
  <circle cx="22" cy="4" r="1" fill="white"/>
  <circle cx="23" cy="4" r="1" fill="white"/>
  <circle cx="0" cy="5" r="1" fill="white"/>
  <circle cx="1" cy="5" r="1" fill="white"/>
  <circle cx="2" cy="5" r="1" fill="srgba(89.012%,95.0195%,99.1562%,1)"/>
  <circle cx="3" cy="5" r="1" fill="srgba(72.6528%,89.6818%,98.1765%,1)"/>
  <circle cx="4" cy="5" r="1" fill="srgba(67.5074%,88.4596%,98.1399%,1)"/>
  <circle cx="5" cy="5" r="1" fill="srgba(63.3616%,87.1962%,97.792%,1)"/>
  <circle cx="6" cy="5" r="1" fill="srgba(59.8383%,86.2684%,97.6333%,1)"/>
  <circle cx="7" cy="5" r="1" fill="srgba(57.1023%,85.6062%,97.5586%,1)"/>
  <circle cx="8" cy="5" r="1" fill="srgba(55.0958%,85.1225%,97.5158%,1)"/>
  <circle cx="9" cy="5" r="1" fill="srgba(53.7911%,84.8203%,97.499%,1)"/>
  <circle cx="10" cy="5" r="1" fill="srgba(53.0907%,84.6616%,97.4929%,1)"/>
  <circle cx="11" cy="5" r="1" fill="srgba(52.8267%,84.6067%,97.4929%,1)"/>
  <circle cx="12" cy="5" r="1" fill="srgba(52.8054%,84.6036%,97.4945%,1)"/>
  <circle cx="13" cy="5" r="1" fill="srgba(52.9122%,84.6281%,97.4975%,1)"/>
  <circle cx="14" cy="5" r="1" fill="srgba(53.0678%,84.6647%,97.5006%,1)"/>
  <circle cx="15" cy="5" r="1" fill="srgba(52.9305%,84.6647%,97.5525%,1)"/>
  <circle cx="16" cy="5" r="1" fill="srgba(57.641%,85.2308%,96.7117%,1)"/>
  <circle cx="17" cy="5" r="1" fill="srgba(21.0163%,60.1755%,80.2716%,1)"/>
  <circle cx="18" cy="5" r="1" fill="srgba(0%,48.2887%,73.8277%,1)"/>
  <circle cx="19" cy="5" r="1" fill="srgba(6.03952%,51.7708%,75.7061%,1)"/>
  <circle cx="20" cy="5" r="1" fill="srgba(24.6769%,59.382%,80.5997%,1)"/>
  <circle cx="21" cy="5" r="1" fill="srgba(60.9735%,76.3851%,90.3456%,1)"/>
  <circle cx="22" cy="5" r="1" fill="srgba(99.028%,99.3118%,99.7757%,1)"/>
  <circle cx="23" cy="5" r="1" fill="white"/>
  <circle cx="0" cy="6" r="1" fill="white"/>
  <circle cx="1" cy="6" r="1" fill="white"/>
  <circle cx="2" cy="6" r="1" fill="srgba(83.0732%,92.9061%,98.6679%,1)"/>
  <circle cx="3" cy="6" r="1" fill="srgba(52.2133%,82.7192%,95.8572%,1)"/>
  <circle cx="4" cy="6" r="1" fill="srgba(50.5196%,79.7162%,91.9829%,1)"/>
  <circle cx="5" cy="6" r="1" fill="srgba(50.0404%,82.1637%,95.6542%,1)"/>
  <circle cx="6" cy="6" r="1" fill="srgba(50.3655%,82.7527%,96.3699%,1)"/>
  <circle cx="7" cy="6" r="1" fill="srgba(50.6233%,82.742%,96.2631%,1)"/>
  <circle cx="8" cy="6" r="1" fill="srgba(50.753%,82.7756%,96.2692%,1)"/>
  <circle cx="9" cy="6" r="1" fill="srgba(50.8339%,82.797%,96.2707%,1)"/>
  <circle cx="10" cy="6" r="1" fill="srgba(50.8598%,82.8061%,96.2707%,1)"/>
  <circle cx="11" cy="6" r="1" fill="srgba(50.8629%,82.8077%,96.2707%,1)"/>
  <circle cx="12" cy="6" r="1" fill="srgba(50.8507%,82.8077%,96.2707%,1)"/>
  <circle cx="13" cy="6" r="1" fill="srgba(50.8476%,82.8077%,96.2707%,1)"/>
  <circle cx="14" cy="6" r="1" fill="srgba(50.8431%,82.8077%,96.2707%,1)"/>
  <circle cx="15" cy="6" r="1" fill="srgba(50.5989%,82.7863%,96.321%,1)"/>
  <circle cx="16" cy="6" r="1" fill="srgba(54.6487%,83.2212%,95.491%,1)"/>
  <circle cx="17" cy="6" r="1" fill="srgba(19.4766%,59.324%,79.4491%,1)"/>
  <circle cx="18" cy="6" r="1" fill="srgba(0%,48.1041%,73.2189%,1)"/>
  <circle cx="19" cy="6" r="1" fill="srgba(0%,48.3391%,73.193%,1)"/>
  <circle cx="20" cy="6" r="1" fill="srgba(0.569162%,48.011%,73.1655%,1)"/>
  <circle cx="21" cy="6" r="1" fill="srgba(44.1535%,67.4144%,85.7969%,1)"/>
  <circle cx="22" cy="6" r="1" fill="srgba(98.584%,98.9273%,99.6948%,1)"/>
  <circle cx="23" cy="6" r="1" fill="white"/>
  <circle cx="0" cy="7" r="1" fill="white"/>
  <circle cx="1" cy="7" r="1" fill="white"/>
  <circle cx="2" cy="7" r="1" fill="srgba(82.5162%,92.4987%,98.4268%,1)"/>
  <circle cx="3" cy="7" r="1" fill="srgba(50.0206%,80.4746%,94.0856%,1)"/>
  <circle cx="4" cy="7" r="1" fill="srgba(63.3997%,77.7676%,84.5747%,1)"/>
  <circle cx="5" cy="7" r="1" fill="srgba(63.0518%,81.1276%,89.5323%,1)"/>
  <circle cx="6" cy="7" r="1" fill="srgba(48.9326%,79.852%,93.4737%,1)"/>
  <circle cx="7" cy="7" r="1" fill="srgba(47.6692%,80.6332%,95.0958%,1)"/>
  <circle cx="8" cy="7" r="1" fill="srgba(48.0369%,80.6622%,94.9783%,1)"/>
  <circle cx="9" cy="7" r="1" fill="srgba(48.0217%,80.6531%,94.9676%,1)"/>
  <circle cx="10" cy="7" r="1" fill="srgba(48.0095%,80.6531%,94.9676%,1)"/>
  <circle cx="11" cy="7" r="1" fill="srgba(48.0018%,80.6485%,94.9676%,1)"/>
  <circle cx="12" cy="7" r="1" fill="srgba(47.9835%,80.647%,94.9691%,1)"/>
  <circle cx="13" cy="7" r="1" fill="srgba(47.9774%,80.647%,94.9691%,1)"/>
  <circle cx="14" cy="7" r="1" fill="srgba(47.9637%,80.647%,94.9691%,1)"/>
  <circle cx="15" cy="7" r="1" fill="srgba(47.7455%,80.6317%,95.0195%,1)"/>
  <circle cx="16" cy="7" r="1" fill="srgba(51.194%,80.9522%,94.1695%,1)"/>
  <circle cx="17" cy="7" r="1" fill="srgba(17.9232%,58.1003%,78.407%,1)"/>
  <circle cx="18" cy="7" r="1" fill="srgba(0%,47.599%,72.4254%,1)"/>
  <circle cx="19" cy="7" r="1" fill="srgba(0%,47.985%,72.4971%,1)"/>
  <circle cx="20" cy="7" r="1" fill="srgba(0.604257%,47.8416%,72.5948%,1)"/>
  <circle cx="21" cy="7" r="1" fill="srgba(44.6204%,67.6158%,85.716%,1)"/>
  <circle cx="22" cy="7" r="1" fill="srgba(98.6343%,98.9639%,99.7177%,1)"/>
  <circle cx="23" cy="7" r="1" fill="white"/>
  <circle cx="0" cy="8" r="1" fill="white"/>
  <circle cx="1" cy="8" r="1" fill="white"/>
  <circle cx="2" cy="8" r="1" fill="srgba(81.7395%,92.0165%,98.1567%,1)"/>
  <circle cx="3" cy="8" r="1" fill="srgba(46.9596%,78.5458%,92.9168%,1)"/>
  <circle cx="4" cy="8" r="1" fill="srgba(70.3517%,82.4445%,88.6229%,1)"/>
  <circle cx="5" cy="8" r="1" fill="srgba(90.5303%,93.341%,95.9075%,1)"/>
  <circle cx="6" cy="8" r="1" fill="srgba(71.5389%,83.9658%,90.2937%,1)"/>
  <circle cx="7" cy="8" r="1" fill="srgba(50.1579%,78.175%,90.9285%,1)"/>
  <circle cx="8" cy="8" r="1" fill="srgba(44.3595%,78.3139%,93.6034%,1)"/>
  <circle cx="9" cy="8" r="1" fill="srgba(44.8203%,78.5306%,93.7591%,1)"/>
  <circle cx="10" cy="8" r="1" fill="srgba(44.8829%,78.5%,93.7057%,1)"/>
  <circle cx="11" cy="8" r="1" fill="srgba(44.8539%,78.4741%,93.7011%,1)"/>
  <circle cx="12" cy="8" r="1" fill="srgba(44.8234%,78.4329%,93.6797%,1)"/>
  <circle cx="13" cy="8" r="1" fill="srgba(44.8188%,78.4207%,93.6767%,1)"/>
  <circle cx="14" cy="8" r="1" fill="srgba(44.7837%,78.4054%,93.6614%,1)"/>
  <circle cx="15" cy="8" r="1" fill="srgba(44.5884%,78.3597%,93.698%,1)"/>
  <circle cx="16" cy="8" r="1" fill="srgba(47.541%,78.555%,92.8099%,1)"/>
  <circle cx="17" cy="8" r="1" fill="srgba(16.3897%,56.8612%,77.3495%,1)"/>
  <circle cx="18" cy="8" r="1" fill="srgba(0%,47.0939%,71.635%,1)"/>
  <circle cx="19" cy="8" r="1" fill="srgba(0%,47.4403%,71.6915%,1)"/>
  <circle cx="20" cy="8" r="1" fill="srgba(0.604257%,47.3213%,71.8227%,1)"/>
  <circle cx="21" cy="8" r="1" fill="srgba(44.6204%,67.4846%,85.5222%,1)"/>
  <circle cx="22" cy="8" r="1" fill="srgba(98.6343%,98.9731%,99.7299%,1)"/>
  <circle cx="23" cy="8" r="1" fill="white"/>
  <circle cx="0" cy="9" r="1" fill="white"/>
  <circle cx="1" cy="9" r="1" fill="white"/>
  <circle cx="2" cy="9" r="1" fill="srgba(80.9369%,91.4885%,97.8882%,1)"/>
  <circle cx="3" cy="9" r="1" fill="srgba(44.033%,76.5255%,91.7876%,1)"/>
  <circle cx="4" cy="9" r="1" fill="srgba(69.0608%,81.68%,88.2918%,1)"/>
  <circle cx="5" cy="9" r="1" fill="srgba(94.2245%,96.7742%,99.2752%,1)"/>
  <circle cx="6" cy="9" r="1" fill="srgba(93.2769%,96.0052%,98.5718%,1)"/>
  <circle cx="7" cy="9" r="1" fill="srgba(80.7477%,88.04%,92.4025%,1)"/>
  <circle cx="8" cy="9" r="1" fill="srgba(55.5398%,78.3429%,89.2073%,1)"/>
  <circle cx="9" cy="9" r="1" fill="srgba(41.9944%,75.9609%,91.6976%,1)"/>
  <circle cx="10" cy="9" r="1" fill="srgba(41.3535%,76.2936%,92.5338%,1)"/>
  <circle cx="11" cy="9" r="1" fill="srgba(41.6617%,76.2982%,92.4407%,1)"/>
  <circle cx="12" cy="9" r="1" fill="srgba(41.6434%,76.2676%,92.4346%,1)"/>
  <circle cx="13" cy="9" r="1" fill="srgba(41.6327%,76.2249%,92.4346%,1)"/>
  <circle cx="14" cy="9" r="1" fill="srgba(41.6068%,76.1898%,92.4331%,1)"/>
  <circle cx="15" cy="9" r="1" fill="srgba(41.442%,76.1563%,92.488%,1)"/>
  <circle cx="16" cy="9" r="1" fill="srgba(43.9002%,76.1837%,91.5175%,1)"/>
  <circle cx="17" cy="9" r="1" fill="srgba(14.8867%,55.6161%,76.2875%,1)"/>
  <circle cx="18" cy="9" r="1" fill="srgba(0%,46.5888%,70.8431%,1)"/>
  <circle cx="19" cy="9" r="1" fill="srgba(0%,46.8971%,70.8843%,1)"/>
  <circle cx="20" cy="9" r="1" fill="srgba(0.604257%,46.7918%,71.0506%,1)"/>
  <circle cx="21" cy="9" r="1" fill="srgba(44.6204%,67.335%,85.33%,1)"/>
  <circle cx="22" cy="9" r="1" fill="srgba(98.6343%,98.9807%,99.7406%,1)"/>
  <circle cx="23" cy="9" r="1" fill="white"/>
  <circle cx="0" cy="10" r="1" fill="white"/>
  <circle cx="1" cy="10" r="1" fill="white"/>
  <circle cx="2" cy="10" r="1" fill="srgba(80.1465%,90.9117%,97.5586%,1)"/>
  <circle cx="3" cy="10" r="1" fill="srgba(41.0132%,74.4121%,90.4448%,1)"/>
  <circle cx="4" cy="10" r="1" fill="srgba(68.0293%,81.0178%,87.8813%,1)"/>
  <circle cx="5" cy="10" r="1" fill="srgba(94.0276%,96.6064%,99.1089%,1)"/>
  <circle cx="6" cy="10" r="1" fill="srgba(93.8262%,96.968%,99.7162%,1)"/>
  <circle cx="7" cy="10" r="1" fill="srgba(94.1375%,96.9558%,99.5682%,1)"/>
  <circle cx="8" cy="10" r="1" fill="srgba(88.1727%,92.2515%,95.3353%,1)"/>
  <circle cx="9" cy="10" r="1" fill="srgba(64.8432%,80.9003%,89.1279%,1)"/>
  <circle cx="10" cy="10" r="1" fill="srgba(42.4933%,74.1878%,89.4072%,1)"/>
  <circle cx="11" cy="10" r="1" fill="srgba(37.8637%,73.7804%,90.9712%,1)"/>
  <circle cx="12" cy="10" r="1" fill="srgba(38.381%,73.9025%,90.9667%,1)"/>
  <circle cx="13" cy="10" r="1" fill="srgba(38.3856%,73.8705%,90.9499%,1)"/>
  <circle cx="14" cy="10" r="1" fill="srgba(38.3536%,73.8384%,90.9499%,1)"/>
  <circle cx="15" cy="10" r="1" fill="srgba(38.1872%,73.8109%,91.0109%,1)"/>
  <circle cx="16" cy="10" r="1" fill="srgba(40.2106%,73.724%,90.0038%,1)"/>
  <circle cx="17" cy="10" r="1" fill="srgba(13.3684%,54.3465%,75.198%,1)"/>
  <circle cx="18" cy="10" r="1" fill="srgba(0%,46.0853%,70.0542%,1)"/>
  <circle cx="19" cy="10" r="1" fill="srgba(0%,46.3539%,70.0786%,1)"/>
  <circle cx="20" cy="10" r="1" fill="srgba(0.604257%,46.2684%,70.277%,1)"/>
  <circle cx="21" cy="10" r="1" fill="srgba(44.6204%,67.1977%,85.1362%,1)"/>
  <circle cx="22" cy="10" r="1" fill="srgba(98.6343%,98.9883%,99.7528%,1)"/>
  <circle cx="23" cy="10" r="1" fill="white"/>
  <circle cx="0" cy="11" r="1" fill="white"/>
  <circle cx="1" cy="11" r="1" fill="white"/>
  <circle cx="2" cy="11" r="1" fill="srgba(79.3072%,90.3761%,97.2686%,1)"/>
  <circle cx="3" cy="11" r="1" fill="srgba(37.911%,72.1965%,89.1432%,1)"/>
  <circle cx="4" cy="11" r="1" fill="srgba(66.9856%,80.2808%,87.4815%,1)"/>
  <circle cx="5" cy="11" r="1" fill="srgba(94.0826%,96.6461%,99.1318%,1)"/>
  <circle cx="6" cy="11" r="1" fill="srgba(93.9971%,97.0123%,99.7009%,1)"/>
  <circle cx="7" cy="11" r="1" fill="srgba(93.5943%,96.8307%,99.6216%,1)"/>
  <circle cx="8" cy="11" r="1" fill="srgba(93.3104%,96.7056%,99.5789%,1)"/>
  <circle cx="9" cy="11" r="1" fill="srgba(91.6701%,94.8074%,97.5387%,1)"/>
  <circle cx="10" cy="11" r="1" fill="srgba(74.4457%,84.7028%,90.547%,1)"/>
  <circle cx="11" cy="11" r="1" fill="srgba(46.0716%,73.7057%,87.5319%,1)"/>
  <circle cx="12" cy="11" r="1" fill="srgba(35.201%,71.4427%,89.3568%,1)"/>
  <circle cx="13" cy="11" r="1" fill="srgba(35.1354%,71.5312%,89.5384%,1)"/>
  <circle cx="14" cy="11" r="1" fill="srgba(35.14%,71.5358%,89.5293%,1)"/>
  <circle cx="15" cy="11" r="1" fill="srgba(35.0088%,71.5435%,89.5933%,1)"/>
  <circle cx="16" cy="11" r="1" fill="srgba(36.5606%,71.2871%,88.5069%,1)"/>
  <circle cx="17" cy="11" r="1" fill="srgba(11.8898%,53.0846%,74.0917%,1)"/>
  <circle cx="18" cy="11" r="1" fill="srgba(0%,45.5833%,69.2653%,1)"/>
  <circle cx="19" cy="11" r="1" fill="srgba(0%,45.8091%,69.2729%,1)"/>
  <circle cx="20" cy="11" r="1" fill="srgba(0.604257%,45.7481%,69.4957%,1)"/>
  <circle cx="21" cy="11" r="1" fill="srgba(44.6204%,67.068%,84.921%,1)"/>
  <circle cx="22" cy="11" r="1" fill="srgba(98.6343%,98.996%,99.765%,1)"/>
  <circle cx="23" cy="11" r="1" fill="white"/>
  <circle cx="0" cy="12" r="1" fill="white"/>
  <circle cx="1" cy="12" r="1" fill="white"/>
  <circle cx="2" cy="12" r="1" fill="srgba(78.4909%,89.8192%,96.9482%,1)"/>
  <circle cx="3" cy="12" r="1" fill="srgba(34.8775%,69.9535%,87.7882%,1)"/>
  <circle cx="4" cy="12" r="1" fill="srgba(65.9129%,79.5315%,87.0481%,1)"/>
  <circle cx="5" cy="12" r="1" fill="srgba(94.3633%,96.8002%,99.2111%,1)"/>
  <circle cx="6" cy="12" r="1" fill="srgba(90.5837%,95.2331%,98.6893%,1)"/>
  <circle cx="7" cy="12" r="1" fill="srgba(89.3278%,94.3069%,97.9019%,1)"/>
  <circle cx="8" cy="12" r="1" fill="srgba(62.15%,81.9409%,92.4681%,1)"/>
  <circle cx="9" cy="12" r="1" fill="srgba(51.5908%,77.7508%,91.3283%,1)"/>
  <circle cx="10" cy="12" r="1" fill="srgba(50.3532%,76.8093%,90.5394%,1)"/>
  <circle cx="11" cy="12" r="1" fill="srgba(41.2039%,71.5557%,87.0451%,1)"/>
  <circle cx="12" cy="12" r="1" fill="srgba(30.8797%,68.5252%,87.4495%,1)"/>
  <circle cx="13" cy="12" r="1" fill="srgba(29.7902%,68.3467%,87.7211%,1)"/>
  <circle cx="14" cy="12" r="1" fill="srgba(29.2348%,68.072%,87.599%,1)"/>
  <circle cx="15" cy="12" r="1" fill="srgba(28.4474%,67.7775%,87.5471%,1)"/>
  <circle cx="16" cy="12" r="1" fill="srgba(29.8558%,67.4754%,86.4286%,1)"/>
  <circle cx="17" cy="12" r="1" fill="srgba(10.2052%,51.7174%,72.9305%,1)"/>
  <circle cx="18" cy="12" r="1" fill="srgba(0%,45.0858%,68.4794%,1)"/>
  <circle cx="19" cy="12" r="1" fill="srgba(0%,45.2644%,68.4627%,1)"/>
  <circle cx="20" cy="12" r="1" fill="srgba(0.602731%,45.2247%,68.716%,1)"/>
  <circle cx="21" cy="12" r="1" fill="srgba(44.6052%,66.9306%,84.7166%,1)"/>
  <circle cx="22" cy="12" r="1" fill="srgba(98.6343%,99.0036%,99.7757%,1)"/>
  <circle cx="23" cy="12" r="1" fill="white"/>
  <circle cx="0" cy="13" r="1" fill="white"/>
  <circle cx="1" cy="13" r="1" fill="white"/>
  <circle cx="2" cy="13" r="1" fill="srgba(77.5998%,89.2439%,96.6094%,1)"/>
  <circle cx="3" cy="13" r="1" fill="srgba(30.4723%,67.1885%,86.2486%,1)"/>
  <circle cx="4" cy="13" r="1" fill="srgba(64.5991%,78.674%,86.5995%,1)"/>
  <circle cx="5" cy="13" r="1" fill="srgba(89.6468%,94.5052%,98.1552%,1)"/>
  <circle cx="6" cy="13" r="1" fill="srgba(52.9397%,77.0596%,89.9855%,1)"/>
  <circle cx="7" cy="13" r="1" fill="srgba(78.79%,87.2267%,92.5475%,1)"/>
  <circle cx="8" cy="13" r="1" fill="srgba(64.0345%,81.4481%,91.0948%,1)"/>
  <circle cx="9" cy="13" r="1" fill="srgba(23.74%,64.4709%,85.4185%,1)"/>
  <circle cx="10" cy="13" r="1" fill="srgba(21.9059%,63.8987%,85.4871%,1)"/>
  <circle cx="11" cy="13" r="1" fill="srgba(22.0264%,64.0024%,85.5909%,1)"/>
  <circle cx="12" cy="13" r="1" fill="srgba(22.179%,63.9887%,85.5009%,1)"/>
  <circle cx="13" cy="13" r="1" fill="srgba(21.9547%,63.8697%,85.4398%,1)"/>
  <circle cx="14" cy="13" r="1" fill="srgba(21.7899%,63.7934%,85.4124%,1)"/>
  <circle cx="15" cy="13" r="1" fill="srgba(21.5595%,63.743%,85.4551%,1)"/>
  <circle cx="16" cy="13" r="1" fill="srgba(23.7324%,63.8193%,84.448%,1)"/>
  <circle cx="17" cy="13" r="1" fill="srgba(8.64729%,50.3883%,71.783%,1)"/>
  <circle cx="18" cy="13" r="1" fill="srgba(0%,44.5899%,67.6905%,1)"/>
  <circle cx="19" cy="13" r="1" fill="srgba(0%,44.7211%,67.6555%,1)"/>
  <circle cx="20" cy="13" r="1" fill="srgba(0.563058%,44.6845%,67.9301%,1)"/>
  <circle cx="21" cy="13" r="1" fill="srgba(44.4022%,66.688%,84.4602%,1)"/>
  <circle cx="22" cy="13" r="1" fill="srgba(98.6297%,99.0082%,99.7879%,1)"/>
  <circle cx="23" cy="13" r="1" fill="white"/>
  <circle cx="0" cy="14" r="1" fill="white"/>
  <circle cx="1" cy="14" r="1" fill="white"/>
  <circle cx="2" cy="14" r="1" fill="srgba(76.1303%,88.3558%,96.1776%,1)"/>
  <circle cx="3" cy="14" r="1" fill="srgba(23.4501%,63.1037%,84.1413%,1)"/>
  <circle cx="4" cy="14" r="1" fill="srgba(61.3352%,76.7239%,85.5985%,1)"/>
  <circle cx="5" cy="14" r="1" fill="srgba(59.5499%,79.9863%,91.5038%,1)"/>
  <circle cx="6" cy="14" r="1" fill="srgba(19.8505%,61.7975%,83.8483%,1)"/>
  <circle cx="7" cy="14" r="1" fill="srgba(54.5678%,74.8623%,86.2165%,1)"/>
  <circle cx="8" cy="14" r="1" fill="srgba(86.3203%,91.5419%,95.6603%,1)"/>
  <circle cx="9" cy="14" r="1" fill="srgba(39.4202%,70.0847%,86.6209%,1)"/>
  <circle cx="10" cy="14" r="1" fill="srgba(17.8271%,61.0452%,83.7324%,1)"/>
  <circle cx="11" cy="14" r="1" fill="srgba(18.793%,61.4786%,83.9078%,1)"/>
  <circle cx="12" cy="14" r="1" fill="srgba(18.8083%,61.4847%,83.9094%,1)"/>
  <circle cx="13" cy="14" r="1" fill="srgba(18.8251%,61.4923%,83.9124%,1)"/>
  <circle cx="14" cy="14" r="1" fill="srgba(18.8327%,61.4954%,83.9139%,1)"/>
  <circle cx="15" cy="14" r="1" fill="srgba(18.7274%,61.5%,83.9796%,1)"/>
  <circle cx="16" cy="14" r="1" fill="srgba(20.499%,61.4221%,82.8855%,1)"/>
  <circle cx="17" cy="14" r="1" fill="srgba(7.34264%,49.1569%,70.6569%,1)"/>
  <circle cx="18" cy="14" r="1" fill="srgba(0%,44.0864%,66.9032%,1)"/>
  <circle cx="19" cy="14" r="1" fill="srgba(0%,44.1794%,66.8498%,1)"/>
  <circle cx="20" cy="14" r="1" fill="srgba(0.471504%,44.1001%,67.1336%,1)"/>
  <circle cx="21" cy="14" r="1" fill="srgba(43.9673%,66.2882%,84.1367%,1)"/>
  <circle cx="22" cy="14" r="1" fill="srgba(98.6252%,99.0158%,99.7971%,1)"/>
  <circle cx="23" cy="14" r="1" fill="white"/>
  <circle cx="0" cy="15" r="1" fill="white"/>
  <circle cx="1" cy="15" r="1" fill="white"/>
  <circle cx="2" cy="15" r="1" fill="srgba(74.3969%,87.3182%,95.787%,1)"/>
  <circle cx="3" cy="15" r="1" fill="srgba(20.7813%,61.0239%,82.8931%,1)"/>
  <circle cx="4" cy="15" r="1" fill="srgba(41.4405%,67.1138%,81.5885%,1)"/>
  <circle cx="5" cy="15" r="1" fill="srgba(23.6728%,62.5818%,83.6622%,1)"/>
  <circle cx="6" cy="15" r="1" fill="srgba(14.6685%,58.761%,82.4063%,1)"/>
  <circle cx="7" cy="15" r="1" fill="srgba(28.6778%,63.1113%,81.9532%,1)"/>
  <circle cx="8" cy="15" r="1" fill="srgba(78.4527%,86.4591%,92.7184%,1)"/>
  <circle cx="9" cy="15" r="1" fill="srgba(69.6681%,83.9902%,93.489%,1)"/>
  <circle cx="10" cy="15" r="1" fill="srgba(21.7945%,61.6068%,83.2136%,1)"/>
  <circle cx="11" cy="15" r="1" fill="srgba(15.4635%,59.028%,82.4094%,1)"/>
  <circle cx="12" cy="15" r="1" fill="srgba(15.9121%,59.2172%,82.4765%,1)"/>
  <circle cx="13" cy="15" r="1" fill="srgba(15.9091%,59.2157%,82.4765%,1)"/>
  <circle cx="14" cy="15" r="1" fill="srgba(15.9091%,59.2157%,82.4765%,1)"/>
  <circle cx="15" cy="15" r="1" fill="srgba(15.8221%,59.2279%,82.5483%,1)"/>
  <circle cx="16" cy="15" r="1" fill="srgba(17.2061%,58.9899%,81.3504%,1)"/>
  <circle cx="17" cy="15" r="1" fill="srgba(6.08072%,47.9347%,69.5399%,1)"/>
  <circle cx="18" cy="15" r="1" fill="srgba(0%,43.5828%,66.1173%,1)"/>
  <circle cx="19" cy="15" r="1" fill="srgba(0%,43.6378%,66.0456%,1)"/>
  <circle cx="20" cy="15" r="1" fill="srgba(0.360113%,43.4974%,66.3264%,1)"/>
  <circle cx="21" cy="15" r="1" fill="srgba(43.4562%,65.8366%,83.8102%,1)"/>
  <circle cx="22" cy="15" r="1" fill="srgba(98.6191%,99.0265%,99.8077%,1)"/>
  <circle cx="23" cy="15" r="1" fill="white"/>
  <circle cx="0" cy="16" r="1" fill="white"/>
  <circle cx="1" cy="16" r="1" fill="white"/>
  <circle cx="2" cy="16" r="1" fill="srgba(72.2026%,86.0105%,95.3582%,1)"/>
  <circle cx="3" cy="16" r="1" fill="srgba(17.406%,58.9044%,81.9318%,1)"/>
  <circle cx="4" cy="16" r="1" fill="srgba(15.4559%,57.1618%,80.1099%,1)"/>
  <circle cx="5" cy="16" r="1" fill="srgba(12.9671%,56.8917%,80.9506%,1)"/>
  <circle cx="6" cy="16" r="1" fill="srgba(12.9564%,56.9284%,81.0163%,1)"/>
  <circle cx="7" cy="16" r="1" fill="srgba(14.2199%,56.939%,80.3845%,1)"/>
  <circle cx="8" cy="16" r="1" fill="srgba(53.55%,72.5689%,84.8875%,1)"/>
  <circle cx="9" cy="16" r="1" fill="srgba(80.7706%,89.3935%,97.3602%,1)"/>
  <circle cx="10" cy="16" r="1" fill="srgba(45.7908%,72.1035%,88.1285%,1)"/>
  <circle cx="11" cy="16" r="1" fill="srgba(12.871%,56.8078%,80.8606%,1)"/>
  <circle cx="12" cy="16" r="1" fill="srgba(12.8466%,56.8627%,80.9628%,1)"/>
  <circle cx="13" cy="16" r="1" fill="srgba(12.9122%,56.8917%,80.9735%,1)"/>
  <circle cx="14" cy="16" r="1" fill="srgba(12.929%,56.9009%,80.9781%,1)"/>
  <circle cx="15" cy="16" r="1" fill="srgba(12.8786%,56.9314%,81.059%,1)"/>
  <circle cx="16" cy="16" r="1" fill="srgba(13.9544%,56.5606%,79.7726%,1)"/>
  <circle cx="17" cy="16" r="1" fill="srgba(4.88594%,46.7231%,68.4092%,1)"/>
  <circle cx="18" cy="16" r="1" fill="srgba(0%,43.0396%,65.3025%,1)"/>
  <circle cx="19" cy="16" r="1" fill="srgba(0%,43.0564%,65.2079%,1)"/>
  <circle cx="20" cy="16" r="1" fill="srgba(0.308232%,42.9419%,65.5528%,1)"/>
  <circle cx="21" cy="16" r="1" fill="srgba(43.061%,65.4337%,83.5416%,1)"/>
  <circle cx="22" cy="16" r="1" fill="srgba(98.616%,99.0295%,99.8169%,1)"/>
  <circle cx="23" cy="16" r="1" fill="white"/>
  <circle cx="0" cy="17" r="1" fill="srgba(99.7787%,99.7696%,99.762%,1)"/>
  <circle cx="1" cy="17" r="1" fill="srgba(99.3606%,99.1287%,99.0967%,1)"/>
  <circle cx="2" cy="17" r="1" fill="srgba(70.2205%,84.4755%,94.3984%,1)"/>
  <circle cx="3" cy="17" r="1" fill="srgba(18.5885%,58.9242%,81.738%,1)"/>
  <circle cx="4" cy="17" r="1" fill="srgba(14.8821%,57.1145%,80.6699%,1)"/>
  <circle cx="5" cy="17" r="1" fill="srgba(15.1049%,57.1817%,80.679%,1)"/>
  <circle cx="6" cy="17" r="1" fill="srgba(14.8608%,57.0413%,80.6332%,1)"/>
  <circle cx="7" cy="17" r="1" fill="srgba(13.6584%,56.5667%,80.499%,1)"/>
  <circle cx="8" cy="17" r="1" fill="srgba(30.1488%,61.1826%,79.6201%,1)"/>
  <circle cx="9" cy="17" r="1" fill="srgba(71.0079%,82.8138%,93.1792%,1)"/>
  <circle cx="10" cy="17" r="1" fill="srgba(68.6534%,83.5554%,95.6176%,1)"/>
  <circle cx="11" cy="17" r="1" fill="srgba(25.0065%,61.6068%,83.0426%,1)"/>
  <circle cx="12" cy="17" r="1" fill="srgba(10.84%,55.0118%,79.6811%,1)"/>
  <circle cx="13" cy="17" r="1" fill="srgba(11.1803%,55.1629%,79.7848%,1)"/>
  <circle cx="14" cy="17" r="1" fill="srgba(10.7759%,54.9584%,79.6918%,1)"/>
  <circle cx="15" cy="17" r="1" fill="srgba(10.4005%,54.8257%,79.7055%,1)"/>
  <circle cx="16" cy="17" r="1" fill="srgba(10.985%,54.2199%,78.2727%,1)"/>
  <circle cx="17" cy="17" r="1" fill="srgba(4.1413%,45.7939%,67.4723%,1)"/>
  <circle cx="18" cy="17" r="1" fill="srgba(0.856031%,43.2792%,65.0416%,1)"/>
  <circle cx="19" cy="17" r="1" fill="srgba(2.12558%,43.9933%,65.4627%,1)"/>
  <circle cx="20" cy="17" r="1" fill="srgba(3.73388%,44.7028%,66.389%,1)"/>
  <circle cx="21" cy="17" r="1" fill="srgba(43.5721%,65.3727%,83.1205%,1)"/>
  <circle cx="22" cy="17" r="1" fill="srgba(96.4294%,96.8658%,97.6715%,1)"/>
  <circle cx="23" cy="17" r="1" fill="srgba(99.0875%,99.0417%,98.9929%,1)"/>
  <circle cx="0" cy="18" r="1" fill="srgba(97.7142%,97.7035%,97.6913%,1)"/>
  <circle cx="1" cy="18" r="1" fill="srgba(91.8715%,91.8166%,91.8761%,1)"/>
  <circle cx="2" cy="18" r="1" fill="srgba(66.598%,80.3861%,90.988%,1)"/>
  <circle cx="3" cy="18" r="1" fill="srgba(33.2921%,65.8091%,86.247%,1)"/>
  <circle cx="4" cy="18" r="1" fill="srgba(27.5654%,62.9038%,84.0772%,1)"/>
  <circle cx="5" cy="18" r="1" fill="srgba(24.7272%,61.5259%,83.0533%,1)"/>
  <circle cx="6" cy="18" r="1" fill="srgba(22.6719%,60.4608%,82.2049%,1)"/>
  <circle cx="7" cy="18" r="1" fill="srgba(21.2512%,59.7787%,81.7105%,1)"/>
  <circle cx="8" cy="18" r="1" fill="srgba(21.7807%,58.5412%,79.6353%,1)"/>
  <circle cx="9" cy="18" r="1" fill="srgba(53.0892%,71.5663%,85.3941%,1)"/>
  <circle cx="10" cy="18" r="1" fill="srgba(70.0755%,84.4022%,97.5036%,1)"/>
  <circle cx="11" cy="18" r="1" fill="srgba(51.9768%,74.7875%,91.1681%,1)"/>
  <circle cx="12" cy="18" r="1" fill="srgba(20.3311%,58.967%,81.2146%,1)"/>
  <circle cx="13" cy="18" r="1" fill="srgba(18.4146%,58.1399%,80.7309%,1)"/>
  <circle cx="14" cy="18" r="1" fill="srgba(17.6349%,57.731%,80.5463%,1)"/>
  <circle cx="15" cy="18" r="1" fill="srgba(16.5682%,57.2229%,80.3815%,1)"/>
  <circle cx="16" cy="18" r="1" fill="srgba(14.7478%,55.4665%,78.4741%,1)"/>
  <circle cx="17" cy="18" r="1" fill="srgba(8.33906%,47.9606%,68.6595%,1)"/>
  <circle cx="18" cy="18" r="1" fill="srgba(7.01457%,46.746%,67.0573%,1)"/>
  <circle cx="19" cy="18" r="1" fill="srgba(9.0898%,48.0064%,67.8676%,1)"/>
  <circle cx="20" cy="18" r="1" fill="srgba(13.5073%,50.2403%,70.8797%,1)"/>
  <circle cx="21" cy="18" r="1" fill="srgba(42.4796%,62.5849%,80.0076%,1)"/>
  <circle cx="22" cy="18" r="1" fill="srgba(86.1295%,86.6484%,87.451%,1)"/>
  <circle cx="23" cy="18" r="1" fill="srgba(95.9182%,95.8709%,95.8221%,1)"/>
  <circle cx="0" cy="19" r="1" fill="srgba(96.6201%,96.6155%,96.611%,1)"/>
  <circle cx="1" cy="19" r="1" fill="srgba(87.2602%,87.3014%,87.3381%,1)"/>
  <circle cx="2" cy="19" r="1" fill="srgba(71.8212%,76.7773%,81.181%,1)"/>
  <circle cx="3" cy="19" r="1" fill="srgba(63.8132%,73.46%,81.7792%,1)"/>
  <circle cx="4" cy="19" r="1" fill="srgba(59.4553%,72.1736%,82.6139%,1)"/>
  <circle cx="5" cy="19" r="1" fill="srgba(55.2667%,71.4199%,84.0528%,1)"/>
  <circle cx="6" cy="19" r="1" fill="srgba(50.9682%,70.663%,85.3437%,1)"/>
  <circle cx="7" cy="19" r="1" fill="srgba(46.6041%,69.7505%,86.1997%,1)"/>
  <circle cx="8" cy="19" r="1" fill="srgba(41.1109%,67.8508%,85.9846%,1)"/>
  <circle cx="9" cy="19" r="1" fill="srgba(49.5674%,71.4946%,88.1132%,1)"/>
  <circle cx="10" cy="19" r="1" fill="srgba(63.888%,81.2039%,96.7742%,1)"/>
  <circle cx="11" cy="19" r="1" fill="srgba(63.209%,81.1658%,96.9894%,1)"/>
  <circle cx="12" cy="19" r="1" fill="srgba(40.1511%,68.8548%,87.7714%,1)"/>
  <circle cx="13" cy="19" r="1" fill="srgba(26.0624%,61.6083%,82.3545%,1)"/>
  <circle cx="14" cy="19" r="1" fill="srgba(26.0197%,61.5351%,82.121%,1)"/>
  <circle cx="15" cy="19" r="1" fill="srgba(25.7603%,61.3779%,81.9684%,1)"/>
  <circle cx="16" cy="19" r="1" fill="srgba(22.298%,58.8724%,79.7406%,1)"/>
  <circle cx="17" cy="19" r="1" fill="srgba(15.4681%,51.9768%,71.0796%,1)"/>
  <circle cx="18" cy="19" r="1" fill="srgba(17.9126%,52.7199%,72.1263%,1)"/>
  <circle cx="19" cy="19" r="1" fill="srgba(26.6346%,56.0601%,76.4202%,1)"/>
  <circle cx="20" cy="19" r="1" fill="srgba(38.3017%,58.8785%,77.1038%,1)"/>
  <circle cx="21" cy="19" r="1" fill="srgba(56.6461%,65.3498%,74.4442%,1)"/>
  <circle cx="22" cy="19" r="1" fill="srgba(84.065%,84.2145%,84.3915%,1)"/>
  <circle cx="23" cy="19" r="1" fill="srgba(96.4431%,96.4279%,96.4096%,1)"/>
  <circle cx="0" cy="20" r="1" fill="srgba(99.2065%,99.2065%,99.2065%,1)"/>
  <circle cx="1" cy="20" r="1" fill="srgba(97.5204%,97.5174%,97.5143%,1)"/>
  <circle cx="2" cy="20" r="1" fill="srgba(94.9798%,94.7784%,94.5998%,1)"/>
  <circle cx="3" cy="20" r="1" fill="srgba(91.6075%,91.3588%,91.1559%,1)"/>
  <circle cx="4" cy="20" r="1" fill="srgba(87.6555%,87.6448%,87.6921%,1)"/>
  <circle cx="5" cy="20" r="1" fill="srgba(83.2746%,83.7766%,84.3366%,1)"/>
  <circle cx="6" cy="20" r="1" fill="srgba(78.6481%,80.0458%,81.4618%,1)"/>
  <circle cx="7" cy="20" r="1" fill="srgba(74.0108%,76.7559%,79.4003%,1)"/>
  <circle cx="8" cy="20" r="1" fill="srgba(69.543%,74.1222%,78.3627%,1)"/>
  <circle cx="9" cy="20" r="1" fill="srgba(65.4261%,72.4178%,78.6572%,1)"/>
  <circle cx="10" cy="20" r="1" fill="srgba(62.7588%,72.0592%,80.3372%,1)"/>
  <circle cx="11" cy="20" r="1" fill="srgba(61.4588%,72.8771%,83.1098%,1)"/>
  <circle cx="12" cy="20" r="1" fill="srgba(57.5372%,72.3354%,84.6662%,1)"/>
  <circle cx="13" cy="20" r="1" fill="srgba(49.1493%,69.2943%,84.1291%,1)"/>
  <circle cx="14" cy="20" r="1" fill="srgba(45.6916%,68.9174%,85.3742%,1)"/>
  <circle cx="15" cy="20" r="1" fill="srgba(42.4231%,68.3803%,86.1387%,1)"/>
  <circle cx="16" cy="20" r="1" fill="srgba(37.3831%,66.0334%,84.8661%,1)"/>
  <circle cx="17" cy="20" r="1" fill="srgba(33.4157%,60.0534%,79.4446%,1)"/>
  <circle cx="18" cy="20" r="1" fill="srgba(40.7507%,59.7024%,77.1496%,1)"/>
  <circle cx="19" cy="20" r="1" fill="srgba(54.9676%,64.0665%,73.8842%,1)"/>
  <circle cx="20" cy="20" r="1" fill="srgba(73.4676%,75.4726%,77.8744%,1)"/>
  <circle cx="21" cy="20" r="1" fill="srgba(89.0684%,88.8869%,88.7129%,1)"/>
  <circle cx="22" cy="20" r="1" fill="srgba(96.8017%,96.7803%,96.7559%,1)"/>
  <circle cx="23" cy="20" r="1" fill="srgba(99.4232%,99.4247%,99.4247%,1)"/>
  <circle cx="0" cy="21" r="1" fill="white"/>
  <circle cx="1" cy="21" r="1" fill="white"/>
  <circle cx="2" cy="21" r="1" fill="srgba(99.9893%,99.9893%,99.9893%,1)"/>
  <circle cx="3" cy="21" r="1" fill="srgba(99.8734%,99.8734%,99.8734%,1)"/>
  <circle cx="4" cy="21" r="1" fill="srgba(99.5956%,99.588%,99.5804%,1)"/>
  <circle cx="5" cy="21" r="1" fill="srgba(99.057%,99.0143%,98.9761%,1)"/>
  <circle cx="6" cy="21" r="1" fill="srgba(98.1262%,98.0179%,97.9217%,1)"/>
  <circle cx="7" cy="21" r="1" fill="srgba(96.6644%,96.4691%,96.2951%,1)"/>
  <circle cx="8" cy="21" r="1" fill="srgba(94.5647%,94.2885%,94.0429%,1)"/>
  <circle cx="9" cy="21" r="1" fill="srgba(91.7556%,91.4504%,91.1788%,1)"/>
  <circle cx="10" cy="21" r="1" fill="srgba(88.1865%,87.9698%,87.7745%,1)"/>
  <circle cx="11" cy="21" r="1" fill="srgba(83.9551%,84.0421%,84.1154%,1)"/>
  <circle cx="12" cy="21" r="1" fill="srgba(79.585%,80.1999%,80.8042%,1)"/>
  <circle cx="13" cy="21" r="1" fill="srgba(75.3201%,76.7407%,78.1857%,1)"/>
  <circle cx="14" cy="21" r="1" fill="srgba(70.9392%,73.756%,76.4599%,1)"/>
  <circle cx="15" cy="21" r="1" fill="srgba(66.9734%,71.6487%,75.967%,1)"/>
  <circle cx="16" cy="21" r="1" fill="srgba(62.9953%,70.0435%,76.5103%,1)"/>
  <circle cx="17" cy="21" r="1" fill="srgba(59.1699%,66.3523%,74.0215%,1)"/>
  <circle cx="18" cy="21" r="1" fill="srgba(70.9697%,72.8405%,75.05%,1)"/>
  <circle cx="19" cy="21" r="1" fill="srgba(85.2873%,85.0187%,84.7379%,1)"/>
  <circle cx="20" cy="21" r="1" fill="srgba(94.2351%,94.0871%,93.9269%,1)"/>
  <circle cx="21" cy="21" r="1" fill="srgba(98.5061%,98.5046%,98.5046%,1)"/>
  <circle cx="22" cy="21" r="1" fill="srgba(99.8688%,99.8688%,99.8688%,1)"/>
  <circle cx="23" cy="21" r="1" fill="white"/>
  <circle cx="0" cy="22" r="1" fill="white"/>
  <circle cx="1" cy="22" r="1" fill="white"/>
  <circle cx="2" cy="22" r="1" fill="white"/>
  <circle cx="3" cy="22" r="1" fill="white"/>
  <circle cx="4" cy="22" r="1" fill="white"/>
  <circle cx="5" cy="22" r="1" fill="white"/>
  <circle cx="6" cy="22" r="1" fill="white"/>
  <circle cx="7" cy="22" r="1" fill="srgba(99.9786%,99.9786%,99.9786%,1)"/>
  <circle cx="8" cy="22" r="1" fill="srgba(99.852%,99.852%,99.852%,1)"/>
  <circle cx="9" cy="22" r="1" fill="srgba(99.5895%,99.5895%,99.5895%,1)"/>
  <circle cx="10" cy="22" r="1" fill="srgba(99.1531%,99.1531%,99.1531%,1)"/>
  <circle cx="11" cy="22" r="1" fill="srgba(98.4833%,98.4741%,98.4665%,1)"/>
  <circle cx="12" cy="22" r="1" fill="srgba(97.4716%,97.4289%,97.3907%,1)"/>
  <circle cx="13" cy="22" r="1" fill="srgba(96.0266%,95.9167%,95.819%,1)"/>
  <circle cx="14" cy="22" r="1" fill="srgba(94.0551%,93.8582%,93.6828%,1)"/>
  <circle cx="15" cy="22" r="1" fill="srgba(91.5251%,91.2505%,91.0048%,1)"/>
  <circle cx="16" cy="22" r="1" fill="srgba(88.4825%,88.1849%,87.9179%,1)"/>
  <circle cx="17" cy="22" r="1" fill="srgba(87.8126%,87.5059%,87.187%,1)"/>
  <circle cx="18" cy="22" r="1" fill="srgba(91.5602%,91.4336%,91.2978%,1)"/>
  <circle cx="19" cy="22" r="1" fill="srgba(96.463%,96.463%,96.463%,1)"/>
  <circle cx="20" cy="22" r="1" fill="srgba(99.3103%,99.3103%,99.3103%,1)"/>
  <circle cx="21" cy="22" r="1" fill="srgba(99.9847%,99.9847%,99.9847%,1)"/>
  <circle cx="22" cy="22" r="1" fill="white"/>
  <circle cx="23" cy="22" r="1" fill="white"/>
  <circle cx="0" cy="23" r="1" fill="white"/>
  <circle cx="1" cy="23" r="1" fill="white"/>
  <circle cx="2" cy="23" r="1" fill="white"/>
  <circle cx="3" cy="23" r="1" fill="white"/>
  <circle cx="4" cy="23" r="1" fill="white"/>
  <circle cx="5" cy="23" r="1" fill="white"/>
  <circle cx="6" cy="23" r="1" fill="white"/>
  <circle cx="7" cy="23" r="1" fill="white"/>
  <circle cx="8" cy="23" r="1" fill="white"/>
  <circle cx="9" cy="23" r="1" fill="white"/>
  <circle cx="10" cy="23" r="1" fill="white"/>
  <circle cx="11" cy="23" r="1" fill="white"/>
  <circle cx="12" cy="23" r="1" fill="srgba(99.9863%,99.9863%,99.9863%,1)"/>
  <circle cx="13" cy="23" r="1" fill="srgba(99.8703%,99.8703%,99.8703%,1)"/>
  <circle cx="14" cy="23" r="1" fill="srgba(99.6033%,99.6033%,99.6033%,1)"/>
  <circle cx="15" cy="23" r="1" fill="srgba(99.1394%,99.1394%,99.1394%,1)"/>
  <circle cx="16" cy="23" r="1" fill="srgba(98.4283%,98.4283%,98.4283%,1)"/>
  <circle cx="17" cy="23" r="1" fill="srgba(97.8317%,97.8317%,97.8317%,1)"/>
  <circle cx="18" cy="23" r="1" fill="srgba(98.5565%,98.5565%,98.5565%,1)"/>
  <circle cx="19" cy="23" r="1" fill="srgba(99.7391%,99.7391%,99.7391%,1)"/>
  <circle cx="20" cy="23" r="1" fill="white"/>
  <circle cx="21" cy="23" r="1" fill="white"/>
  <circle cx="22" cy="23" r="1" fill="white"/>
  <circle cx="23" cy="23" r="1" fill="white"/>
</svg>
