<?xml version="1.0" standalone="no"?>
<!DOCTYPE svg PUBLIC "-//W3C//DTD SVG 20010904//EN"
  "http://www.w3.org/TR/2001/REC-SVG-20010904/DTD/svg10.dtd">
<svg width="16" height="16">
  <circle cx="0" cy="0" r="1" fill="white"/>
  <circle cx="1" cy="0" r="1" fill="white"/>
  <circle cx="2" cy="0" r="1" fill="white"/>
  <circle cx="3" cy="0" r="1" fill="white"/>
  <circle cx="4" cy="0" r="1" fill="white"/>
  <circle cx="5" cy="0" r="1" fill="white"/>
  <circle cx="6" cy="0" r="1" fill="white"/>
  <circle cx="7" cy="0" r="1" fill="white"/>
  <circle cx="8" cy="0" r="1" fill="white"/>
  <circle cx="9" cy="0" r="1" fill="white"/>
  <circle cx="10" cy="0" r="1" fill="white"/>
  <circle cx="11" cy="0" r="1" fill="white"/>
  <circle cx="12" cy="0" r="1" fill="white"/>
  <circle cx="13" cy="0" r="1" fill="white"/>
  <circle cx="14" cy="0" r="1" fill="white"/>
  <circle cx="15" cy="0" r="1" fill="white"/>
  <circle cx="0" cy="1" r="1" fill="white"/>
  <circle cx="1" cy="1" r="1" fill="white"/>
  <circle cx="2" cy="1" r="1" fill="white"/>
  <circle cx="3" cy="1" r="1" fill="white"/>
  <circle cx="4" cy="1" r="1" fill="white"/>
  <circle cx="5" cy="1" r="1" fill="white"/>
  <circle cx="6" cy="1" r="1" fill="white"/>
  <circle cx="7" cy="1" r="1" fill="white"/>
  <circle cx="8" cy="1" r="1" fill="white"/>
  <circle cx="9" cy="1" r="1" fill="srgba(100%,99.9908%,99.9939%,1)"/>
  <circle cx="10" cy="1" r="1" fill="srgba(100%,99.9405%,99.9786%,1)"/>
  <circle cx="11" cy="1" r="1" fill="srgba(100%,99.9954%,99.9985%,1)"/>
  <circle cx="12" cy="1" r="1" fill="white"/>
  <circle cx="13" cy="1" r="1" fill="white"/>
  <circle cx="14" cy="1" r="1" fill="white"/>
  <circle cx="15" cy="1" r="1" fill="white"/>
  <circle cx="0" cy="2" r="1" fill="white"/>
  <circle cx="1" cy="2" r="1" fill="white"/>
  <circle cx="2" cy="2" r="1" fill="srgba(100%,99.9954%,100%,1)"/>
  <circle cx="3" cy="2" r="1" fill="srgba(99.791%,99.7986%,99.9771%,1)"/>
  <circle cx="4" cy="2" r="1" fill="srgba(98.7182%,99.3103%,99.9023%,1)"/>
  <circle cx="5" cy="2" r="1" fill="srgba(96.8658%,98.587%,99.7955%,1)"/>
  <circle cx="6" cy="2" r="1" fill="srgba(94.1909%,97.612%,99.6628%,1)"/>
  <circle cx="7" cy="2" r="1" fill="srgba(90.6813%,96.3882%,99.5056%,1)"/>
  <circle cx="8" cy="2" r="1" fill="srgba(86.4347%,94.9889%,99.3362%,1)"/>
  <circle cx="9" cy="2" r="1" fill="srgba(81.471%,93.3974%,99.1455%,1)"/>
  <circle cx="10" cy="2" r="1" fill="srgba(80.4685%,93.4096%,99.2554%,1)"/>
  <circle cx="11" cy="2" r="1" fill="srgba(80.9628%,90.8843%,96.1959%,1)"/>
  <circle cx="12" cy="2" r="1" fill="srgba(76.7178%,86.7842%,94.2428%,1)"/>
  <circle cx="13" cy="2" r="1" fill="srgba(95.2407%,96.9177%,98.8678%,1)"/>
  <circle cx="14" cy="2" r="1" fill="white"/>
  <circle cx="15" cy="2" r="1" fill="white"/>
  <circle cx="0" cy="3" r="1" fill="white"/>
  <circle cx="1" cy="3" r="1" fill="srgba(94.2824%,97.4792%,99.5651%,1)"/>
  <circle cx="2" cy="3" r="1" fill="srgba(79.4079%,92.2515%,98.6557%,1)"/>
  <circle cx="3" cy="3" r="1" fill="srgba(73.4829%,90.544%,98.4604%,1)"/>
  <circle cx="4" cy="3" r="1" fill="srgba(68.7312%,89.0425%,98.1338%,1)"/>
  <circle cx="5" cy="3" r="1" fill="srgba(64.2527%,87.7546%,97.9675%,1)"/>
  <circle cx="6" cy="3" r="1" fill="srgba(60.4776%,86.7216%,97.8683%,1)"/>
  <circle cx="7" cy="3" r="1" fill="srgba(57.5387%,85.9419%,97.8012%,1)"/>
  <circle cx="8" cy="3" r="1" fill="srgba(55.4284%,85.4063%,97.7615%,1)"/>
  <circle cx="9" cy="3" r="1" fill="srgba(53.9925%,85.0462%,97.7386%,1)"/>
  <circle cx="10" cy="3" r="1" fill="srgba(56.0159%,85.9174%,98.0316%,1)"/>
  <circle cx="11" cy="3" r="1" fill="srgba(36.1944%,70.0084%,86.3859%,1)"/>
  <circle cx="12" cy="3" r="1" fill="srgba(9.8024%,53.5073%,76.8399%,1)"/>
  <circle cx="13" cy="3" r="1" fill="srgba(36.6857%,65.7481%,83.769%,1)"/>
  <circle cx="14" cy="3" r="1" fill="srgba(79.9161%,87.9576%,95.0072%,1)"/>
  <circle cx="15" cy="3" r="1" fill="white"/>
  <circle cx="0" cy="4" r="1" fill="white"/>
  <circle cx="1" cy="4" r="1" fill="srgba(87.1229%,94.8028%,99.0845%,1)"/>
  <circle cx="2" cy="4" r="1" fill="srgba(54.0658%,81.4084%,93.4813%,1)"/>
  <circle cx="3" cy="4" r="1" fill="srgba(53.3104%,80.4868%,92.1386%,1)"/>
  <circle cx="4" cy="4" r="1" fill="srgba(49.1417%,81.8753%,95.79%,1)"/>
  <circle cx="5" cy="4" r="1" fill="srgba(49.5064%,82.1347%,95.9915%,1)"/>
  <circle cx="6" cy="4" r="1" fill="srgba(49.7597%,82.1714%,95.938%,1)"/>
  <circle cx="7" cy="4" r="1" fill="srgba(49.9138%,82.2141%,95.9442%,1)"/>
  <circle cx="8" cy="4" r="1" fill="srgba(50.0328%,82.2461%,95.9457%,1)"/>
  <circle cx="9" cy="4" r="1" fill="srgba(50.0603%,82.2538%,95.9472%,1)"/>
  <circle cx="10" cy="4" r="1" fill="srgba(51.8669%,83.0137%,96.2219%,1)"/>
  <circle cx="11" cy="4" r="1" fill="srgba(29.955%,66.2852%,84.0833%,1)"/>
  <circle cx="12" cy="4" r="1" fill="srgba(0%,47.6982%,72.7428%,1)"/>
  <circle cx="13" cy="4" r="1" fill="srgba(1.39315%,48.1178%,73.3135%,1)"/>
  <circle cx="14" cy="4" r="1" fill="srgba(60.116%,76.9436%,89.7658%,1)"/>
  <circle cx="15" cy="4" r="1" fill="white"/>
  <circle cx="0" cy="5" r="1" fill="white"/>
  <circle cx="1" cy="5" r="1" fill="srgba(85.9464%,94.1787%,98.7869%,1)"/>
  <circle cx="2" cy="5" r="1" fill="srgba(54.9691%,79.6277%,91.1177%,1)"/>
  <circle cx="3" cy="5" r="1" fill="srgba(78.706%,86.7704%,91.3222%,1)"/>
  <circle cx="4" cy="5" r="1" fill="srgba(61.7227%,82.356%,92.0012%,1)"/>
  <circle cx="5" cy="5" r="1" fill="srgba(46.3905%,78.7121%,93.2082%,1)"/>
  <circle cx="6" cy="5" r="1" fill="srgba(45.2766%,78.9685%,94.0826%,1)"/>
  <circle cx="7" cy="5" r="1" fill="srgba(45.658%,79.028%,94.023%,1)"/>
  <circle cx="8" cy="5" r="1" fill="srgba(45.626%,78.9899%,94.0047%,1)"/>
  <circle cx="9" cy="5" r="1" fill="srgba(45.5604%,78.9609%,93.9956%,1)"/>
  <circle cx="10" cy="5" r="1" fill="srgba(47.0863%,79.6094%,94.2382%,1)"/>
  <circle cx="11" cy="5" r="1" fill="srgba(26.7292%,64.0238%,82.4231%,1)"/>
  <circle cx="12" cy="5" r="1" fill="srgba(0%,47.2023%,71.7037%,1)"/>
  <circle cx="13" cy="5" r="1" fill="srgba(1.41604%,47.7455%,72.3598%,1)"/>
  <circle cx="14" cy="5" r="1" fill="srgba(60.3632%,76.9879%,89.575%,1)"/>
  <circle cx="15" cy="5" r="1" fill="white"/>
  <circle cx="0" cy="6" r="1" fill="white"/>
  <circle cx="1" cy="6" r="1" fill="srgba(84.8951%,93.4661%,98.3856%,1)"/>
  <circle cx="2" cy="6" r="1" fill="srgba(51.7128%,77.615%,90.1549%,1)"/>
  <circle cx="3" cy="6" r="1" fill="srgba(87.7867%,92.3919%,95.7137%,1)"/>
  <circle cx="4" cy="6" r="1" fill="srgba(91.0216%,94.6944%,97.6303%,1)"/>
  <circle cx="5" cy="6" r="1" fill="srgba(70.0923%,84.6387%,92.0607%,1)"/>
  <circle cx="6" cy="6" r="1" fill="srgba(46.331%,76.6369%,90.8873%,1)"/>
  <circle cx="7" cy="6" r="1" fill="srgba(40.3067%,75.4971%,91.9982%,1)"/>
  <circle cx="8" cy="6" r="1" fill="srgba(40.8026%,75.6619%,92.0714%,1)"/>
  <circle cx="9" cy="6" r="1" fill="srgba(40.7675%,75.5947%,92.05%,1)"/>
  <circle cx="10" cy="6" r="1" fill="srgba(42.0356%,76.1288%,92.2713%,1)"/>
  <circle cx="11" cy="6" r="1" fill="srgba(23.4455%,61.6129%,80.6943%,1)"/>
  <circle cx="12" cy="6" r="1" fill="srgba(0%,46.4164%,70.4982%,1)"/>
  <circle cx="13" cy="6" r="1" fill="srgba(1.41604%,46.981%,71.2322%,1)"/>
  <circle cx="14" cy="6" r="1" fill="srgba(60.3632%,76.8215%,89.3431%,1)"/>
  <circle cx="15" cy="6" r="1" fill="white"/>
  <circle cx="0" cy="7" r="1" fill="white"/>
  <circle cx="1" cy="7" r="1" fill="srgba(83.8315%,92.7337%,97.969%,1)"/>
  <circle cx="2" cy="7" r="1" fill="srgba(48.1559%,75.1125%,88.6351%,1)"/>
  <circle cx="3" cy="7" r="1" fill="srgba(87.0756%,91.9982%,95.4833%,1)"/>
  <circle cx="4" cy="7" r="1" fill="srgba(94.8745%,97.5891%,100%,1)"/>
  <circle cx="5" cy="7" r="1" fill="srgba(92.0104%,95.6481%,98.6236%,1)"/>
  <circle cx="6" cy="7" r="1" fill="srgba(77.5952%,87.5822%,93.3013%,1)"/>
  <circle cx="7" cy="7" r="1" fill="srgba(48.5893%,75.5718%,88.9754%,1)"/>
  <circle cx="8" cy="7" r="1" fill="srgba(36.0464%,72.0516%,89.7139%,1)"/>
  <circle cx="9" cy="7" r="1" fill="srgba(35.8892%,72.1004%,89.8848%,1)"/>
  <circle cx="10" cy="7" r="1" fill="srgba(36.8566%,72.5322%,90.0526%,1)"/>
  <circle cx="11" cy="7" r="1" fill="srgba(20.1312%,59.144%,78.854%,1)"/>
  <circle cx="12" cy="7" r="1" fill="srgba(0%,45.6336%,69.2973%,1)"/>
  <circle cx="13" cy="7" r="1" fill="srgba(1.41604%,46.2165%,70.0954%,1)"/>
  <circle cx="14" cy="7" r="1" fill="srgba(60.3647%,76.6598%,89.099%,1)"/>
  <circle cx="15" cy="7" r="1" fill="white"/>
  <circle cx="0" cy="8" r="1" fill="white"/>
  <circle cx="1" cy="8" r="1" fill="srgba(82.7497%,91.9982%,97.5448%,1)"/>
  <circle cx="2" cy="8" r="1" fill="srgba(44.4816%,72.5017%,87.1046%,1)"/>
  <circle cx="3" cy="8" r="1" fill="srgba(85.5848%,91.2367%,95.1278%,1)"/>
  <circle cx="4" cy="8" r="1" fill="srgba(84.2039%,91.8929%,96.8231%,1)"/>
  <circle cx="5" cy="8" r="1" fill="srgba(70.6371%,85.388%,93.6141%,1)"/>
  <circle cx="6" cy="8" r="1" fill="srgba(44.8066%,74.3816%,89.723%,1)"/>
  <circle cx="7" cy="8" r="1" fill="srgba(37.5708%,70.4616%,87.3381%,1)"/>
  <circle cx="8" cy="8" r="1" fill="srgba(28.2994%,67.2221%,86.9261%,1)"/>
  <circle cx="9" cy="8" r="1" fill="srgba(27.1946%,66.9352%,87.0497%,1)"/>
  <circle cx="10" cy="8" r="1" fill="srgba(27.5212%,67.0726%,87.0924%,1)"/>
  <circle cx="11" cy="8" r="1" fill="srgba(15.6161%,56.1028%,76.7559%,1)"/>
  <circle cx="12" cy="8" r="1" fill="srgba(0%,44.8859%,68.1071%,1)"/>
  <circle cx="13" cy="8" r="1" fill="srgba(1.4023%,45.4475%,68.9509%,1)"/>
  <circle cx="14" cy="8" r="1" fill="srgba(60.325%,76.4813%,88.8426%,1)"/>
  <circle cx="15" cy="8" r="1" fill="white"/>
  <circle cx="0" cy="9" r="1" fill="white"/>
  <circle cx="1" cy="9" r="1" fill="srgba(81.0956%,90.9865%,97.0153%,1)"/>
  <circle cx="2" cy="9" r="1" fill="srgba(38.5016%,68.7816%,85.0889%,1)"/>
  <circle cx="3" cy="9" r="1" fill="srgba(65.1408%,81.3169%,90.6233%,1)"/>
  <circle cx="4" cy="9" r="1" fill="srgba(39.6078%,70.0786%,86.392%,1)"/>
  <circle cx="5" cy="9" r="1" fill="srgba(73.2998%,84.8631%,91.9554%,1)"/>
  <circle cx="6" cy="9" r="1" fill="srgba(31.8776%,67.3411%,86.1036%,1)"/>
  <circle cx="7" cy="9" r="1" fill="srgba(18.3078%,61.5778%,84.1688%,1)"/>
  <circle cx="8" cy="9" r="1" fill="srgba(19.4903%,62.0478%,84.2985%,1)"/>
  <circle cx="9" cy="9" r="1" fill="srgba(19.4385%,62.0127%,84.2756%,1)"/>
  <circle cx="10" cy="9" r="1" fill="srgba(20.2045%,62.3575%,84.4022%,1)"/>
  <circle cx="11" cy="9" r="1" fill="srgba(11.957%,53.3715%,74.7555%,1)"/>
  <circle cx="12" cy="9" r="1" fill="srgba(0%,44.1276%,66.9139%,1)"/>
  <circle cx="13" cy="9" r="1" fill="srgba(1.29854%,44.6189%,67.7882%,1)"/>
  <circle cx="14" cy="9" r="1" fill="srgba(60.0336%,76.1486%,88.5206%,1)"/>
  <circle cx="15" cy="9" r="1" fill="white"/>
  <circle cx="0" cy="10" r="1" fill="white"/>
  <circle cx="1" cy="10" r="1" fill="srgba(79.4034%,89.8787%,96.5179%,1)"/>
  <circle cx="2" cy="10" r="1" fill="srgba(26.9612%,62.8016%,82.6383%,1)"/>
  <circle cx="3" cy="10" r="1" fill="srgba(25.7984%,62.414%,82.4613%,1)"/>
  <circle cx="4" cy="10" r="1" fill="srgba(15.4421%,58.4604%,81.6739%,1)"/>
  <circle cx="5" cy="10" r="1" fill="srgba(58.3383%,76.6583%,88.0262%,1)"/>
  <circle cx="6" cy="10" r="1" fill="srgba(59.8978%,79.2813%,91.4473%,1)"/>
  <circle cx="7" cy="10" r="1" fill="srgba(17.0901%,59.4278%,82.3545%,1)"/>
  <circle cx="8" cy="10" r="1" fill="srgba(14.905%,58.5199%,82.0462%,1)"/>
  <circle cx="9" cy="10" r="1" fill="srgba(15.1003%,58.6114%,82.0874%,1)"/>
  <circle cx="10" cy="10" r="1" fill="srgba(15.6924%,58.8708%,82.1714%,1)"/>
  <circle cx="11" cy="10" r="1" fill="srgba(9.12642%,50.9682%,72.8649%,1)"/>
  <circle cx="12" cy="10" r="1" fill="srgba(0%,43.3097%,65.6855%,1)"/>
  <circle cx="13" cy="10" r="1" fill="srgba(1.12612%,43.6774%,66.5675%,1)"/>
  <circle cx="14" cy="10" r="1" fill="srgba(59.5789%,75.6924%,88.1636%,1)"/>
  <circle cx="15" cy="10" r="1" fill="white"/>
  <circle cx="0" cy="11" r="1" fill="srgba(100%,100%,99.7604%,1)"/>
  <circle cx="1" cy="11" r="1" fill="srgba(77.3907%,88.2597%,95.5367%,1)"/>
  <circle cx="2" cy="11" r="1" fill="srgba(19.1089%,59.4049%,82.1714%,1)"/>
  <circle cx="3" cy="11" r="1" fill="srgba(13.6004%,56.6476%,80.4974%,1)"/>
  <circle cx="4" cy="11" r="1" fill="srgba(13.0282%,56.4355%,80.4623%,1)"/>
  <circle cx="5" cy="11" r="1" fill="srgba(30.573%,62.6383%,81.4313%,1)"/>
  <circle cx="6" cy="11" r="1" fill="srgba(70.3227%,83.1388%,93.7499%,1)"/>
  <circle cx="7" cy="11" r="1" fill="srgba(34.0764%,66.4469%,85.8885%,1)"/>
  <circle cx="8" cy="11" r="1" fill="srgba(11.2963%,55.4391%,79.9573%,1)"/>
  <circle cx="9" cy="11" r="1" fill="srgba(11.5923%,55.5917%,80.0809%,1)"/>
  <circle cx="10" cy="11" r="1" fill="srgba(11.5572%,55.5291%,80.0153%,1)"/>
  <circle cx="11" cy="11" r="1" fill="srgba(6.75669%,48.8136%,71.1238%,1)"/>
  <circle cx="12" cy="11" r="1" fill="srgba(0.738537%,43.267%,64.9912%,1)"/>
  <circle cx="13" cy="11" r="1" fill="srgba(3.09148%,44.3534%,66.4363%,1)"/>
  <circle cx="14" cy="11" r="1" fill="srgba(58.9593%,74.8318%,87.2221%,1)"/>
  <circle cx="15" cy="11" r="1" fill="srgba(100%,99.5651%,99.2493%,1)"/>
  <circle cx="0" cy="12" r="1" fill="srgba(95.6344%,95.2453%,94.9737%,1)"/>
  <circle cx="1" cy="12" r="1" fill="srgba(73.4325%,81.6388%,87.9454%,1)"/>
  <circle cx="2" cy="12" r="1" fill="srgba(41.0163%,67.335%,84.596%,1)"/>
  <circle cx="3" cy="12" r="1" fill="srgba(33.9712%,64.5914%,83.6957%,1)"/>
  <circle cx="4" cy="12" r="1" fill="srgba(29.662%,63.1815%,83.5264%,1)"/>
  <circle cx="5" cy="12" r="1" fill="srgba(27.866%,61.7365%,82.1439%,1)"/>
  <circle cx="6" cy="12" r="1" fill="srgba(56.2722%,75.2651%,90.1091%,1)"/>
  <circle cx="7" cy="12" r="1" fill="srgba(58.0728%,78.4146%,94.3236%,1)"/>
  <circle cx="8" cy="12" r="1" fill="srgba(24.8463%,61.3703%,82.9313%,1)"/>
  <circle cx="9" cy="12" r="1" fill="srgba(19.3652%,58.6114%,80.9659%,1)"/>
  <circle cx="10" cy="12" r="1" fill="srgba(18.2864%,57.9232%,80.5203%,1)"/>
  <circle cx="11" cy="12" r="1" fill="srgba(11.8379%,51.136%,72.1019%,1)"/>
  <circle cx="12" cy="12" r="1" fill="srgba(10.103%,48.4825%,68.632%,1)"/>
  <circle cx="13" cy="12" r="1" fill="srgba(18.2849%,51.6823%,72.3018%,1)"/>
  <circle cx="14" cy="12" r="1" fill="srgba(57.171%,69.3507%,79.9817%,1)"/>
  <circle cx="15" cy="12" r="1" fill="srgba(93.6675%,93.2235%,92.9274%,1)"/>
  <circle cx="0" cy="13" r="1" fill="srgba(97.1511%,97.1221%,97.0947%,1)"/>
  <circle cx="1" cy="13" r="1" fill="srgba(89.8268%,90.5303%,91.194%,1)"/>
  <circle cx="2" cy="13" r="1" fill="srgba(82.9603%,85.2308%,87.393%,1)"/>
  <circle cx="3" cy="13" r="1" fill="srgba(77.0672%,81.2818%,84.9775%,1)"/>
  <circle cx="4" cy="13" r="1" fill="srgba(70.753%,77.6379%,83.2853%,1)"/>
  <circle cx="5" cy="13" r="1" fill="srgba(63.9933%,74.2626%,82.2232%,1)"/>
  <circle cx="6" cy="13" r="1" fill="srgba(62.6108%,74.139%,83.8041%,1)"/>
  <circle cx="7" cy="13" r="1" fill="srgba(63.4409%,76.0372%,87.3045%,1)"/>
  <circle cx="8" cy="13" r="1" fill="srgba(50.5516%,70.309%,84.6296%,1)"/>
  <circle cx="9" cy="13" r="1" fill="srgba(40.5188%,66.1891%,82.977%,1)"/>
  <circle cx="10" cy="13" r="1" fill="srgba(36.6583%,65.2705%,83.5157%,1)"/>
  <circle cx="11" cy="13" r="1" fill="srgba(29.9489%,59.1943%,78.0423%,1)"/>
  <circle cx="12" cy="13" r="1" fill="srgba(38.1613%,59.0707%,75.1904%,1)"/>
  <circle cx="13" cy="13" r="1" fill="srgba(59.91%,68.9937%,77.6852%,1)"/>
  <circle cx="14" cy="13" r="1" fill="srgba(83.4638%,84.979%,86.6667%,1)"/>
  <circle cx="15" cy="13" r="1" fill="srgba(97.0809%,97.0062%,96.9268%,1)"/>
  <circle cx="0" cy="14" r="1" fill="white"/>
  <circle cx="1" cy="14" r="1" fill="white"/>
  <circle cx="2" cy="14" r="1" fill="srgba(99.9466%,99.855%,99.7406%,1)"/>
  <circle cx="3" cy="14" r="1" fill="srgba(99.3164%,99.06%,98.8373%,1)"/>
  <circle cx="4" cy="14" r="1" fill="srgba(97.9522%,97.6043%,97.3251%,1)"/>
  <circle cx="5" cy="14" r="1" fill="srgba(95.8083%,95.4208%,95.1507%,1)"/>
  <circle cx="6" cy="14" r="1" fill="srgba(92.4071%,92.2927%,92.2255%,1)"/>
  <circle cx="7" cy="14" r="1" fill="srgba(88.0995%,88.5222%,88.9021%,1)"/>
  <circle cx="8" cy="14" r="1" fill="srgba(83.7613%,84.8325%,85.9098%,1)"/>
  <circle cx="9" cy="14" r="1" fill="srgba(78.6313%,80.9888%,83.1922%,1)"/>
  <circle cx="10" cy="14" r="1" fill="srgba(73.0007%,77.3953%,81.2131%,1)"/>
  <circle cx="11" cy="14" r="1" fill="srgba(68.3742%,73.7774%,79.0524%,1)"/>
  <circle cx="12" cy="14" r="1" fill="srgba(79.1791%,80.5615%,82.3377%,1)"/>
  <circle cx="13" cy="14" r="1" fill="srgba(93.6522%,93.3028%,93.0053%,1)"/>
  <circle cx="14" cy="14" r="1" fill="srgba(99.3866%,99.2813%,99.1653%,1)"/>
  <circle cx="15" cy="14" r="1" fill="white"/>
  <circle cx="0" cy="15" r="1" fill="white"/>
  <circle cx="1" cy="15" r="1" fill="white"/>
  <circle cx="2" cy="15" r="1" fill="white"/>
  <circle cx="3" cy="15" r="1" fill="white"/>
  <circle cx="4" cy="15" r="1" fill="white"/>
  <circle cx="5" cy="15" r="1" fill="white"/>
  <circle cx="6" cy="15" r="1" fill="white"/>
  <circle cx="7" cy="15" r="1" fill="srgba(99.9893%,99.9741%,99.9588%,1)"/>
  <circle cx="8" cy="15" r="1" fill="srgba(99.6307%,99.5392%,99.4583%,1)"/>
  <circle cx="9" cy="15" r="1" fill="srgba(98.6465%,98.4604%,98.294%,1)"/>
  <circle cx="10" cy="15" r="1" fill="srgba(96.9299%,96.6323%,96.3745%,1)"/>
  <circle cx="11" cy="15" r="1" fill="srgba(95.4604%,95.1125%,94.7799%,1)"/>
  <circle cx="12" cy="15" r="1" fill="srgba(97.4197%,97.3037%,97.1786%,1)"/>
  <circle cx="13" cy="15" r="1" fill="srgba(99.7543%,99.7559%,99.7574%,1)"/>
  <circle cx="14" cy="15" r="1" fill="white"/>
  <circle cx="15" cy="15" r="1" fill="white"/>
</svg>
