/* XPM */
static char *cxmenu_tmp[] = {
/* columns rows colors chars-per-pixel */
"22 22 230 2 ",
"   c #3D4C7D0C788F",
".  c #5C8378207008",
"X  c #7D6F61527EAF",
"o  c #E89356B73BC0",
"O  c #B58373A070A8",
"+  c #C99546555A3B",
"@  c #EDEE4E284901",
"#  c #FB685C2759E0",
"$  c #C9587DC94A0A",
"%  c #E7D564AE5B84",
"&  c #F90072E5568B",
"*  c #CE3E4DC86181",
"=  c #FADF6FE76D5A",
"-  c #0CE492B5318A",
";  c #0673964B390A",
":  c #152694383078",
">  c #226790692AD1",
",  c #0727B8023C93",
"<  c #2C5FB7FA3699",
"1  c #5873A9B32C2F",
"2  c #5AA6B9C330E3",
"3  c #6649A1692747",
"4  c #76E9AA7B20FB",
"5  c #32DAC1AF3961",
"6  c #6CD3CB892E9A",
"7  c #13D99E3C4B10",
"8  c #35E5A2CE4AD2",
"9  c #2E65B78944FF",
"0  c #65118CF05B67",
"q  c #6C0694C55934",
"w  c #717794955687",
"e  c #51F6A437429F",
"r  c #4382BE5A42DA",
"t  c #557CBD5D5791",
"y  c #7DDCBCAA5C77",
"u  c #701DC88B50FE",
"i  c #B3FFA6BC2AAD",
"p  c #A601BFF8333E",
"a  c #D74CB9081895",
"s  c #D7D3A7303CDF",
"d  c #CE82B6253B47",
"f  c #DBA4BEBA3262",
"g  c #D092BAB93F59",
"h  c #91FDC3192984",
"j  c #BDC9D1D02D4C",
"k  c #B8B3C6A935C6",
"l  c #BAF1CDA236AF",
"z  c #A326D3A23FA1",
"x  c #B38CD85F36B8",
"c  c #F187F3260DD9",
"v  c #E660E81A117E",
"b  c #F0AFF05A1E84",
"n  c #F3D7F55C1403",
"m  c #F5CBF68414B6",
"M  c #F8AAF85B142C",
"N  c #F9F3FA8C1BFB",
"B  c #C5C3DA2B206E",
"V  c #C67AD3EE3D68",
"C  c #ECE5CEE537FD",
"Z  c #D135E11B21FB",
"A  c #DA79E8CD2967",
"S  c #E3DDE6FD2F14",
"D  c #E5ABEC152D76",
"F  c #EE64EF5B2960",
"G  c #EA04EB9A2C4D",
"H  c #F1F0F51C23EC",
"J  c #F88FF8F02ED3",
"K  c #E525E21A33D4",
"L  c #ECC6EE1C3236",
"P  c #EEF5F02F3980",
"I  c #F6A2F7962FC9",
"U  c #F598F73634F0",
"Y  c #F9D5FB0A31BE",
"T  c #F916FAE3337F",
"R  c #FA4EFB96335A",
"E  c #F921FAEE3714",
"W  c #F5EDF7543A3A",
"Q  c #F1ABF2A93DEC",
"!  c #F2A5F3A33E07",
"~  c #F645F7713DAE",
"^  c #F64AF77A3CC7",
"/  c #F6CBF80B3C15",
"(  c #F68BF7A53FBD",
")  c #F972FAFA39AF",
"_  c #F996FB19396B",
"`  c #FA66FC0D38FE",
"'  c #F9D7FAFB3C66",
"]  c #FA00FB123F53",
"[  c #9B16AE304379",
"{  c #9DDEBA7D4474",
"}  c #8397B358613C",
"|  c #96DABBC66991",
" . c #B970B7E16E57",
".. c #CA709CA0440B",
"X. c #D04FB7654EE2",
"o. c #D60FBFB34C6F",
"O. c #CFBAAA5B58DF",
"+. c #CE1EBE155723",
"@. c #C549BD435C65",
"#. c #D686928F681A",
"$. c #E96A84E67505",
"%. c #CDADA29C607C",
"&. c #DB64A03F69E7",
"*. c #EB9CA97B755B",
"=. c #FA5CB1DC7D03",
"-. c #A2B3D45A49D3",
";. c #BF45E4206809",
":. c #D21BDE8647A7",
">. c #CCB5CDDE5919",
",. c #D836C559561B",
"<. c #CFCED7B755E5",
"1. c #C1E5DE905589",
"2. c #C61BD907599F",
"3. c #EDE7D4914DF4",
"4. c #F552DF2646EE",
"5. c #F5EDE13E4F80",
"6. c #F687F7A5416C",
"7. c #F775F87642BD",
"8. c #F9FBFAFA424F",
"9. c #FA10FB0F4484",
"0. c #F9FAFAF94553",
"q. c #FA23FB254621",
"w. c #FA15FB164744",
"e. c #FAA0FCF946F0",
"r. c #F263F34E4A1B",
"t. c #FA33FB4A4872",
"y. c #FA16FB174927",
"u. c #FA24FB234AC5",
"i. c #FA2FFB304BC1",
"p. c #FA0FFB0F4F9D",
"a. c #E720E8115A27",
"s. c #FB4DE3DE5B47",
"d. c #EEF0F6125D82",
"f. c #F3F4F4EA5767",
"g. c #F93CFA3C5030",
"h. c #FA23FB2450BE",
"j. c #FA26FB235163",
"k. c #FA0CFB0D534A",
"l. c #FA15FB16550E",
"z. c #FA4DFB4E5754",
"x. c #F953FCFF59FF",
"c. c #FAA8FBA85EB5",
"v. c #D121C8A464C4",
"b. c #DF8ACFF476E4",
"n. c #DC82DD16731A",
"m. c #DEBDDF0C78C6",
"M. c #E5AAD71177A8",
"N. c #FCB3E9986035",
"B. c #FD95E83B6F93",
"V. c #FA1AFB1860AB",
"C. c #FAC3FBC461E5",
"Z. c #FAD6FBDA6440",
"A. c #FADFFBE56712",
"S. c #F118F1CE6F77",
"D. c #FAFAFC016A45",
"F. c #FACAFBCD6CDF",
"G. c #FAF9FC026F84",
"H. c #FA87FDCD6E03",
"J. c #ECE4EDBD7603",
"K. c #E088E1347D3E",
"L. c #E333EAAA7D0F",
"P. c #EA61EFF97EE7",
"I. c #F122E4D17256",
"U. c #FDEAE989737E",
"Y. c #FB93EA917444",
"T. c #FAF5FBFE73AF",
"R. c #FB25FC2775C2",
"E. c #FB12FBF47753",
"W. c #FB59FBF77B66",
"Q. c #FBBCFCCA79B1",
"!. c #FB7EFC267F67",
"~. c #FD70FDDF7FCC",
"^. c #10C5631C9442",
"/. c #26DA7CEC968E",
"(. c #027B64D7A994",
"). c #08336D1CA93B",
"_. c #57F169138541",
"`. c #5C31762C9AF4",
"'. c #01FA7C2EC0E2",
"]. c #2C878B28A204",
"[. c #23498FAFB3A6",
"{. c #463494AD8CA5",
"}. c #47F395B2A92E",
"|. c #F8E58D87822D",
" X c #FEE4995C83F9",
".X c #FCA19FBA90A5",
"XX c #FA3CABAD8EA4",
"oX c #FED0A57F939D",
"OX c #FC83B41B9A0E",
"+X c #F424BB7F9E3D",
"@X c #DFF3C48C8FAF",
"#X c #DFB9CDAD8DC5",
"$X c #E8FEC62D9AD6",
"%X c #F547CCC5987B",
"&X c #E21AE2EA8158",
"*X c #E48AE5588712",
"=X c #F4CEEA4E8752",
"-X c #FCEFEB8685EE",
";X c #FC42FE058454",
":X c #FDADFDC78431",
">X c #FDADFE5A8776",
",X c #FD9AFE878B28",
"<X c #F330F40D9395",
"1X c #F663F6CE958D",
"2X c #FDA5FEAE9221",
"3X c #F93AFB719734",
"4X c #F279F2B8992A",
"5X c #FBB3F4499C15",
"6X c #F9D0F98BA651",
"7X c #FB40FB82A71F",
"8X c #F63EF71BAACF",
"9X c #FD0AF2E0ACCB",
"0X c #FCC7FD76A978",
"qX c #FAD7FBD8AC72",
"wX c #FC49FD11ACC9",
"eX c #FCFBF61FB4DC",
"rX c #FDABF6D8B536",
"tX c #FC8FFBF9B03C",
"yX c #FC6BFEEAB277",
"uX c #FCD4FD71B19F",
"iX c #FCF6FDF7B3A1",
"pX c #FCAFFD9BBB35",
"aX c #F8BEF96FC00F",
"sX c #FCECFF0BBD10",
"dX c #FD6CFDE3C18B",
"fX c #FD45FD94C419",
"gX c #FDE3FE03C852",
"hX c #FDE3FE3CC986",
"jX c #FE07FE4FCC94",
"kX c None",
/* pixels */
"kXkXkXkXkXkXkXkXkXkXkXkXkXkXkXkXkXkXkXkXkXkX",
"kXkXkXkXkXkXkXkXkXkXkXkXkXkXkXkXkXkXkXkXkXkX",
"kXkXkXkXkXkXkXkXkXkXkXkXkXkXkXkXkXkXkXkXkXkX",
"kXkXkXkXkXkXkXkXkXkXkXkXkXkXkXkXkXkXkXkXkXkX",
"kXkXkXkXkXkXkXkXkXkXkXkXkXkXkXkXkXkXkXkXkXkX",
"kXwXuXuXuXtX5XY.=XqX0X1XkXkXkXkXkXkXkXkXkXkX",
"8XfXgXgXrX-Xs.C b.dXsXyX4XkXkXkXkXkXkXkXkXkX",
"8XfXjX9XU.4.,.@X+XOXXX%X6X<X*X&XK.m.n.J.R.a.",
"kXpXeXB.5.+.$XoX.X|.= # *.1X2X,X>X:X:XQ.F.f.",
"kX6XI.N.o.#X X$.#.&.O * @ M.;X;XW.E.T.F.C.r.",
"kXP.2.3.@.=.% %.L.y  .`.+ O.F.D.D.C.C.c.p.kX",
"kX1.z f v.& $ S.;.8 >.}.X ..x.l.l.j.l.j.6.kX",
"kX-.6 a X.o o.d.t e <.[._.d e.0.0.0.u.0.( kX",
"kXx 5 h i s :.u 7 p | '.. K ` ) _ ] 8.0.W kX",
"kXD 2 , < r 9 ; 3 V ].).[ J T T ] 8.u.u.! kX",
"kXb A 1 : - > 4 l {.(.0 G T T ] 8.0.p.u.! kX",
"kXv N H Z B j } /.^.w S R _ ] 8.u.p.j.u.P kX",
"kXkXc n m M {   q k F I U W ( ( 6.6.6.W L kX",
"kXkXkXkXkXkXkXkXkXkXkXkXkXkXkXkXkXkXkXkXkXkX",
"kXkXkXkXkXkXkXkXkXkXkXkXkXkXkXkXkXkXkXkXkXkX",
"kXkXkXkXkXkXkXkXkXkXkXkXkXkXkXkXkXkXkXkXkXkX",
"kXkXkXkXkXkXkXkXkXkXkXkXkXkXkXkXkXkXkXkXkXkX"
};
