<?xml version="1.0" standalone="no"?>
<!DOCTYPE svg PUBLIC "-//W3C//DTD SVG 20010904//EN"
  "http://www.w3.org/TR/2001/REC-SVG-20010904/DTD/svg10.dtd">
<svg width="22" height="22">
  <circle cx="0" cy="0" r="1" fill="white"/>
  <circle cx="1" cy="0" r="1" fill="white"/>
  <circle cx="2" cy="0" r="1" fill="white"/>
  <circle cx="3" cy="0" r="1" fill="white"/>
  <circle cx="4" cy="0" r="1" fill="white"/>
  <circle cx="5" cy="0" r="1" fill="white"/>
  <circle cx="6" cy="0" r="1" fill="white"/>
  <circle cx="7" cy="0" r="1" fill="white"/>
  <circle cx="8" cy="0" r="1" fill="white"/>
  <circle cx="9" cy="0" r="1" fill="white"/>
  <circle cx="10" cy="0" r="1" fill="white"/>
  <circle cx="11" cy="0" r="1" fill="white"/>
  <circle cx="12" cy="0" r="1" fill="white"/>
  <circle cx="13" cy="0" r="1" fill="white"/>
  <circle cx="14" cy="0" r="1" fill="white"/>
  <circle cx="15" cy="0" r="1" fill="white"/>
  <circle cx="16" cy="0" r="1" fill="white"/>
  <circle cx="17" cy="0" r="1" fill="white"/>
  <circle cx="18" cy="0" r="1" fill="white"/>
  <circle cx="19" cy="0" r="1" fill="white"/>
  <circle cx="20" cy="0" r="1" fill="white"/>
  <circle cx="21" cy="0" r="1" fill="white"/>
  <circle cx="0" cy="1" r="1" fill="white"/>
  <circle cx="1" cy="1" r="1" fill="white"/>
  <circle cx="2" cy="1" r="1" fill="white"/>
  <circle cx="3" cy="1" r="1" fill="white"/>
  <circle cx="4" cy="1" r="1" fill="white"/>
  <circle cx="5" cy="1" r="1" fill="white"/>
  <circle cx="6" cy="1" r="1" fill="white"/>
  <circle cx="7" cy="1" r="1" fill="white"/>
  <circle cx="8" cy="1" r="1" fill="white"/>
  <circle cx="9" cy="1" r="1" fill="white"/>
  <circle cx="10" cy="1" r="1" fill="white"/>
  <circle cx="11" cy="1" r="1" fill="white"/>
  <circle cx="12" cy="1" r="1" fill="white"/>
  <circle cx="13" cy="1" r="1" fill="white"/>
  <circle cx="14" cy="1" r="1" fill="white"/>
  <circle cx="15" cy="1" r="1" fill="white"/>
  <circle cx="16" cy="1" r="1" fill="white"/>
  <circle cx="17" cy="1" r="1" fill="white"/>
  <circle cx="18" cy="1" r="1" fill="white"/>
  <circle cx="19" cy="1" r="1" fill="white"/>
  <circle cx="20" cy="1" r="1" fill="white"/>
  <circle cx="21" cy="1" r="1" fill="white"/>
  <circle cx="0" cy="2" r="1" fill="white"/>
  <circle cx="1" cy="2" r="1" fill="white"/>
  <circle cx="2" cy="2" r="1" fill="white"/>
  <circle cx="3" cy="2" r="1" fill="white"/>
  <circle cx="4" cy="2" r="1" fill="white"/>
  <circle cx="5" cy="2" r="1" fill="white"/>
  <circle cx="6" cy="2" r="1" fill="white"/>
  <circle cx="7" cy="2" r="1" fill="white"/>
  <circle cx="8" cy="2" r="1" fill="white"/>
  <circle cx="9" cy="2" r="1" fill="white"/>
  <circle cx="10" cy="2" r="1" fill="white"/>
  <circle cx="11" cy="2" r="1" fill="white"/>
  <circle cx="12" cy="2" r="1" fill="srgba(100%,99.9588%,99.9863%,1)"/>
  <circle cx="13" cy="2" r="1" fill="srgba(99.7162%,99.7024%,99.9359%,1)"/>
  <circle cx="14" cy="2" r="1" fill="srgba(99.3378%,99.5254%,99.9084%,1)"/>
  <circle cx="15" cy="2" r="1" fill="srgba(99.8993%,99.9191%,99.9847%,1)"/>
  <circle cx="16" cy="2" r="1" fill="srgba(99.8596%,99.8322%,99.9664%,1)"/>
  <circle cx="17" cy="2" r="1" fill="srgba(99.9878%,99.9832%,99.9969%,1)"/>
  <circle cx="18" cy="2" r="1" fill="white"/>
  <circle cx="19" cy="2" r="1" fill="white"/>
  <circle cx="20" cy="2" r="1" fill="white"/>
  <circle cx="21" cy="2" r="1" fill="white"/>
  <circle cx="0" cy="3" r="1" fill="white"/>
  <circle cx="1" cy="3" r="1" fill="white"/>
  <circle cx="2" cy="3" r="1" fill="white"/>
  <circle cx="3" cy="3" r="1" fill="white"/>
  <circle cx="4" cy="3" r="1" fill="white"/>
  <circle cx="5" cy="3" r="1" fill="srgba(99.9985%,99.9542%,99.9924%,1)"/>
  <circle cx="6" cy="3" r="1" fill="srgba(99.6384%,99.6643%,99.9466%,1)"/>
  <circle cx="7" cy="3" r="1" fill="srgba(98.6175%,99.176%,99.8688%,1)"/>
  <circle cx="8" cy="3" r="1" fill="srgba(97.0062%,98.4833%,99.7635%,1)"/>
  <circle cx="9" cy="3" r="1" fill="srgba(94.7005%,97.5738%,99.6323%,1)"/>
  <circle cx="10" cy="3" r="1" fill="srgba(91.6045%,96.4294%,99.4751%,1)"/>
  <circle cx="11" cy="3" r="1" fill="srgba(87.8416%,95.1568%,99.3164%,1)"/>
  <circle cx="12" cy="3" r="1" fill="srgba(83.4943%,93.7545%,99.147%,1)"/>
  <circle cx="13" cy="3" r="1" fill="srgba(78.674%,92.2637%,98.9731%,1)"/>
  <circle cx="14" cy="3" r="1" fill="srgba(77.4792%,92.2606%,99.0738%,1)"/>
  <circle cx="15" cy="3" r="1" fill="srgba(87.6539%,95.0225%,98.3932%,1)"/>
  <circle cx="16" cy="3" r="1" fill="srgba(72.3552%,84.6372%,93.1853%,1)"/>
  <circle cx="17" cy="3" r="1" fill="srgba(83.3722%,89.7856%,95.9686%,1)"/>
  <circle cx="18" cy="3" r="1" fill="srgba(97.4655%,98.2315%,99.4095%,1)"/>
  <circle cx="19" cy="3" r="1" fill="white"/>
  <circle cx="20" cy="3" r="1" fill="white"/>
  <circle cx="21" cy="3" r="1" fill="white"/>
  <circle cx="0" cy="4" r="1" fill="white"/>
  <circle cx="1" cy="4" r="1" fill="srgba(99.826%,99.9008%,99.9847%,1)"/>
  <circle cx="2" cy="4" r="1" fill="srgba(94.7662%,97.5128%,99.5941%,1)"/>
  <circle cx="3" cy="4" r="1" fill="srgba(90.1503%,95.8312%,99.3347%,1)"/>
  <circle cx="4" cy="4" r="1" fill="srgba(86.125%,94.4381%,99.118%,1)"/>
  <circle cx="5" cy="4" r="1" fill="srgba(81.4618%,92.9061%,98.8647%,1)"/>
  <circle cx="6" cy="4" r="1" fill="srgba(76.6461%,91.4351%,98.6603%,1)"/>
  <circle cx="7" cy="4" r="1" fill="srgba(71.7983%,90.0252%,98.4909%,1)"/>
  <circle cx="8" cy="4" r="1" fill="srgba(67.2724%,88.7846%,98.3673%,1)"/>
  <circle cx="9" cy="4" r="1" fill="srgba(63.2609%,87.7226%,98.2727%,1)"/>
  <circle cx="10" cy="4" r="1" fill="srgba(59.968%,86.8757%,98.2086%,1)"/>
  <circle cx="11" cy="4" r="1" fill="srgba(57.4304%,86.2531%,98.1643%,1)"/>
  <circle cx="12" cy="4" r="1" fill="srgba(55.6344%,85.8167%,98.1369%,1)"/>
  <circle cx="13" cy="4" r="1" fill="srgba(54.4945%,85.5421%,98.1216%,1)"/>
  <circle cx="14" cy="4" r="1" fill="srgba(55.6817%,86.2028%,98.4604%,1)"/>
  <circle cx="15" cy="4" r="1" fill="srgba(54.9157%,80.9659%,92.7779%,1)"/>
  <circle cx="16" cy="4" r="1" fill="srgba(11.0445%,54.8074%,77.5265%,1)"/>
  <circle cx="17" cy="4" r="1" fill="srgba(23.0533%,59.6017%,80.5524%,1)"/>
  <circle cx="18" cy="4" r="1" fill="srgba(53.167%,73.611%,88.2368%,1)"/>
  <circle cx="19" cy="4" r="1" fill="srgba(79.8642%,87.6143%,95.0744%,1)"/>
  <circle cx="20" cy="4" r="1" fill="srgba(98.706%,99.1577%,99.6887%,1)"/>
  <circle cx="21" cy="4" r="1" fill="white"/>
  <circle cx="0" cy="5" r="1" fill="white"/>
  <circle cx="1" cy="5" r="1" fill="srgba(99.7238%,99.7421%,99.9634%,1)"/>
  <circle cx="2" cy="5" r="1" fill="srgba(77.4609%,90.9728%,98.3536%,1)"/>
  <circle cx="3" cy="5" r="1" fill="srgba(56.3943%,84.448%,96.5988%,1)"/>
  <circle cx="4" cy="5" r="1" fill="srgba(53.9528%,83.8972%,96.5606%,1)"/>
  <circle cx="5" cy="5" r="1" fill="srgba(52.7779%,83.9689%,96.9879%,1)"/>
  <circle cx="6" cy="5" r="1" fill="srgba(52.0165%,83.7354%,96.8627%,1)"/>
  <circle cx="7" cy="5" r="1" fill="srgba(51.6335%,83.6561%,96.8597%,1)"/>
  <circle cx="8" cy="5" r="1" fill="srgba(51.5618%,83.6469%,96.8612%,1)"/>
  <circle cx="9" cy="5" r="1" fill="srgba(51.6426%,83.6698%,96.8643%,1)"/>
  <circle cx="10" cy="5" r="1" fill="srgba(51.7891%,83.7049%,96.8673%,1)"/>
  <circle cx="11" cy="5" r="1" fill="srgba(51.9417%,83.7415%,96.8688%,1)"/>
  <circle cx="12" cy="5" r="1" fill="srgba(52.0638%,83.772%,96.8719%,1)"/>
  <circle cx="13" cy="5" r="1" fill="srgba(52.1294%,83.7903%,96.8734%,1)"/>
  <circle cx="14" cy="5" r="1" fill="srgba(53.0999%,84.3824%,97.2335%,1)"/>
  <circle cx="15" cy="5" r="1" fill="srgba(47.3747%,77.0077%,90.7347%,1)"/>
  <circle cx="16" cy="5" r="1" fill="srgba(3.17998%,50.3105%,74.6181%,1)"/>
  <circle cx="17" cy="5" r="1" fill="srgba(0%,48.4184%,73.547%,1)"/>
  <circle cx="18" cy="5" r="1" fill="srgba(2.56809%,49.6849%,74.2657%,1)"/>
  <circle cx="19" cy="5" r="1" fill="srgba(34.5968%,62.7863%,83.3112%,1)"/>
  <circle cx="20" cy="5" r="1" fill="srgba(94.3206%,96.2188%,98.6557%,1)"/>
  <circle cx="21" cy="5" r="1" fill="white"/>
  <circle cx="0" cy="6" r="1" fill="white"/>
  <circle cx="1" cy="6" r="1" fill="srgba(99.8215%,99.7757%,99.9878%,1)"/>
  <circle cx="2" cy="6" r="1" fill="srgba(73.7346%,89.6407%,97.9416%,1)"/>
  <circle cx="3" cy="6" r="1" fill="srgba(50.3929%,79.086%,91.5557%,1)"/>
  <circle cx="4" cy="6" r="1" fill="srgba(58.0621%,78.2284%,87.2114%,1)"/>
  <circle cx="5" cy="6" r="1" fill="srgba(50.4723%,80.9155%,94.1176%,1)"/>
  <circle cx="6" cy="6" r="1" fill="srgba(48.8716%,81.5274%,95.642%,1)"/>
  <circle cx="7" cy="6" r="1" fill="srgba(49.2546%,81.5702%,95.5367%,1)"/>
  <circle cx="8" cy="6" r="1" fill="srgba(49.2439%,81.5625%,95.5245%,1)"/>
  <circle cx="9" cy="6" r="1" fill="srgba(49.2241%,81.5625%,95.5245%,1)"/>
  <circle cx="10" cy="6" r="1" fill="srgba(49.2226%,81.5625%,95.5245%,1)"/>
  <circle cx="11" cy="6" r="1" fill="srgba(49.1997%,81.564%,95.5261%,1)"/>
  <circle cx="12" cy="6" r="1" fill="srgba(49.1951%,81.564%,95.5261%,1)"/>
  <circle cx="13" cy="6" r="1" fill="srgba(49.1814%,81.564%,95.5276%,1)"/>
  <circle cx="14" cy="6" r="1" fill="srgba(50.0832%,82.1347%,95.8831%,1)"/>
  <circle cx="15" cy="6" r="1" fill="srgba(44.0909%,74.9676%,89.4499%,1)"/>
  <circle cx="16" cy="6" r="1" fill="srgba(2.84428%,49.8116%,73.8064%,1)"/>
  <circle cx="17" cy="6" r="1" fill="srgba(0%,48.2292%,72.9076%,1)"/>
  <circle cx="18" cy="6" r="1" fill="srgba(0%,47.6127%,72.4163%,1)"/>
  <circle cx="19" cy="6" r="1" fill="srgba(29.7887%,60.3616%,81.5229%,1)"/>
  <circle cx="20" cy="6" r="1" fill="srgba(94.1405%,96.0861%,98.6343%,1)"/>
  <circle cx="21" cy="6" r="1" fill="white"/>
  <circle cx="0" cy="7" r="1" fill="white"/>
  <circle cx="1" cy="7" r="1" fill="srgba(99.8062%,99.7787%,100%,1)"/>
  <circle cx="2" cy="7" r="1" fill="srgba(72.3308%,88.687%,97.3678%,1)"/>
  <circle cx="3" cy="7" r="1" fill="srgba(49.8634%,77.8744%,90.4723%,1)"/>
  <circle cx="4" cy="7" r="1" fill="srgba(81.1185%,86.685%,90.2403%,1)"/>
  <circle cx="5" cy="7" r="1" fill="srgba(73.3227%,85.214%,91.3222%,1)"/>
  <circle cx="6" cy="7" r="1" fill="srgba(51.3954%,78.9075%,91.3512%,1)"/>
  <circle cx="7" cy="7" r="1" fill="srgba(45.3635%,78.9487%,93.9528%,1)"/>
  <circle cx="8" cy="7" r="1" fill="srgba(45.8259%,79.1974%,94.1405%,1)"/>
  <circle cx="9" cy="7" r="1" fill="srgba(45.8961%,79.173%,94.0841%,1)"/>
  <circle cx="10" cy="7" r="1" fill="srgba(45.8686%,79.1501%,94.0826%,1)"/>
  <circle cx="11" cy="7" r="1" fill="srgba(45.8427%,79.1211%,94.0673%,1)"/>
  <circle cx="12" cy="7" r="1" fill="srgba(45.8335%,79.1165%,94.0658%,1)"/>
  <circle cx="13" cy="7" r="1" fill="srgba(45.7984%,79.1012%,94.0505%,1)"/>
  <circle cx="14" cy="7" r="1" fill="srgba(46.6239%,79.6216%,94.3938%,1)"/>
  <circle cx="15" cy="7" r="1" fill="srgba(40.5554%,72.6864%,88.0262%,1)"/>
  <circle cx="16" cy="7" r="1" fill="srgba(2.52842%,49.0837%,72.8679%,1)"/>
  <circle cx="17" cy="7" r="1" fill="srgba(0%,47.6432%,72.0317%,1)"/>
  <circle cx="18" cy="7" r="1" fill="srgba(0%,47.1229%,71.5953%,1)"/>
  <circle cx="19" cy="7" r="1" fill="srgba(29.8314%,60.2457%,81.2222%,1)"/>
  <circle cx="20" cy="7" r="1" fill="srgba(94.1588%,96.1044%,98.6511%,1)"/>
  <circle cx="21" cy="7" r="1" fill="white"/>
  <circle cx="0" cy="8" r="1" fill="white"/>
  <circle cx="1" cy="8" r="1" fill="srgba(99.7986%,99.7864%,100%,1)"/>
  <circle cx="2" cy="8" r="1" fill="srgba(70.8263%,87.6982%,96.8185%,1)"/>
  <circle cx="3" cy="8" r="1" fill="srgba(46.9108%,75.9915%,89.5171%,1)"/>
  <circle cx="4" cy="8" r="1" fill="srgba(84.0299%,89.482%,93.1212%,1)"/>
  <circle cx="5" cy="8" r="1" fill="srgba(94.0124%,96.5942%,99.1058%,1)"/>
  <circle cx="6" cy="8" r="1" fill="srgba(81.8036%,88.867%,93.1289%,1)"/>
  <circle cx="7" cy="8" r="1" fill="srgba(56.7773%,79.1287%,89.7383%,1)"/>
  <circle cx="8" cy="8" r="1" fill="srgba(42.8107%,76.4736%,91.9768%,1)"/>
  <circle cx="9" cy="8" r="1" fill="srgba(42.06%,76.7956%,92.8374%,1)"/>
  <circle cx="10" cy="8" r="1" fill="srgba(42.388%,76.8109%,92.7489%,1)"/>
  <circle cx="11" cy="8" r="1" fill="srgba(42.3636%,76.7712%,92.7352%,1)"/>
  <circle cx="12" cy="8" r="1" fill="srgba(42.3529%,76.7269%,92.7337%,1)"/>
  <circle cx="13" cy="8" r="1" fill="srgba(42.3285%,76.6964%,92.726%,1)"/>
  <circle cx="14" cy="8" r="1" fill="srgba(43.0686%,77.1542%,93.0663%,1)"/>
  <circle cx="15" cy="8" r="1" fill="srgba(37.0306%,70.3853%,86.6392%,1)"/>
  <circle cx="16" cy="8" r="1" fill="srgba(2.22782%,48.3528%,71.928%,1)"/>
  <circle cx="17" cy="8" r="1" fill="srgba(0%,47.0588%,71.1589%,1)"/>
  <circle cx="18" cy="8" r="1" fill="srgba(0%,46.5248%,70.7118%,1)"/>
  <circle cx="19" cy="8" r="1" fill="srgba(29.8314%,59.9741%,80.8453%,1)"/>
  <circle cx="20" cy="8" r="1" fill="srgba(94.1588%,96.1135%,98.6648%,1)"/>
  <circle cx="21" cy="8" r="1" fill="white"/>
  <circle cx="0" cy="9" r="1" fill="white"/>
  <circle cx="1" cy="9" r="1" fill="srgba(99.8032%,99.7925%,100%,1)"/>
  <circle cx="2" cy="9" r="1" fill="srgba(69.2988%,86.5965%,96.1578%,1)"/>
  <circle cx="3" cy="9" r="1" fill="srgba(43.9643%,73.959%,88.2643%,1)"/>
  <circle cx="4" cy="9" r="1" fill="srgba(83.4989%,89.1127%,92.845%,1)"/>
  <circle cx="5" cy="9" r="1" fill="srgba(94.3328%,97.3114%,99.9954%,1)"/>
  <circle cx="6" cy="9" r="1" fill="srgba(94.1817%,97.0199%,99.6429%,1)"/>
  <circle cx="7" cy="9" r="1" fill="srgba(88.8563%,92.8496%,95.903%,1)"/>
  <circle cx="8" cy="9" r="1" fill="srgba(66.07%,81.767%,89.8024%,1)"/>
  <circle cx="9" cy="9" r="1" fill="srgba(43.2593%,74.6532%,89.6742%,1)"/>
  <circle cx="10" cy="9" r="1" fill="srgba(38.3078%,74.0917%,91.1574%,1)"/>
  <circle cx="11" cy="9" r="1" fill="srgba(38.8251%,74.229%,91.1742%,1)"/>
  <circle cx="12" cy="9" r="1" fill="srgba(38.8296%,74.1939%,91.1574%,1)"/>
  <circle cx="13" cy="9" r="1" fill="srgba(38.7884%,74.1512%,91.1574%,1)"/>
  <circle cx="14" cy="9" r="1" fill="srgba(39.4461%,74.5968%,91.4946%,1)"/>
  <circle cx="15" cy="9" r="1" fill="srgba(33.4737%,68.0247%,85.1286%,1)"/>
  <circle cx="16" cy="9" r="1" fill="srgba(1.93332%,47.6234%,70.9895%,1)"/>
  <circle cx="17" cy="9" r="1" fill="srgba(0%,46.4744%,70.2846%,1)"/>
  <circle cx="18" cy="9" r="1" fill="srgba(0%,45.9266%,69.8268%,1)"/>
  <circle cx="19" cy="9" r="1" fill="srgba(29.8314%,59.7055%,80.4654%,1)"/>
  <circle cx="20" cy="9" r="1" fill="srgba(94.1588%,96.1227%,98.6801%,1)"/>
  <circle cx="21" cy="9" r="1" fill="white"/>
  <circle cx="0" cy="10" r="1" fill="white"/>
  <circle cx="1" cy="10" r="1" fill="srgba(99.8093%,99.8108%,100%,1)"/>
  <circle cx="2" cy="10" r="1" fill="srgba(67.7043%,85.51%,95.5261%,1)"/>
  <circle cx="3" cy="10" r="1" fill="srgba(40.9339%,71.809%,86.9993%,1)"/>
  <circle cx="4" cy="10" r="1" fill="srgba(83.1846%,88.9021%,92.7352%,1)"/>
  <circle cx="5" cy="10" r="1" fill="srgba(94.4335%,97.3297%,99.9695%,1)"/>
  <circle cx="6" cy="10" r="1" fill="srgba(93.9467%,96.997%,99.7009%,1)"/>
  <circle cx="7" cy="10" r="1" fill="srgba(93.1716%,96.6751%,99.5972%,1)"/>
  <circle cx="8" cy="10" r="1" fill="srgba(91.7464%,95.0362%,97.8439%,1)"/>
  <circle cx="9" cy="10" r="1" fill="srgba(75.2941%,85.4444%,91.2398%,1)"/>
  <circle cx="10" cy="10" r="1" fill="srgba(46.6346%,74.0993%,87.8218%,1)"/>
  <circle cx="11" cy="10" r="1" fill="srgba(35.3674%,71.5572%,89.4194%,1)"/>
  <circle cx="12" cy="10" r="1" fill="srgba(35.2941%,71.6442%,89.601%,1)"/>
  <circle cx="13" cy="10" r="1" fill="srgba(35.2834%,71.6411%,89.5918%,1)"/>
  <circle cx="14" cy="10" r="1" fill="srgba(35.8526%,72.0577%,89.9123%,1)"/>
  <circle cx="15" cy="10" r="1" fill="srgba(29.9428%,65.6519%,83.566%,1)"/>
  <circle cx="16" cy="10" r="1" fill="srgba(1.65408%,46.8986%,70.0481%,1)"/>
  <circle cx="17" cy="10" r="1" fill="srgba(0%,45.8885%,69.4102%,1)"/>
  <circle cx="18" cy="10" r="1" fill="srgba(0%,45.33%,68.9387%,1)"/>
  <circle cx="19" cy="10" r="1" fill="srgba(29.8329%,59.4507%,80.0641%,1)"/>
  <circle cx="20" cy="10" r="1" fill="srgba(94.1588%,96.1334%,98.6938%,1)"/>
  <circle cx="21" cy="10" r="1" fill="white"/>
  <circle cx="0" cy="11" r="1" fill="white"/>
  <circle cx="1" cy="11" r="1" fill="srgba(99.8108%,99.8276%,100%,1)"/>
  <circle cx="2" cy="11" r="1" fill="srgba(66.1585%,84.4114%,94.8699%,1)"/>
  <circle cx="3" cy="11" r="1" fill="srgba(37.9477%,69.6193%,85.6962%,1)"/>
  <circle cx="4" cy="11" r="1" fill="srgba(83.061%,88.7846%,92.6619%,1)"/>
  <circle cx="5" cy="11" r="1" fill="srgba(92.4285%,96.3439%,99.4598%,1)"/>
  <circle cx="6" cy="11" r="1" fill="srgba(89.6742%,94.4823%,98.0133%,1)"/>
  <circle cx="7" cy="11" r="1" fill="srgba(72.2301%,86.3142%,94.165%,1)"/>
  <circle cx="8" cy="11" r="1" fill="srgba(50.454%,77.1466%,90.9895%,1)"/>
  <circle cx="9" cy="11" r="1" fill="srgba(49.1173%,76.3287%,90.4433%,1)"/>
  <circle cx="10" cy="11" r="1" fill="srgba(40.4135%,71.3619%,87.1717%,1)"/>
  <circle cx="11" cy="11" r="1" fill="srgba(30.3258%,68.2582%,87.3518%,1)"/>
  <circle cx="12" cy="11" r="1" fill="srgba(29.2287%,68.0476%,87.5837%,1)"/>
  <circle cx="13" cy="11" r="1" fill="srgba(28.6305%,67.7592%,87.4571%,1)"/>
  <circle cx="14" cy="11" r="1" fill="srgba(28.4596%,67.834%,87.6493%,1)"/>
  <circle cx="15" cy="11" r="1" fill="srgba(24.5365%,62.4216%,81.6373%,1)"/>
  <circle cx="16" cy="11" r="1" fill="srgba(1.45571%,46.2058%,69.1173%,1)"/>
  <circle cx="17" cy="11" r="1" fill="srgba(0%,45.304%,68.5328%,1)"/>
  <circle cx="18" cy="11" r="1" fill="srgba(0%,44.7303%,68.0491%,1)"/>
  <circle cx="19" cy="11" r="1" fill="srgba(29.8116%,59.1867%,79.6689%,1)"/>
  <circle cx="20" cy="11" r="1" fill="srgba(94.1558%,96.141%,98.7076%,1)"/>
  <circle cx="21" cy="11" r="1" fill="white"/>
  <circle cx="0" cy="12" r="1" fill="white"/>
  <circle cx="1" cy="12" r="1" fill="srgba(99.8596%,99.8627%,100%,1)"/>
  <circle cx="2" cy="12" r="1" fill="srgba(64.0467%,83.0777%,94.1131%,1)"/>
  <circle cx="3" cy="12" r="1" fill="srgba(32.9717%,66.5904%,84.0681%,1)"/>
  <circle cx="4" cy="12" r="1" fill="srgba(82.829%,88.5344%,92.5231%,1)"/>
  <circle cx="5" cy="12" r="1" fill="srgba(65.8518%,83.8163%,93.8537%,1)"/>
  <circle cx="6" cy="12" r="1" fill="srgba(58.0728%,77.8622%,88.6976%,1)"/>
  <circle cx="7" cy="12" r="1" fill="srgba(79.4324%,88.1422%,93.637%,1)"/>
  <circle cx="8" cy="12" r="1" fill="srgba(31.3268%,67.3594%,86.0746%,1)"/>
  <circle cx="9" cy="12" r="1" fill="srgba(20.6821%,63.2303%,85.1575%,1)"/>
  <circle cx="10" cy="12" r="1" fill="srgba(21.3748%,63.5676%,85.33%,1)"/>
  <circle cx="11" cy="12" r="1" fill="srgba(21.5915%,63.5904%,85.2628%,1)"/>
  <circle cx="12" cy="12" r="1" fill="srgba(21.4282%,63.5004%,85.214%,1)"/>
  <circle cx="13" cy="12" r="1" fill="srgba(21.3169%,63.4485%,85.1942%,1)"/>
  <circle cx="14" cy="12" r="1" fill="srgba(21.6617%,63.7476%,85.4734%,1)"/>
  <circle cx="15" cy="12" r="1" fill="srgba(19.826%,59.4217%,79.8047%,1)"/>
  <circle cx="16" cy="12" r="1" fill="srgba(1.25734%,45.5146%,68.1834%,1)"/>
  <circle cx="17" cy="12" r="1" fill="srgba(0%,44.7166%,67.657%,1)"/>
  <circle cx="18" cy="12" r="1" fill="srgba(0%,44.1321%,67.1626%,1)"/>
  <circle cx="19" cy="12" r="1" fill="srgba(29.5796%,58.7991%,79.2203%,1)"/>
  <circle cx="20" cy="12" r="1" fill="srgba(94.1238%,96.1303%,98.7137%,1)"/>
  <circle cx="21" cy="12" r="1" fill="white"/>
  <circle cx="0" cy="13" r="1" fill="white"/>
  <circle cx="1" cy="13" r="1" fill="srgba(99.8962%,99.8901%,100%,1)"/>
  <circle cx="2" cy="13" r="1" fill="srgba(61.0315%,81.2665%,93.2052%,1)"/>
  <circle cx="3" cy="13" r="1" fill="srgba(27.2175%,63.0549%,82.1927%,1)"/>
  <circle cx="4" cy="13" r="1" fill="srgba(66.5843%,80.4471%,88.7282%,1)"/>
  <circle cx="5" cy="13" r="1" fill="srgba(27.9591%,65.6931%,85.8183%,1)"/>
  <circle cx="6" cy="13" r="1" fill="srgba(29.2149%,64.4175%,83.2227%,1)"/>
  <circle cx="7" cy="13" r="1" fill="srgba(80.7935%,87.8264%,92.9137%,1)"/>
  <circle cx="8" cy="13" r="1" fill="srgba(59.1241%,79.118%,90.6249%,1)"/>
  <circle cx="9" cy="13" r="1" fill="srgba(18.9395%,61.1795%,83.5065%,1)"/>
  <circle cx="10" cy="13" r="1" fill="srgba(18.0194%,60.9186%,83.5737%,1)"/>
  <circle cx="11" cy="13" r="1" fill="srgba(18.1552%,60.972%,83.5874%,1)"/>
  <circle cx="12" cy="13" r="1" fill="srgba(18.1659%,60.9766%,83.5889%,1)"/>
  <circle cx="13" cy="13" r="1" fill="srgba(18.1704%,60.9781%,83.5889%,1)"/>
  <circle cx="14" cy="13" r="1" fill="srgba(18.5092%,61.268%,83.8651%,1)"/>
  <circle cx="15" cy="13" r="1" fill="srgba(16.7086%,57.1008%,78.1918%,1)"/>
  <circle cx="16" cy="13" r="1" fill="srgba(1.02388%,44.8035%,67.2404%,1)"/>
  <circle cx="17" cy="13" r="1" fill="srgba(0%,44.1306%,66.7826%,1)"/>
  <circle cx="18" cy="13" r="1" fill="srgba(0%,43.5203%,66.273%,1)"/>
  <circle cx="19" cy="13" r="1" fill="srgba(29.1005%,58.2437%,78.6999%,1)"/>
  <circle cx="20" cy="13" r="1" fill="srgba(94.0597%,96.1074%,98.7076%,1)"/>
  <circle cx="21" cy="13" r="1" fill="white"/>
  <circle cx="0" cy="14" r="1" fill="white"/>
  <circle cx="1" cy="14" r="1" fill="srgba(99.7238%,99.8184%,100%,1)"/>
  <circle cx="2" cy="14" r="1" fill="srgba(58.5916%,79.6475%,92.4575%,1)"/>
  <circle cx="3" cy="14" r="1" fill="srgba(20.5997%,59.5377%,80.7935%,1)"/>
  <circle cx="4" cy="14" r="1" fill="srgba(28.7068%,62.8534%,81.7105%,1)"/>
  <circle cx="5" cy="14" r="1" fill="srgba(14.4701%,58.3734%,82.0783%,1)"/>
  <circle cx="6" cy="14" r="1" fill="srgba(15.7061%,58.4436%,81.5442%,1)"/>
  <circle cx="7" cy="14" r="1" fill="srgba(55.201%,74.2611%,85.9648%,1)"/>
  <circle cx="8" cy="14" r="1" fill="srgba(80.5585%,89.1188%,96.2188%,1)"/>
  <circle cx="9" cy="14" r="1" fill="srgba(34.5312%,67.1672%,85.6001%,1)"/>
  <circle cx="10" cy="14" r="1" fill="srgba(14.0734%,58.0682%,81.7975%,1)"/>
  <circle cx="11" cy="14" r="1" fill="srgba(14.9767%,58.4909%,82.0005%,1)"/>
  <circle cx="12" cy="14" r="1" fill="srgba(14.9722%,58.4894%,81.9989%,1)"/>
  <circle cx="13" cy="14" r="1" fill="srgba(14.9752%,58.4909%,81.9989%,1)"/>
  <circle cx="14" cy="14" r="1" fill="srgba(15.2483%,58.7442%,82.2614%,1)"/>
  <circle cx="15" cy="14" r="1" fill="srgba(13.6172%,54.7753%,76.5896%,1)"/>
  <circle cx="16" cy="14" r="1" fill="srgba(0.81178%,44.1001%,66.3035%,1)"/>
  <circle cx="17" cy="14" r="1" fill="srgba(0%,43.5325%,65.9007%,1)"/>
  <circle cx="18" cy="14" r="1" fill="srgba(0%,42.8779%,65.3605%,1)"/>
  <circle cx="19" cy="14" r="1" fill="srgba(28.5695%,57.6226%,78.1827%,1)"/>
  <circle cx="20" cy="14" r="1" fill="srgba(93.9971%,96.0845%,98.7106%,1)"/>
  <circle cx="21" cy="14" r="1" fill="white"/>
  <circle cx="0" cy="15" r="1" fill="white"/>
  <circle cx="1" cy="15" r="1" fill="srgba(99.292%,99.5422%,100%,1)"/>
  <circle cx="2" cy="15" r="1" fill="srgba(56.5835%,78.1155%,91.6991%,1)"/>
  <circle cx="3" cy="15" r="1" fill="srgba(13.3944%,56.6491%,80.6058%,1)"/>
  <circle cx="4" cy="15" r="1" fill="srgba(13.1411%,56.553%,80.5463%,1)"/>
  <circle cx="5" cy="15" r="1" fill="srgba(12.9915%,56.5698%,80.6714%,1)"/>
  <circle cx="6" cy="15" r="1" fill="srgba(11.989%,56.1898%,80.5844%,1)"/>
  <circle cx="7" cy="15" r="1" fill="srgba(28.6%,61.326%,80.2853%,1)"/>
  <circle cx="8" cy="15" r="1" fill="srgba(73.9956%,84.4663%,93.5729%,1)"/>
  <circle cx="9" cy="15" r="1" fill="srgba(62.3407%,80.3464%,93.0678%,1)"/>
  <circle cx="10" cy="15" r="1" fill="srgba(17.3007%,58.4207%,81.4694%,1)"/>
  <circle cx="11" cy="15" r="1" fill="srgba(11.3725%,55.7794%,80.3052%,1)"/>
  <circle cx="12" cy="15" r="1" fill="srgba(11.6899%,55.9213%,80.3769%,1)"/>
  <circle cx="13" cy="15" r="1" fill="srgba(11.6472%,55.903%,80.3693%,1)"/>
  <circle cx="14" cy="15" r="1" fill="srgba(11.8517%,56.1196%,80.6195%,1)"/>
  <circle cx="15" cy="15" r="1" fill="srgba(10.5592%,52.4163%,74.9508%,1)"/>
  <circle cx="16" cy="15" r="1" fill="srgba(0.61799%,43.3768%,65.3437%,1)"/>
  <circle cx="17" cy="15" r="1" fill="srgba(0.12665%,43.0579%,65.1011%,1)"/>
  <circle cx="18" cy="15" r="1" fill="srgba(0%,42.7619%,64.8219%,1)"/>
  <circle cx="19" cy="15" r="1" fill="srgba(28.7358%,57.4578%,77.9187%,1)"/>
  <circle cx="20" cy="15" r="1" fill="srgba(93.6034%,95.7076%,98.3597%,1)"/>
  <circle cx="21" cy="15" r="1" fill="srgba(100%,100%,99.9435%,1)"/>
  <circle cx="0" cy="16" r="1" fill="srgba(98.9303%,98.8617%,98.7991%,1)"/>
  <circle cx="1" cy="16" r="1" fill="srgba(94.992%,95.523%,96.2158%,1)"/>
  <circle cx="2" cy="16" r="1" fill="srgba(55.877%,76.9818%,91.0002%,1)"/>
  <circle cx="3" cy="16" r="1" fill="srgba(19.4049%,59.1913%,81.9287%,1)"/>
  <circle cx="4" cy="16" r="1" fill="srgba(18.471%,58.616%,81.2879%,1)"/>
  <circle cx="5" cy="16" r="1" fill="srgba(17.8622%,58.2452%,80.9384%,1)"/>
  <circle cx="6" cy="16" r="1" fill="srgba(17.3419%,58.0346%,80.8637%,1)"/>
  <circle cx="7" cy="16" r="1" fill="srgba(18.8754%,57.6669%,79.6185%,1)"/>
  <circle cx="8" cy="16" r="1" fill="srgba(53.669%,72.1691%,85.5436%,1)"/>
  <circle cx="9" cy="16" r="1" fill="srgba(72.0928%,85.2705%,97.1969%,1)"/>
  <circle cx="10" cy="16" r="1" fill="srgba(40.8743%,69.2683%,87.5303%,1)"/>
  <circle cx="11" cy="16" r="1" fill="srgba(14.0032%,56.1776%,79.9786%,1)"/>
  <circle cx="12" cy="16" r="1" fill="srgba(13.6767%,56.0525%,79.9695%,1)"/>
  <circle cx="13" cy="16" r="1" fill="srgba(12.784%,55.5917%,79.7528%,1)"/>
  <circle cx="14" cy="16" r="1" fill="srgba(11.989%,55.2834%,79.7681%,1)"/>
  <circle cx="15" cy="16" r="1" fill="srgba(9.92599%,51.4015%,74.0658%,1)"/>
  <circle cx="16" cy="16" r="1" fill="srgba(3.41344%,44.6387%,65.8076%,1)"/>
  <circle cx="17" cy="16" r="1" fill="srgba(4.58839%,45.3849%,66.276%,1)"/>
  <circle cx="18" cy="16" r="1" fill="srgba(5.81674%,46.1646%,66.7689%,1)"/>
  <circle cx="19" cy="16" r="1" fill="srgba(31.0307%,58.3124%,78.0499%,1)"/>
  <circle cx="20" cy="16" r="1" fill="srgba(87.7623%,89.926%,92.6162%,1)"/>
  <circle cx="21" cy="16" r="1" fill="srgba(97.5921%,97.4136%,97.2213%,1)"/>
  <circle cx="0" cy="17" r="1" fill="srgba(96.1822%,96.1242%,96.0708%,1)"/>
  <circle cx="1" cy="17" r="1" fill="srgba(84.7593%,85.4688%,86.1479%,1)"/>
  <circle cx="2" cy="17" r="1" fill="srgba(62.594%,74.9447%,84.9546%,1)"/>
  <circle cx="3" cy="17" r="1" fill="srgba(49.7551%,70.3883%,85.3773%,1)"/>
  <circle cx="4" cy="17" r="1" fill="srgba(44.7868%,68.9662%,85.6764%,1)"/>
  <circle cx="5" cy="17" r="1" fill="srgba(39.9771%,67.5486%,85.7893%,1)"/>
  <circle cx="6" cy="17" r="1" fill="srgba(35.5566%,66.0304%,85.449%,1)"/>
  <circle cx="7" cy="17" r="1" fill="srgba(30.6004%,63.8788%,84.3214%,1)"/>
  <circle cx="8" cy="17" r="1" fill="srgba(41.0956%,66.7124%,84.1535%,1)"/>
  <circle cx="9" cy="17" r="1" fill="srgba(65.4185%,81.6693%,96.3027%,1)"/>
  <circle cx="10" cy="17" r="1" fill="srgba(61.0941%,79.9191%,95.5535%,1)"/>
  <circle cx="11" cy="17" r="1" fill="srgba(31.0994%,64.2115%,84.4099%,1)"/>
  <circle cx="12" cy="17" r="1" fill="srgba(22.9175%,60.1251%,81.4237%,1)"/>
  <circle cx="13" cy="17" r="1" fill="srgba(22.9969%,60.1434%,81.4099%,1)"/>
  <circle cx="14" cy="17" r="1" fill="srgba(22.2293%,59.8016%,81.3931%,1)"/>
  <circle cx="15" cy="17" r="1" fill="srgba(16.6873%,54.6334%,75.4986%,1)"/>
  <circle cx="16" cy="17" r="1" fill="srgba(11.1116%,49.1035%,68.51%,1)"/>
  <circle cx="17" cy="17" r="1" fill="srgba(15.1202%,51.2612%,70.9667%,1)"/>
  <circle cx="18" cy="17" r="1" fill="srgba(23.3661%,54.4411%,74.9859%,1)"/>
  <circle cx="19" cy="17" r="1" fill="srgba(40.7675%,59.4202%,76.1349%,1)"/>
  <circle cx="20" cy="17" r="1" fill="srgba(77.6608%,79.2111%,81.0178%,1)"/>
  <circle cx="21" cy="17" r="1" fill="srgba(95.2056%,95.0805%,94.9477%,1)"/>
  <circle cx="0" cy="18" r="1" fill="srgba(98.1659%,98.1628%,98.1613%,1)"/>
  <circle cx="1" cy="18" r="1" fill="srgba(93.5576%,93.5836%,93.6049%,1)"/>
  <circle cx="2" cy="18" r="1" fill="srgba(87.0787%,87.5517%,88.0354%,1)"/>
  <circle cx="3" cy="18" r="1" fill="srgba(81.886%,83.122%,84.419%,1)"/>
  <circle cx="4" cy="18" r="1" fill="srgba(76.9162%,79.4797%,81.976%,1)"/>
  <circle cx="5" cy="18" r="1" fill="srgba(72.0348%,76.434%,80.5081%,1)"/>
  <circle cx="6" cy="18" r="1" fill="srgba(67.2938%,74.0703%,80.0473%,1)"/>
  <circle cx="7" cy="18" r="1" fill="srgba(62.6001%,72.3217%,80.4883%,1)"/>
  <circle cx="8" cy="18" r="1" fill="srgba(59.3423%,71.7464%,82.0722%,1)"/>
  <circle cx="9" cy="18" r="1" fill="srgba(61.0544%,74.3923%,86.2501%,1)"/>
  <circle cx="10" cy="18" r="1" fill="srgba(61.384%,76.2554%,89.6147%,1)"/>
  <circle cx="11" cy="18" r="1" fill="srgba(52.0363%,72.4804%,88.1056%,1)"/>
  <circle cx="12" cy="18" r="1" fill="srgba(39.6338%,66.9017%,84.9699%,1)"/>
  <circle cx="13" cy="18" r="1" fill="srgba(36.7788%,66.2013%,85.124%,1)"/>
  <circle cx="14" cy="18" r="1" fill="srgba(33.7331%,65.1377%,84.8051%,1)"/>
  <circle cx="15" cy="18" r="1" fill="srgba(27.6814%,60.2365%,79.942%,1)"/>
  <circle cx="16" cy="18" r="1" fill="srgba(28.5161%,57.0291%,76.6613%,1)"/>
  <circle cx="17" cy="18" r="1" fill="srgba(39.704%,59.4339%,76.7208%,1)"/>
  <circle cx="18" cy="18" r="1" fill="srgba(56.2325%,65.4459%,75.1614%,1)"/>
  <circle cx="19" cy="18" r="1" fill="srgba(76.3272%,78.3444%,80.6943%,1)"/>
  <circle cx="20" cy="18" r="1" fill="srgba(91.9875%,91.9905%,91.989%,1)"/>
  <circle cx="21" cy="18" r="1" fill="srgba(98.4497%,98.4451%,98.4405%,1)"/>
  <circle cx="0" cy="19" r="1" fill="srgba(99.9817%,99.9817%,99.9817%,1)"/>
  <circle cx="1" cy="19" r="1" fill="srgba(99.9527%,99.9512%,99.9496%,1)"/>
  <circle cx="2" cy="19" r="1" fill="srgba(99.8184%,99.7833%,99.7513%,1)"/>
  <circle cx="3" cy="19" r="1" fill="srgba(99.2859%,99.1852%,99.0967%,1)"/>
  <circle cx="4" cy="19" r="1" fill="srgba(98.2483%,98.0621%,97.8958%,1)"/>
  <circle cx="5" cy="19" r="1" fill="srgba(96.582%,96.3134%,96.0739%,1)"/>
  <circle cx="6" cy="19" r="1" fill="srgba(94.1894%,93.8796%,93.6095%,1)"/>
  <circle cx="7" cy="19" r="1" fill="srgba(91.043%,90.7683%,90.5516%,1)"/>
  <circle cx="8" cy="19" r="1" fill="srgba(87.097%,87.071%,87.0893%,1)"/>
  <circle cx="9" cy="19" r="1" fill="srgba(82.3453%,82.9725%,83.5294%,1)"/>
  <circle cx="10" cy="19" r="1" fill="srgba(77.499%,79.1043%,80.528%,1)"/>
  <circle cx="11" cy="19" r="1" fill="srgba(73.1701%,75.9915%,78.5977%,1)"/>
  <circle cx="12" cy="19" r="1" fill="srgba(68.8182%,73.3883%,77.5479%,1)"/>
  <circle cx="13" cy="19" r="1" fill="srgba(64.5487%,71.5267%,77.6226%,1)"/>
  <circle cx="14" cy="19" r="1" fill="srgba(60.763%,70.6111%,78.8464%,1)"/>
  <circle cx="15" cy="19" r="1" fill="srgba(55.1064%,67.5959%,78.6587%,1)"/>
  <circle cx="16" cy="19" r="1" fill="srgba(56.5179%,64.9149%,73.904%,1)"/>
  <circle cx="17" cy="19" r="1" fill="srgba(73.2769%,74.992%,77.0687%,1)"/>
  <circle cx="18" cy="19" r="1" fill="srgba(88.2399%,87.953%,87.6692%,1)"/>
  <circle cx="19" cy="19" r="1" fill="srgba(96.5316%,96.3882%,96.231%,1)"/>
  <circle cx="20" cy="19" r="1" fill="srgba(99.4659%,99.4659%,99.4659%,1)"/>
  <circle cx="21" cy="19" r="1" fill="srgba(99.9969%,99.9969%,99.9985%,1)"/>
  <circle cx="0" cy="20" r="1" fill="white"/>
  <circle cx="1" cy="20" r="1" fill="white"/>
  <circle cx="2" cy="20" r="1" fill="white"/>
  <circle cx="3" cy="20" r="1" fill="white"/>
  <circle cx="4" cy="20" r="1" fill="white"/>
  <circle cx="5" cy="20" r="1" fill="white"/>
  <circle cx="6" cy="20" r="1" fill="srgba(99.9603%,99.9603%,99.9603%,1)"/>
  <circle cx="7" cy="20" r="1" fill="srgba(99.7787%,99.7787%,99.7787%,1)"/>
  <circle cx="8" cy="20" r="1" fill="srgba(99.4171%,99.411%,99.4049%,1)"/>
  <circle cx="9" cy="20" r="1" fill="srgba(98.7686%,98.7304%,98.6954%,1)"/>
  <circle cx="10" cy="20" r="1" fill="srgba(97.702%,97.6013%,97.5113%,1)"/>
  <circle cx="11" cy="20" r="1" fill="srgba(96.0922%,95.906%,95.7382%,1)"/>
  <circle cx="12" cy="20" r="1" fill="srgba(93.8582%,93.5897%,93.3516%,1)"/>
  <circle cx="13" cy="20" r="1" fill="srgba(90.9789%,90.6676%,90.399%,1)"/>
  <circle cx="14" cy="20" r="1" fill="srgba(87.4754%,87.2084%,87.0024%,1)"/>
  <circle cx="15" cy="20" r="1" fill="srgba(84.181%,84.1047%,84.097%,1)"/>
  <circle cx="16" cy="20" r="1" fill="srgba(86.7918%,86.5461%,86.2943%,1)"/>
  <circle cx="17" cy="20" r="1" fill="srgba(93.3577%,93.2311%,93.0938%,1)"/>
  <circle cx="18" cy="20" r="1" fill="srgba(98.1277%,98.1277%,98.1292%,1)"/>
  <circle cx="19" cy="20" r="1" fill="srgba(99.8322%,99.8322%,99.8322%,1)"/>
  <circle cx="20" cy="20" r="1" fill="white"/>
  <circle cx="21" cy="20" r="1" fill="white"/>
  <circle cx="0" cy="21" r="1" fill="white"/>
  <circle cx="1" cy="21" r="1" fill="white"/>
  <circle cx="2" cy="21" r="1" fill="white"/>
  <circle cx="3" cy="21" r="1" fill="white"/>
  <circle cx="4" cy="21" r="1" fill="white"/>
  <circle cx="5" cy="21" r="1" fill="white"/>
  <circle cx="6" cy="21" r="1" fill="white"/>
  <circle cx="7" cy="21" r="1" fill="white"/>
  <circle cx="8" cy="21" r="1" fill="white"/>
  <circle cx="9" cy="21" r="1" fill="white"/>
  <circle cx="10" cy="21" r="1" fill="white"/>
  <circle cx="11" cy="21" r="1" fill="srgba(99.9573%,99.9573%,99.9573%,1)"/>
  <circle cx="12" cy="21" r="1" fill="srgba(99.7589%,99.7589%,99.7589%,1)"/>
  <circle cx="13" cy="21" r="1" fill="srgba(99.3652%,99.3652%,99.3652%,1)"/>
  <circle cx="14" cy="21" r="1" fill="srgba(98.7228%,98.7228%,98.7213%,1)"/>
  <circle cx="15" cy="21" r="1" fill="srgba(97.8256%,97.8195%,97.8134%,1)"/>
  <circle cx="16" cy="21" r="1" fill="srgba(97.6867%,97.6852%,97.6837%,1)"/>
  <circle cx="17" cy="21" r="1" fill="srgba(99.1547%,99.1562%,99.1562%,1)"/>
  <circle cx="18" cy="21" r="1" fill="srgba(99.9725%,99.9725%,99.9725%,1)"/>
  <circle cx="19" cy="21" r="1" fill="white"/>
  <circle cx="20" cy="21" r="1" fill="white"/>
  <circle cx="21" cy="21" r="1" fill="white"/>
</svg>
