/* XPM */
static char *cxmenu_tmp[] = {
/* columns rows colors chars-per-pixel */
"32 32 256 2 ",
"   c #08FF7CD62A3E",
".  c #1DF77F5E27DE",
"X  c #38616BF76C9D",
"o  c #7FA86EFA4D35",
"O  c #468A7BB66B10",
"+  c #DB95392F367C",
"@  c #C72954AD3047",
"#  c #C78C3F564E88",
"$  c #E7CA38954341",
"%  c #FFFF3F314AA7",
"&  c #83594B7855FE",
"*  c #9D66448D539B",
"=  c #BA336E5E432F",
"-  c #B4CD56F968B7",
";  c #F67048134C6A",
":  c #F1D154494F10",
">  c #E93B481B54D7",
",  c #E2B558A35324",
"<  c #FFE25BAC5EC3",
"1  c #D7D769DC5D7D",
"2  c #D80D77825B55",
"3  c #E11964364CB6",
"4  c #FC9667504252",
"5  c #FDEA72186C94",
"6  c #F96875B46620",
"7  c #FDDD7E0177C4",
"8  c #00CA81F22E5A",
"9  c #1C4686732A93",
"0  c #0000863F3079",
"q  c #000090AB3496",
"w  c #089895D12FC3",
"e  c #2E54865A2D6A",
"r  c #3DB98D6724B9",
"t  c #11E5B9F0350C",
"y  c #26C6A6FE2D5B",
"u  c #6DB19B90318B",
"i  c #72B5A5E12039",
"p  c #2D08C50B36D1",
"a  c #3AA8C7DC349F",
"s  c #5F17C9FE3427",
"d  c #092D9F654F43",
"f  c #00C49EF34198",
"g  c #269F93324227",
"h  c #0000B843403B",
"j  c #0A7AB7514600",
"k  c #01FDA22A5305",
"l  c #1CBFAC1E552F",
"z  c #257AB6B24A23",
"x  c #34E5B73359CA",
"c  c #59A98033594D",
"v  c #68AC8C395606",
"b  c #5CF2AF505313",
"n  c #6CECA36E46A1",
"m  c #7096A9C74F79",
"M  c #59669A527EDC",
"N  c #692BA4D97395",
"B  c #0950C2AC4422",
"V  c #0FC6CDA346E8",
"C  c #75ECC569461C",
"Z  c #7930D86A4337",
"A  c #7C4CC6595741",
"S  c #C021A2221821",
"D  c #B1C99DF223BF",
"F  c #B65699723DC0",
"G  c #8628B800267F",
"H  c #856AB1FD36B4",
"J  c #B044A8A92E71",
"K  c #BAEAA16022A2",
"L  c #A473B7EF232F",
"P  c #B243BABB2A44",
"I  c #A82DAE383745",
"U  c #B3E0A09E3FA3",
"Y  c #CD00AC740EF5",
"T  c #E6689ECB3F71",
"R  c #CC68AFE12D4C",
"E  c #D9EEB85621C7",
"W  c #CAFDB92536DF",
"Q  c #DEE7B6673E33",
"!  c #E4A2BF2F20B8",
"~  c #AE1DC13B1EA6",
"^  c #9607C3A129E1",
"/  c #8927C7E035EF",
"(  c #92D7CB063EFA",
")  c #AEF6CA1B1FED",
"_  c #A050D01835EE",
"`  c #BD6DC6773175",
"'  c #BFA2D1043AEB",
"]  c #CCDBCE541388",
"[  c #D348D3B71A8B",
"{  c #E32DD4031B54",
"}  c #FC95DA5E1C27",
"|  c #E816E9890BC9",
" . c #F6DDF8860A72",
".. c #E9A0EB4B14A6",
"X. c #F812F9F71284",
"o. c #FAFEFA861EFA",
"O. c #F61AF74C1924",
"+. c #C5CBCD762D1F",
"@. c #C4E2C8862105",
"#. c #D008D5A72EF7",
"$. c #D9E4DA5E23F7",
"%. c #DB6BDCA82CB6",
"&. c #D7D4DE30220B",
"*. c #CAB8CDE03EFB",
"=. c #DB40DC793231",
"-. c #E204C4DE3081",
";. c #F8C9DBFE37F4",
":. c #D064E12C26BA",
">. c #DF12E3382AD5",
",. c #D472E64334CF",
"<. c #E93CEA302764",
"1. c #FAB1FB24203A",
"2. c #F580F69C2CA1",
"3. c #F834F8E92AC7",
"4. c #F926FA032D0C",
"5. c #E63BE8EA2FBA",
"6. c #ECE4ECF539EF",
"7. c #E878EA0A34FB",
"8. c #EF53F0B93288",
"9. c #F43BF5873509",
"0. c #F90BFAAD33D5",
"q. c #F503F6113E15",
"w. c #F9A5FAF03BD7",
"e. c #81289F2A49F5",
"r. c #B4428A7E4313",
"t. c #BFCB88635814",
"y. c #BB5B8C5152A2",
"u. c #B683978652D6",
"i. c #8810ABCA4E1E",
"p. c #9711B02C4256",
"a. c #82BCADBF70DA",
"s. c #BB7EBAD9654F",
"d. c #BAEBB5D573BB",
"f. c #FF3085CB53AB",
"g. c #C065B1064D9F",
"h. c #EBDE83BD751F",
"j. c #FD2287867DE2",
"k. c #FE3092A87F47",
"l. c #CBBBBA4C659B",
"z. c #FD45B7336D8E",
"x. c #FDE9A9A67E78",
"c. c #86F9CD644B5C",
"v. c #9FC5CCAC4237",
"b. c #A055CA844146",
"n. c #B89DD04C428E",
"m. c #B930DA044C72",
"M. c #B6D5D7F052F8",
"N. c #C000C096697B",
"B. c #D21ED8DE472C",
"V. c #C5A6C6305095",
"C. c #CF70DE495B17",
"Z. c #DB14DDD0518F",
"A. c #F781D9D63FCA",
"S. c #FA8EDB1F43E7",
"D. c #E277E3604DE8",
"F. c #FBCCE5B146CB",
"G. c #EEE4F1114A25",
"H. c #F7AAF8AB3FC4",
"J. c #F9F2FAFB42E4",
"K. c #F742F83A4D6A",
"L. c #F62BF8B24F7A",
"P. c #FA07FB084BE2",
"I. c #F6C0F7BF42F2",
"U. c #ED4CEB7F5AB5",
"Y. c #FF51E7A35B3F",
"T. c #FD23E9B95196",
"R. c #FA04FB0553AB",
"E. c #F849F9405860",
"W. c #FAF4FBBD5C41",
"Q. c #F72CF70F59F7",
"!. c #C293C3026DBE",
"~. c #D936DBBE6964",
"^. c #C629C6C27320",
"/. c #CC6BCBD2755E",
"(. c #CB3ECBE77BED",
"). c #D375C6837DD6",
"_. c #CDA5D7F47588",
"`. c #D84DD5757D54",
"'. c #E6EEC9B76C5E",
"]. c #E4B5C4DB7E90",
"[. c #D303E83A69F5",
"{. c #EF88E2B3618F",
"}. c #FBDAE3626B9D",
"|. c #FE2BEC646A0F",
" X c #FAEBFBBD64A9",
".X c #F685F6316BE0",
"XX c #F702F9906937",
"oX c #FAB4FBB66AAC",
"OX c #E520E8997820",
"+X c #FC0DE288740C",
"@X c #FEAFEF5A7065",
"#X c #FAB5EEDF783F",
"$X c #FAF6FBFC7354",
"%X c #FBBBFC9D7B43",
"&X c #FFFFF2EC74BD",
"*X c #18155CB98501",
"=X c #00FD565F9DD0",
"-X c #176563BE94C4",
";X c #283B6D8F8198",
":X c #253B7E849FA1",
">X c #00275B06A4AB",
",X c #00006221AAAC",
"<X c #0E9C736FAA86",
"1X c #19FD7BC0AC28",
"2X c #02C16C9FB2B7",
"3X c #000077B4BF99",
"4X c #091B7A28BABA",
"5X c #5F4A65009157",
"6X c #6DE16D0F9772",
"7X c #42567BADA53F",
"8X c #00007CF4C2A6",
"9X c #482395D388C1",
"0X c #50BA984381A3",
"qX c #48718DAA9BED",
"wX c #606B89AC9639",
"eX c #000083BAC936",
"rX c #070091ECCE25",
"tX c #1C3A9022C682",
"yX c #05C39C23D3C1",
"uX c #9DC78C3180AF",
"iX c #FD6F9A4F8C56",
"pX c #FE7295A1864B",
"aX c #FD89A3A091C0",
"sX c #FF57AD079B05",
"dX c #CA58C4FB8E17",
"fX c #C94FC7EF9030",
"gX c #D8CACFE79E74",
"hX c #ECC1C9F08E91",
"jX c #EBF4DED084FD",
"kX c #E8DDE7F28202",
"lX c #ECA9ED098DC0",
"zX c #ED92EDD58742",
"xX c #FA42E9C08F41",
"cX c #F7F0E1D489A0",
"vX c #FC83FCE48427",
"bX c #F710F8038F8F",
"nX c #FCFFFE008B7C",
"mX c #F732F9D38287",
"MX c #E43FE53F93F7",
"NX c #FB04EC4C9106",
"BX c #FC7EFDF594FC",
"VX c #FB91FBC99DBB",
"CX c #FA58CE8DA6B5",
"ZX c #EF67D4D9ACF0",
"AX c #F899D4EAA830",
"SX c #F45FE175A19E",
"DX c #FB1AFBDBA50F",
"FX c #FB73FBFBAD2A",
"GX c #FC1EF71DAE82",
"HX c #FBC5FD11B429",
"JX c #FD10FDECBC15",
"KX c #FB4DF52BB6FF",
"LX c #FDC7FD12C4D1",
"PX c #FE05FE39CB08",
"IX c #F6BFF9B4C295",
"UX c None",
/* pixels */
"UXUXUXUXUXUXUXUXUXUXUXUXUXUXUXUXUXUXUXUXUXUXUXUXUXUXUXUXUXUXUXUX",
"UXUXUXUXUXUXUXUXUXUXUXUXUXUXUXUXUXUXUXUXUXUXUXUXUXUXUXUXUXUXUXUX",
"UXUXUXUXUXUXUXUXUXUXUXUXUXUXUXUXUXUXUXUXUXUXUXUXUXUXUXUXUXUXUXUX",
"UXUXUXUXUXUXUXUXUXUXUXUXUXUXUXUXUXUXUXUXUXUXUXUXUXUXUXUXUXUXUXUX",
"UXUXUXUXUXUXUXUXUXUXUXUXUXUXUXUXUXUXUXUXUXUXUXUXUXUXUXUXUXUXUXUX",
"UXUXUXUXUXUXUXUXUXUXUXUXUXUXUXUXUXUXUXUXUXUXUXUXUXUXUXUXUXUXUXUX",
"UXUXUXUXUXUXUXUXUXUXUXUXUXUXUXUXUXUXUXUXUXUXUXUXUXUXUXUXUXUXUXUX",
"UXUXVXUXUXUXUXUXUXUXUXUXUXUXVXUXUXUXUXUXUXUXUXUXUXUXUXUXUXUXUXUX",
"MXFXJXJXLXJXJXJXGXxX}.S.jXFXHXFXDXzXUXUXUXUXUXUXUXUXUXUXUXUXUXUX",
"UXJXPXPXPXPXLXxX}.Y.;.! dXIXLXJXHXFXlXUXUXUXUXUXUXUXUXUXUXUXUXUX",
"UXJXPXPXPXKX+X|.F.-.l.gXZXAXAXAXKXFXDXlX`.(.^.^.^.^.!.!.OXvX.XUX",
"UXHXLXPXKX}.@XS.R dXZXaXiXiXj.5 6 hXDXVXBXBXnXnXvXvX%X%X$X$XoXD.",
"UXFXLXLX}.|.T.R fXAXpXsXsXiXj.5 < : hXbXbXBXnXnXvXvXvX%X%X$X XUX",
"UXVXHXxXS.&XE d.SXk.aXh.2 2 1 - , % 3 kXnXnXvX%X%X%X%X$X$XoXE.UX",
"UXbXVXB.#XA.F MXx.7 1 t.`._./.uX5X> $ l.%X$X$X$X$XoXoXoX XW.K.UX",
"UXvXOX( mXE s.cX6 , y.OXvXb m '.7X6X$ u.XXoXoX X X XW. XW.R.I.UX",
"UXXXM.c.Y.K _.z.; = ~.%X[.l n {.wXtX# r.Q.W.W.W.E.R.R.R.R.P.6.UX",
"UXT.( s } D ~.f.+ g.oX XA d p.U.qXyX* F K.R.P.P.P.P.P.P.P.J.9.UX",
"UXUX/ p { S V.4 @ D.W.M.l g *.C.1XrX& W J.w.J.w.J.J.J.P.P.w.7.UX",
"UXUX_ t Z Y J T Q G.m.x k u 8.a.8X4Xo =.w.w.w.w.w.w.J.J.J.w.6.UX",
"UXUX,.y V a i H v.C z f e +.B.:XeX-XI 0.0.0.0.w.w.J.J.P.P.J.UXUX",
"UXUX2.^ w h V B B j q . L <.M 8X,Xc >.4.0.0.w.w.w.J.P.P.P.w.UXUX",
"UXUXO.8.G 9 0 0 8   r P >.N 4X,XX +.4.0.0.0.w.J.J.P.P.R.P.q.UXUX",
"UXUX..1.3.&.^ i G ) &.' 9X2X=XX ` 2.0.0.w.w.J.J.P.P.P.R.P.q.UXUX",
"UXUX| X.1.1.o.o.o.' 0X<X>X*Xv #.4.0.0.w.J.J.J.P.P.R.P.R.J.0.UXUX",
"UXUX|  .X.X.X.X.X.i.;XO m +.<.3.0.0.0.w.w.w.J.J.J.J.J.J.w.8.UXUX",
"UXUXUX] ] ] ] ] [ @.P @.{ $.$.%.%.%.=.=.=.=.=.%.%.%.%.%.%.UXUXUX",
"UXUXUXUXUXUXUXUXUXUXUXUXUXUXUXUXUXUXUXUXUXUXUXUXUXUXUXUXUXUXUXUX",
"UXUXUXUXUXUXUXUXUXUXUXUXUXUXUXUXUXUXUXUXUXUXUXUXUXUXUXUXUXUXUXUX",
"UXUXUXUXUXUXUXUXUXUXUXUXUXUXUXUXUXUXUXUXUXUXUXUXUXUXUXUXUXUXUXUX",
"UXUXUXUXUXUXUXUXUXUXUXUXUXUXUXUXUXUXUXUXUXUXUXUXUXUXUXUXUXUXUXUX",
"UXUXUXUXUXUXUXUXUXUXUXUXUXUXUXUXUXUXUXUXUXUXUXUXUXUXUXUXUXUXUXUX"
};
