/* XPM */
static char *cxmenu_tmp[] = {
/* columns rows colors chars-per-pixel */
"64 64 256 2 ",
"   c #00006F0529B4",
".  c #017173D72A50",
"X  c #00A67A012B53",
"o  c #0C3A7C192967",
"O  c #12057C493247",
"+  c #26617A5A3326",
"@  c #54CD7FBD2BC2",
"#  c #7C3C386F5BDE",
"$  c #18A8579C7D2B",
"%  c #24B75C707611",
"&  c #36276CF56E9D",
"*  c #7726729E46FB",
"=  c #7A33546772CB",
"-  c #489A759E61C8",
";  c #5958486A52D9",
":  c #B82A2D572DDC",
">  c #ED85046B0DD5",
",  c #D68F31B53449",
"<  c #FCB4293A3742",
"1  c #FAEB3553398F",
"2  c #EC1128673536",
"3  c #E65110CE1C45",
"4  c #B389461C320F",
"5  c #90AD74ED3852",
"6  c #9254415A36A4",
"7  c #C86F52BF3493",
"8  c #80CF3B826162",
"9  c #FFD139434509",
"0  c #889A58294574",
"q  c #BC524F064EF5",
"w  c #B19E77C84FD1",
"e  c #91AE65417716",
"r  c #B6306D116C5E",
"t  c #9383626A6582",
"y  c #DABB477A46A7",
"u  c #D5995310583C",
"i  c #FCA0447C4B6F",
"p  c #FFDC4AB151F9",
"a  c #FC5757F55989",
"s  c #E53250E753CE",
"d  c #D37D6A614F2A",
"f  c #FC966F0C55DC",
"g  c #FEFA68DD66EF",
"h  c #FDCF79407443",
"j  c #F523733C673E",
"k  c #C2664A316200",
"l  c #3AB9A5C81E08",
"z  c #025E86932BB8",
"x  c #00018D5E31FF",
"c  c #000093773327",
"v  c #103B8DEA2CEC",
"b  c #30F08A312DCD",
"n  c #001FA9202984",
"m  c #0438B54E2C2D",
"M  c #0000A9C7394F",
"N  c #0155B6D937FD",
"B  c #1B38B4C127E1",
"V  c #2BEBAF8226C4",
"C  c #4388AB9F1E47",
"Z  c #51598C902950",
"A  c #75578D982D50",
"S  c #4D49A67C252F",
"D  c #6F9AABD02969",
"F  c #1959C25C3704",
"G  c #0A008E8B4723",
"H  c #0025A671562D",
"J  c #0137B2895C89",
"K  c #10E8B2E24E8E",
"L  c #2C5CABC14F35",
"P  c #0000BC8B6193",
"I  c #3341A63857B5",
"U  c #4BCAA6904880",
"Y  c #62A4AD4547D1",
"T  c #7AB0B7134FA4",
"R  c #54D68AE473B7",
"E  c #653796D86698",
"W  c #63AE8E095AAF",
"Q  c #0201C7F145ED",
"!  c #0000D4AC4A72",
"~  c #0496E032509F",
"^  c #159BCB384DFF",
"/  c #3214E8595608",
"(  c #053DC3616476",
")  c #2B9DD5B84AAD",
"_  c #5B19D7C54C4D",
"`  c #684AE9885FBD",
"'  c #91888E641ABA",
"]  c #8CF4AD7C1B09",
"[  c #B07FB2DF1C57",
"{  c #8C0790E82FD1",
"}  c #A4F38D3C2BAF",
"|  c #929BAC56344D",
" . c #B6E2B8CF25E8",
".. c #A950B3793529",
"X. c #D485AA47164E",
"o. c #CEB9AE2B131A",
"O. c #EDF4B6200B32",
"+. c #C6139EEF2444",
"@. c #D53BACF72914",
"#. c #AFCACC243244",
"$. c #A611D7CF30A1",
"%. c #D7CDDA1C1815",
"&. c #CB61CD6F18E5",
"*. c #FC49CA0104FB",
"=. c #FDC9D6DE0645",
"-. c #FBAFDB4014DE",
";. c #F8DACE131880",
":. c #DDDBE4B61EA3",
">. c #E728E8B20C22",
",. c #FFC8E1C10724",
"<. c #F8F3FAFF0D01",
"1. c #F686F8520B93",
"2. c #E7FFE91E18AF",
"3. c #F808F9F915A6",
"4. c #F912FA211D95",
"5. c #F735F802183E",
"6. c #FFFFE37716DC",
"7. c #C98ECB8F271B",
"8. c #D6CED94223D0",
"9. c #CCF9D7373A7D",
"0. c #D8ECDB0F36AA",
"q. c #CF8BC80E3104",
"w. c #FD53D7742DDD",
"e. c #DA86E2372E6D",
"r. c #EBB7ECAA2BCE",
"t. c #E5E2E7F9254A",
"y. c #EF4BF11F28D1",
"u. c #F3EEF48E22D8",
"i. c #F936F9FD22F0",
"p. c #F414F52E2C2E",
"a. c #F96AFA2E2CF7",
"s. c #F832F9312C34",
"d. c #ED5AEEBB3473",
"f. c #ECC7EDEE3ACF",
"g. c #E41CE63736E6",
"h. c #FDE8E8EF37FB",
"j. c #EF29F29837BA",
"k. c #F3C4F55B32A6",
"l. c #F913FAB93404",
"z. c #FA06FB2F3C26",
"x. c #F545F6963899",
"c. c #F856ECC02481",
"v. c #8C7C8B8B5335",
"b. c #94A295555B44",
"n. c #8DB789284B28",
"m. c #AE8E96825028",
"M. c #9944B1594CF2",
"N. c #AD77B1FD4FF9",
"B. c #9C8B9A9D674D",
"V. c #935191D36AA3",
"C. c #A7479354685F",
"Z. c #ABBDAD296C14",
"A. c #FB0999A64C23",
"S. c #F793B49251D1",
"D. c #D10E93FD6281",
"F. c #FE7185C97D54",
"G. c #F59C8F7C6F18",
"H. c #CCFCA89F694C",
"J. c #F610B1157081",
"K. c #CAFD91D54ECF",
"L. c #AD49CBBA4EFE",
"P. c #B56CC6EF62D9",
"I. c #C47FC64048D5",
"U. c #D7A3D72448A3",
"Y. c #C986CB905A37",
"T. c #D0DCD7B750C1",
"R. c #FA8FD53657C3",
"E. c #F244D2BB483E",
"W. c #D4ABE3904EF5",
"Q. c #E716E96A4856",
"!. c #FF0CEA1145BA",
"~. c #FA00FAFE4364",
"^. c #F9F9FAF74B6B",
"/. c #F60FF5C547F4",
"(. c #E3C8E8B45748",
"). c #FE2AE89558A9",
"_. c #FA06FAFA52EF",
"`. c #FA8EFB845C07",
"'. c #F696F50C597E",
"]. c #EE11F23F49C3",
"[. c #CDEED0047126",
"{. c #F887D8177596",
"}. c #F85ED5D66C88",
"|. c #DBF6E4A368F8",
" X c #E8CFEAF7686D",
".X c #FE7DEE606859",
"XX c #FAFAFBF063E6",
"oX c #FB09FC066BB2",
"OX c #F757F6CD6925",
"+X c #EA40EBF57BC2",
"@X c #FAECFBE773F2",
"#X c #FAEBFBCC7C08",
"$X c #FB18F3EC791C",
"%X c #EFD8F10D709C",
"&X c #057B4C6A8AA7",
"*X c #00004C3D9448",
"=X c #09B84F1D9176",
"-X c #013C518C97AB",
";X c #1868520093F6",
":X c #2FCC7B3C9147",
">X c #00005C04A560",
",X c #0000567EA191",
"<X c #154159E1A195",
"1X c #003E6936B40A",
"2X c #000073C5BBA6",
"3X c #07A878ABBC12",
"4X c #0BFF6CF8A8F0",
"5X c #332D7504AB5F",
"6X c #59FC63B9917C",
"7X c #009B7CCEC26C",
"8X c #87AA77BD986B",
"9X c #1BC0816BA894",
"0X c #5B1D8C1C8346",
"qX c #00718365C639",
"wX c #001288F2CACC",
"eX c #000098EAD486",
"rX c #04CBAB35DD66",
"tX c #1965AC77D95D",
"yX c #0010C246ECC3",
"uX c #B657B3C58902",
"iX c #FE148A6681A2",
"pX c #FE7298168A8D",
"aX c #FEC99FB591E5",
"sX c #FA4DA67E8B6C",
"dX c #FF39A3369322",
"fX c #FB27B5A99AF9",
"gX c #E6A3BA948A1A",
"hX c #FF9ABB50A4D6",
"jX c #D2D9D2CF914A",
"kX c #EF2CD5BB9423",
"lX c #E9D7EB6F885A",
"zX c #FB97FBE98440",
"xX c #FB9EFC978AF8",
"cX c #F732F5B28709",
"vX c #EBD7EB5A99A7",
"bX c #FBCCFCDA93E2",
"nX c #FC13FC9E9CD8",
"mX c #FADEF65F9617",
"MX c #F695E9438E6B",
"NX c #CECACF88A5BB",
"BX c #FDC8C52FA952",
"VX c #FF99CE42B42A",
"CX c #F5D8D8CFA9B5",
"ZX c #FCDBFCD8A354",
"AX c #FCE2FC07AC34",
"SX c #F942F52EA419",
"DX c #E7BDE978B8D0",
"FX c #FCADFD6AB48D",
"GX c #FCFDFDF1BAFD",
"HX c #F6BBF509B591",
"JX c #F6F1EC17AAA1",
"KX c #DF9EE2A9897D",
"LX c #FD81FE15C3BF",
"PX c #FDDEFE17CAB8",
"IX c #F627F6F2C379",
"UX c None",
/* pixels */
"UXUXUXUXUXUXUXUXUXUXUXUXUXUXUXUXUXUXUXUXUXUXUXUXUXUXUXUXUXUXUXUXUXUXUXUXUXUXUXUXUXUXUXUXUXUXUXUXUXUXUXUXUXUXUXUXUXUXUXUXUXUXUXUX",
"UXUXUXUXUXUXUXUXUXUXUXUXUXUXUXUXUXUXUXUXUXUXUXUXUXUXUXUXUXUXUXUXUXUXUXUXUXUXUXUXUXUXUXUXUXUXUXUXUXUXUXUXUXUXUXUXUXUXUXUXUXUXUXUX",
"UXUXUXUXUXUXUXUXUXUXUXUXUXUXUXUXUXUXUXUXUXUXUXUXUXUXUXUXUXUXUXUXUXUXUXUXUXUXUXUXUXUXUXUXUXUXUXUXUXUXUXUXUXUXUXUXUXUXUXUXUXUXUXUX",
"UXUXUXUXUXUXUXUXUXUXUXUXUXUXUXUXUXUXUXUXUXUXUXUXUXUXUXUXUXUXUXUXUXUXUXUXUXUXUXUXUXUXUXUXUXUXUXUXUXUXUXUXUXUXUXUXUXUXUXUXUXUXUXUX",
"UXUXUXUXUXUXUXUXUXUXUXUXUXUXUXUXUXUXUXUXUXUXUXUXUXUXUXUXUXUXUXUXUXUXUXUXUXUXUXUXUXUXUXUXUXUXUXUXUXUXUXUXUXUXUXUXUXUXUXUXUXUXUXUX",
"UXUXUXUXUXUXUXUXUXUXUXUXUXUXUXUXUXUXUXUXUXUXUXUXUXUXUXUXUXUXUXUXUXUXUXUXUXUXUXUXUXUXUXUXUXUXUXUXUXUXUXUXUXUXUXUXUXUXUXUXUXUXUXUX",
"UXUXUXUXUXUXUXUXUXUXUXUXUXUXUXUXUXUXUXUXUXUXUXUXUXUXUXUXUXUXUXUXUXUXUXUXUXUXUXUXUXUXUXUXUXUXUXUXUXUXUXUXUXUXUXUXUXUXUXUXUXUXUXUX",
"UXUXUXUXUXUXUXUXUXUXUXUXUXUXUXUXUXUXUXUXUXUXUXUXUXUXUXUXUXUXUXUXUXUXUXUXUXUXUXUXUXUXUXUXUXUXUXUXUXUXUXUXUXUXUXUXUXUXUXUXUXUXUXUX",
"UXUXUXUXUXUXUXUXUXUXUXUXUXUXUXUXUXUXUXUXUXUXUXUXUXUXUXUXUXUXUXUXUXUXUXUXUXUXUXUXUXUXUXUXUXUXUXUXUXUXUXUXUXUXUXUXUXUXUXUXUXUXUXUX",
"UXUXUXUXUXUXUXUXUXUXUXUXUXUXUXUXUXUXUXUXUXUXUXUXUXUXUXUXUXUXUXUXUXUXUXUXUXUXUXUXUXUXUXUXUXUXUXUXUXUXUXUXUXUXUXUXUXUXUXUXUXUXUXUX",
"UXUXUXUXUXUXUXUXUXUXUXUXUXUXUXUXUXUXUXUXUXUXUXUXUXUXUXUXUXUXUXUXUXUXUXUXUXUXUXUXUXUXUXUXUXUXUXUXUXUXUXUXUXUXUXUXUXUXUXUXUXUXUXUX",
"UXUXUXUXUXUXUXUXUXUXUXUXUXUXUXUXUXUXUXUXUXUXUXUXUXUXUXUXUXUXUXUXUXUXUXUXUXUXUXUXUXUXUXUXUXUXUXUXUXUXUXUXUXUXUXUXUXUXUXUXUXUXUXUX",
"UXUXUXUXUXUXUXUXUXUXUXUXUXUXUXUXUXUXUXUXUXUXUXUXUXUXUXUXUXUXUXUXUXUXUXUXUXUXUXUXUXUXUXUXUXUXUXUXUXUXUXUXUXUXUXUXUXUXUXUXUXUXUXUX",
"UXUXUXUXUXUXUXUXUXUXUXUXUXUXUXUXUXUXUXUXUXUXUXUXUXUXUXUXUXUXUXUXUXUXUXUXUXUXUXUXUXUXUXUXUXUXUXUXUXUXUXUXUXUXUXUXUXUXUXUXUXUXUXUX",
"UXUXUXUXUXUXUXUXUXUXUXUXUXUXUXUXUXUXUXUXUXUXUXUXUXUXUXUXUXUXUXUXUXUXUXUXUXUXUXUXUXUXUXUXUXUXUXUXUXUXUXUXUXUXUXUXUXUXUXUXUXUXUXUX",
"UXUXbXnXnXnXnXnXnXnXnXZXnXnXnXnXnXnXnXnXZXnXZXnXnXnXnXnXnXnXnXnXzXUXUXUXUXUXUXUXUXUXUXUXUXUXUXUXUXUXUXUXUXUXUXUXUXUXUXUXUXUXUXUX",
"UXKXFXFXFXGXFXGXGXGXGXGXGXGXFXGXGXGXGXHXSXMX{.{.kXHXFXFXFXAXAXAXAXmX XUXUXUXUXUXUXUXUXUXUXUXUXUXUXUXUXUXUXUXUXUXUXUXUXUXUXUXUXUX",
"UXvXFXGXGXGXLXLXPXPXGXLXLXLXLXLXLXJXMXR.E.;.=.*.E.NXHXGXFXGXFXFXAXAXAXlXUXUXUXUXUXUXUXUXUXUXUXUXUXUXUXUXUXUXUXUXUXUXUXUXUXUXUXUX",
"UXvXGXGXGXPXPXPXPXPXPXPXPXPXPXJX{.R.!.).OX/.,.*.@.jXDXLXLXGXGXGXFXFXAXAXvXI.UXUXUXUXUXUXUXUXUXUXUXUXUXUXUXUXUXUXUXUXUXUXUXUXUXUX",
"UXvXGXLXPXPXPXPXPXPXPXPXPXHX{.R.)..X$X).h.;.O.K.uXNXIXPXPXGXLXGXGXFXFXAXSXvXY.UXUXUXUXUXUXUXUXUXUXUXUXUXUXUX; UXUXUXUXUXUXUXUXUX",
"UXnXFXLXPXPXPXPXPXPXPXPXSX}.R.).$XoXc.=.X.m.uXNXDXIXPXIXPXIXLXGXGXFXFXAXZXZXmX|.P.Z.B.B.B.B.b.b.b.b.b.v.v.v.v.* N.UXUXzXUXUXUXUX",
"UXUXFXLXPXPXPXPXPXPXPXMXR.)..XzX!.,.O.m.uXNXDXIXHXCXfXaXsXsXfXCXHXHXFXAXAXZXnXnXbXxXxXxXxXxXzXxXcXzXzXzX#X#X#X#X$XzX#X#X#XXX..UX",
"UXUXAXGXPXPXPXPXPXPXMXR.).$XxXh.,.X.B.uXDXIXVXF.h h iXF.h j a a j gXvXFXAXZXnXbXbXbXbXbXxXxXzXxXxXzXzXzXzX#X#X#X#X#X@X@XoXoX(.UX",
"UXUXAXGXLXPXPXPXPXCXR.!.$XmXh.*.+.B.NXDXHXsXh iXpXaXdXdXaXiXh a i 9 D.KXSXZXnXnXnXbXbXxXxXzXxXxXzXzXzXzXzX#X#X#X#X#X@X@XoXoX/.UX",
"UXUXSXGXGXPXPXPXHXR.!.$XZX!.=.+.V.NXHXJXiXh aXaXhXVXVXBXfXdXpXF.h p < d kXSXnXnXnXbXbXbXxXxXxXzXxXzXzXzXzXzX#X#X#X@X@X@XoXXXQ.UX",
"UXUXnXFXFXLXPXPX}.w.).SX'.-.X.b.NXHXHXF.h aXhXVXhXaXiXh g g g g g g p < D.jXmXbXbXbXxXxXxXxXzXxXzXzXzXzX#XzX#X#X#X#X@XoXXX`./.UX",
"UXUXcXAXFXFXLXJXw.h.ZXcX6.O.n.uXJXAXsXj aXBXhXiXj u y y , u s i p a a 9 2 H.lXxXxXxXxXzXxXzXzXzXzXzXzX#X#X#X#X#X@X@X@XXXXX'.UXUX",
"UXUXcXZXAXFXHXE.;.$XAXh.*.} C.vXSXkXg pXfXaXj y 4 w D.H.D.r 6X= y 9 p i 1 d [.cXxXzXzXzXzXzX#X#X#X#X@X#X@X@X@X@X@XoXoXXX`._.UXUX",
"UXUX+XnXZXAXlX&.h.SX$X;.X.n.jXvXSXh h pXF.s 4 w P.KXvXxXlX{.r 5X5Xk 9 p 1 , Z.+X#XzX#X#X#X@X#X@X@X@X@XoXoXoXoXoXoXoXXXXX_./.UXUX",
"UXUXcXbXnXnXI.[ .XAX!.*.5 Z.vXSXJ.a F.h s 4 m.[.lXmXcXM.L.lX}.r 7X5Xk 9 9 , b.|.#X@X@X@X@X@XoXoXoXoXoXoXoXXXoXXXXXXX`._._.~.UXUX",
"UXUXUXxXbX+X] $.SXMX-.X.n.[.vXmXG.g h s 4 m.[.lXxXzXP.G G Y.+XG.6X7X5Xs 9 2 0 |.OXoXoXoXoXoXXXoXXXXXXXXXXXXXXXXXXX`.`._.^.z.UXUX",
"UXUXUXzXbXT.C T.AX.X*.} b.+XbX{.p g a 4 m.[.cXzXzXzXT G G N. X}.e 7XwX8X9 2 0 Y.OXoXXXXXXXXXXXXXXXXX`.`.`.`.`.`.`._._.^.~.f.UXUX",
"UXUXUX$XcX$.B |.JXh.O.5 Z.lXxXA.p a , 5 P.%X#X#X#X+XI J b N. XOXr 7XwXtXp < 6 Y.'.XXXXXX`.`.`.`.`.`.`._._._._.`._._._.~.z.g.UXUX",
"UXUXUXoX%XD B |.mX-.o.A Y.$XcXf p 9 4 N. X@X@X@XoXL.G H + N. XOXC.3XwXtXr > 0 I.'.`.`._.`._._._._._._._._._._._._._.^.~.z.0.UXUX",
"UXUXUXXX XS m 9.!.=.X.5 Y.+X{.9 9 , 5 Y.%XoXoXoXOXU J H Z I.'.'.V.7XwXyXe > 0 I._._._._._._.^.^.^.^.^._._._._._._._.~.z.z.g.UXUX",
"UXUXUX_.Q.C N $.,.*.X.A Y.$XS.1 2 4 N.(.XXoXXXXXL.H P G { U._.'.0X7XwXyX= 3 * U.].^.^.^./.^.^.^.^.^./.^.^.~.~.^.~.~.~.z.l.UXUXUX",
"UXUXUX].W.l m _ -.*.O.A N.OXA.< 2 5 I.).`.`.`.W.U J H + ..Q./.W.5X7XwXrX= : { 0.].~.~.~.~.~.~.~./.~.~.~.~./.~.^.^.~.z.z.x.UXUXUX",
"UXUXUXQ.Q.l m ) W.*.O.' ..(.A.< , } U.].`._.(.Y H P G @ I.].^.Z.4X1XeXeX# 6 ..f.~.z.z.~.~.z.~.z.~.z.~.~.~.~.~.^.~.~.~.z.j.UXUXUX",
"UXUXUXQ.].S n ) ` X.O.o.{ I.A.2 7 I.(._.`.W.Y I P H O { 0./.].0X1X2XrX3X# 5 9.x.z.z.z.z.z.z.z.z.z.z.~.z.z.~.~.~.^.~.~.z.x.UXUXUX",
"UXUXUXp.z.D n F / _ o.O.' | U.E.E.Q./.~.W.U I ( J G @ q.f.z.I.4X1XeXeX<X; | g.x.z.l.z.l.z.l.z.z.z.z.z.~.~.~.~.^.^.~.~.z.l.UXUXUX",
"UXUXUXUXz.#.v m ) / F ] o.' | 9.f.g.W.| L L ^ H X + ] 0.a.j.R 1X2XeX2X;X* 7.k.l.l.l.l.l.l.l.z.z.z.z.z.~.~.~.~.^.^.~.~.z.j.UXUXUX",
"UXUXUXUXl.f.S c M ~ ~ N V D D Z Y Y U I ^ Q M X . A 7.d.l.N.4X2XeX7X,X% } e.l.s.l.l.l.l.z.l.l.z.z.z.~.~.~.~.^.^.^.~.~.z.f.UXUXUX",
"UXUXUXUXs.a.#.v z m ! ~ ! N F ^ F ^ ^ ! N c . . Z  .r.a.9.:X2XwX7X,X=XW 7.y.l.a.l.l.l.l.z.l.z.z.z.~.~.~.^.~.^.^.^.~.~.z.0.UXUXUX",
"UXUXUXUXu.a.a.| z z c M Q ! ! ! ! Q M c X . . Z [ t.s.r.R 2XwXqX>X*X& [ r.s.s.a.s.l.l.l.l.z.z.z.z.~.~.~.^.^._.^._.^.~.z.9.UXUXUX",
"UXUXUXUX5.i.a.k.D v . . z z x c x X .   X o Z [ t.i.r.R 4XwXqX>X*X$ | 8.p.s.a.l.l.l.l.l.z.z.z.z.~.~.~.^.^.^._._.^.^.z.z.d.UXUXUX",
"UXUXUXUX2.i.i.s.k.$.b o     . .   . X o b ] &.2.i.e.R 1XwX2X,X&X&X{ 8.y.a.a.l.l.l.l.z.z.z.z.~.~.~.~.^.^.^._._._._.~.~./.UXUXUXUX",
"UXUXUXUX%.3.i.i.s.a.e.[ D b b v b Z D ] 7.2.4.u.#.:X2XqX1X-X-X;X{ 8.r.s.a.a.x.l.l.z.z.z.~.z.~./.~.^.^.^._.^._._.^.^.~.x.UXUXUXUX",
"UXUXUXUX%.3.5.i.i.i.i.i.u.2.:.8.%.:.2.c.5.u.9.E 4XqX2X>X*X&X% { 8.k.s.l.l.l.z.l.z.z.z.z.~.~.~./.^._.^._._._._._.^.~.z.j.UXUXUXUX",
"UXUXUXUX%.1.3.4.i.i.i.i.i.i.i.4.i.4.i.u.#.E 4XqX3X>X-X*X&X- ..:.p.a.l.l.l.l.z.z.z.~.~.~.~.~.^.^.^._._._._._._._.^.~.z.l.UXUXUXUX",
"UXUXUXUXUX1.1.3.5.4.4.4.4.4.i.4.4.i.t.R 4XwX2X,X-X*X&X& n.7.:.p.l.a.l.l.z.z.z.z.z.z.~.~.^.^.~.^._.^.^.^.^._.^.^.~.~.x.k.UXUXUXUX",
"UXUXUXUXUX1.1.1.3.3.3.3.3.3.3.3.3.3...=X,X,X=X*X$ - | 7.t.p.s.a.a.l.l.l.l.z.z.z.z.~.~.~.~.~.~.^.^.~.~.^.~.~.~.~.~.z.l.r.UXUXUXUX",
"UXUXUXUXUX>.1.1.1.<.<.<.<.<.<.<.<.<.:.E & & W | 7.:.2.y.i.i.i.a.a.a.l.a.l.l.l.l.l.z.z.z.z.z.z.z.z.z.z.z.z.z.z.z.l.l.l.g.UXUXUXUX",
"UXUXUXUXUX&.>.>.>.>.>.>.>.>.>.2.2.2.2.:.8.8.:.:.t.t.y.r.r.r.r.r.r.d.d.d.j.f.f.f.f.f.f.f.f.d.f.d.d.d.d.d.d.d.d.d.r.r.r.UXUXUXUXUX",
"UXUXUXUXUXUXUX' UXUXUXUXUXUXUXUXUXUXUXUXUXUXUXUXUXUXUXUXUXUXUXUXUXUXUXUXUXUXUXUXUXUXUXUXUXUXUXUXUXUXUXUXUXUXUXUXUX[ UXUXUXUXUXUX",
"UXUXUXUXUXUXUXUXUXUXUXUXUXUXUXUXUXUXUXUXUXUXUXUXUXUXUXUXUXUXUXUXUXUXUXUXUXUXUXUXUXUXUXUXUXUXUXUXUXUXUXUXUXUXUXUXUXUXUXUXUXUXUXUX",
"UXUXUXUXUXUXUXUXUXUXUXUXUXUXUXUXUXUXUXUXUXUXUXUXUXUXUXUXUXUXUXUXUXUXUXUXUXUXUXUXUXUXUXUXUXUXUXUXUXUXUXUXUXUXUXUXUXUXUXUXUXUXUXUX",
"UXUXUXUXUXUXUXUXUXUXUXUXUXUXUXUXUXUXUXUXUXUXUXUXUXUXUXUXUXUXUXUXUXUXUXUXUXUXUXUXUXUXUXUXUXUXUXUXUXUXUXUXUXUXUXUXUXUXUXUXUXUXUXUX",
"UXUXUXUXUXUXUXUXUXUXUXUXUXUXUXUXUXUXUXUXUXUXUXUXUXUXUXUXUXUXUXUXUXUXUXUXUXUXUXUXUXUXUXUXUXUXUXUXUXUXUXUXUXUXUXUXUXUXUXUXUXUXUXUX",
"UXUXUXUXUXUXUXUXUXUXUXUXUXUXUXUXUXUXUXUXUXUXUXUXUXUXUXUXUXUXUXUXUXUXUXUXUXUXUXUXUXUXUXUXUXUXUXUXUXUXUXUXUXUXUXUXUXUXUXUXUXUXUXUX",
"UXUXUXUXUXUXUXUXUXUXUXUXUXUXUXUXUXUXUXUXUXUXUXUXUXUXUXUXUXUXUXUXUXUXUXUXUXUXUXUXUXUXUXUXUXUXUXUXUXUXUXUXUXUXUXUXUXUXUXUXUXUXUXUX",
"UXUXUXUXUXUXUXUXUXUXUXUXUXUXUXUXUXUXUXUXUXUXUXUXUXUXUXUXUXUXUXUXUXUXUXUXUXUXUXUXUXUXUXUXUXUXUXUXUXUXUXUXUXUXUXUXUXUXUXUXUXUXUXUX",
"UXUXUXUXUXUXUXUXUXUXUXUXUXUXUXUXUXUXUXUXUXUXUXUXUXUXUXUXUXUXUXUXUXUXUXUXUXUXUXUXUXUXUXUXUXUXUXUXUXUXUXUXUXUXUXUXUXUXUXUXUXUXUXUX",
"UXUXUXUXUXUXUXUXUXUXUXUXUXUXUXUXUXUXUXUXUXUXUXUXUXUXUXUXUXUXUXUXUXUXUXUXUXUXUXUXUXUXUXUXUXUXUXUXUXUXUXUXUXUXUXUXUXUXUXUXUXUXUXUX",
"UXUXUXUXUXUXUXUXUXUXUXUXUXUXUXUXUXUXUXUXUXUXUXUXUXUXUXUXUXUXUXUXUXUXUXUXUXUXUXUXUXUXUXUXUXUXUXUXUXUXUXUXUXUXUXUXUXUXUXUXUXUXUXUX"
};
