/* XPM */
static char *cxmenu_tmp[] = {
/* columns rows colors chars-per-pixel */
"48 48 256 2 ",
"   c #0C0079C62936",
".  c #001277022B11",
"X  c #0AF37E212E90",
"o  c #227A7FFF2868",
"O  c #7C6A3B5F58BA",
"+  c #2C1F668E7583",
"@  c #3AFC70046F68",
"#  c #58237CF754C2",
"$  c #410E74D16A27",
"%  c #6FAD574052C1",
"&  c #B26A2F082C70",
"*  c #FBF737043A49",
"=  c #EF952E773737",
"-  c #D7572EC12A11",
";  c #97A75D5E34D9",
":  c #BE4C46633461",
">  c #A5EA6D4439D6",
",  c #CB9A476E3E7D",
"<  c #C8E155332D25",
"1  c #8AA73CAC5C13",
"2  c #B5F03A8F4309",
"3  c #FF01387F4544",
"4  c #98604A235F03",
"5  c #B50C4D6B51FD",
"6  c #B5D7745C4EEE",
"7  c #95F65A927207",
"8  c #D05252E94DEB",
"9  c #FE5847594AAB",
"0  c #ED2B5A0E5837",
"q  c #FF555AC35C5C",
"w  c #E9C74B035092",
"e  c #D1DD753855B5",
"r  c #FD7169045514",
"t  c #F9026AF46779",
"y  c #FB2173BE6DBA",
"u  c #F58779166B10",
"i  c #050C82842B81",
"p  c #000086D7306C",
"a  c #0000982E33A4",
"s  c #1C2488712DD8",
"d  c #376B81EB24DF",
"f  c #255E841339A5",
"g  c #07AAA6A62796",
"h  c #002BA666375D",
"j  c #05D8BAC83AD9",
"k  c #14EDB06E2A9B",
"l  c #2E33AAEB29DC",
"z  c #4F26903E2E62",
"x  c #65158E53265B",
"c  c #5718B3272279",
"v  c #6598B3F52D9C",
"b  c #76DED6AA384E",
"n  c #04B999BC4D28",
"m  c #1794939A471F",
"M  c #39B68C94402D",
"N  c #0240AB4B575C",
"B  c #0591B1E45120",
"V  c #372BABC048C3",
"C  c #2FC4AED050CD",
"Z  c #0BA4B8CB622C",
"A  c #667789B25190",
"S  c #6BF68FE95268",
"D  c #4F37ADD65305",
"F  c #71A3ADF750DD",
"G  c #52DB90A87A5A",
"H  c #630498CD6F93",
"J  c #02F0C6D94776",
"K  c #1957C70A4894",
"L  c #015BD3974A7D",
"P  c #1BB3D8B34A90",
"I  c #4226D1DF4368",
"U  c #4805E55C571B",
"Y  c #9BC7942B1F5E",
"T  c #BD969C95162E",
"R  c #AAD5AF44178A",
"E  c #97988D01287E",
"W  c #89D59C6337AD",
"Q  c #8E6E90183116",
"!  c #B1B19AD930A3",
"~  c #8FB3B2ED2FF7",
"^  c #AC8BB5C22E38",
"/  c #D545AECF1901",
"(  c #F874BE74085A",
")  c #E82DB36B0937",
"_  c #CB89A8822D42",
"`  c #8ECDC09F2F9E",
"'  c #A212C48D2798",
"]  c #B990C7B32696",
"[  c #B870D2BB2705",
"{  c #AEA5C0D13866",
"}  c #D301D3FA0D62",
"|  c #D5CED76B11D0",
" . c #D8B8D9F518D4",
".. c #EF42C85019DF",
"X. c #F62FC8B714E5",
"o. c #FC79DD3015DB",
"O. c #F562CC050A9A",
"+. c #E2E3E44A0CAB",
"@. c #F9E1FBF30DBF",
"#. c #F596F70E08DE",
"$. c #E8ADE9BE1C3D",
"%. c #FE1CE1E01B49",
"&. c #F809FA0A132D",
"*. c #F8D8FA271AA1",
"=. c #F5B2F6321B60",
"-. c #F6CDE9DB1262",
";. c #C73BCA1B2821",
":. c #CC55D3CB2395",
">. c #D91CDB2B245E",
",. c #C755DB6A3AF1",
"<. c #D431D8D838C9",
"1. c #FBB9DA7D2352",
"2. c #FFFFDE143703",
"3. c #DE1DE1482A78",
"4. c #D6B6E353236E",
"5. c #DF08E5443C59",
"6. c #E1AAE3A42CC6",
"7. c #E9DAEB8F2716",
"8. c #F9F5FA612242",
"9. c #F48AF5B02D44",
"0. c #F9AFFA912BE2",
"q. c #F3F3F49723EB",
"w. c #E1CFE30D32D4",
"e. c #EC67ED853958",
"r. c #E7BEE9D4340D",
"t. c #F4A1F5DA3483",
"y. c #F923FABA33A9",
"u. c #F405F5403BE2",
"i. c #FA0DFB443C83",
"p. c #FF80E89F339D",
"a. c #984F975B4987",
"s. c #ACCE8C1551BD",
"d. c #8ED6B9BB54F3",
"f. c #B347B5B34AAB",
"g. c #A3CEA4395D26",
"h. c #B4F1B3CD5308",
"j. c #8CDF82C47FBC",
"k. c #A46D9DEE6962",
"l. c #AA9BAB2564D2",
"z. c #B659B7546CF2",
"x. c #AE39ABF177C5",
"c. c #B9C3B35074D6",
"v. c #B18CAA3A6FB2",
"b. c #9570B8AC69E8",
"n. c #D2A98DB75F64",
"m. c #DA44B814453A",
"M. c #EE71B155410E",
"N. c #D7049A0F6B01",
"B. c #FDAD832F7B75",
"V. c #FBA1890478A8",
"C. c #F8698FDD7291",
"Z. c #CEA5ADEE6F06",
"A. c #FC7BA42E72A2",
"S. c #8BD8C5095465",
"D. c #A4F6D92247E2",
"F. c #BE68CA444776",
"G. c #AFACDC206091",
"H. c #C3BFC4354324",
"J. c #C602DA7D4506",
"K. c #D967DBFB5A55",
"L. c #CB03D667560C",
"P. c #FC3ADACC48B9",
"I. c #F96DD9615A9F",
"U. c #E764CA14494F",
"Y. c #D49AE2F6531B",
"T. c #EB16EC0E45B1",
"R. c #FD78E2E947B6",
"E. c #FA03FAFE43A8",
"W. c #F9FBFAFB4AC5",
"Q. c #F600F6964978",
"!. c #E8BCE98B579C",
"~. c #FCAAE6AA57FF",
"^. c #FA11FB0252F6",
"/. c #F4DBF5725D06",
"(. c #FAB9FBA25CD6",
"). c #F7A6F581566C",
"_. c #C976CB6766BD",
"`. c #CCDAD612682C",
"'. c #DA3BDBEB7823",
"]. c #CE33CDD36C78",
"[. c #F7FDDAB66A75",
"{. c #FAB2DDE677B5",
"}. c #DE83E26373CE",
"|. c #E8C2ED526A76",
" X c #FD7CED6B64C8",
".X c #FC96E9B369FF",
"XX c #FAFAFBE56489",
"oX c #FB21FC176BE8",
"OX c #FA0FF534693C",
"+X c #FB00FBF8741E",
"@X c #FB1DFBFB7BE5",
"#X c #FC87F4217722",
"$X c #EBEEEB9C726A",
"%X c #05794E548E08",
"&X c #0A465009882A",
"*X c #00E94D209464",
"=X c #000053009C36",
"-X c #1289554A8D6B",
";X c #00005C8EA6CD",
":X c #02606548AE21",
">X c #0000699FB5C6",
",X c #0294791DBB93",
"<X c #003B7663BC9E",
"1X c #12696839ACBE",
"2X c #258978B1AAD3",
"3X c #3BCA7479A979",
"4X c #2A6078D993C2",
"5X c #45346E519EB7",
"6X c #674D6D288E54",
"7X c #7A68734E9863",
"8X c #00007D4CC3AD",
"9X c #33CB8805969D",
"0X c #7F038FD38272",
"qX c #573E8CE08F94",
"wX c #000085DAC830",
"eX c #03A395EDD105",
"rX c #282999F3C7C7",
"tX c #04B9ABADDD5A",
"yX c #0000B3AEE368",
"uX c #FCF18E6382FF",
"iX c #FDBE953F88B8",
"pX c #FE96A8829624",
"aX c #F8CFB2529417",
"sX c #FFC6B7EFA2D5",
"dX c #DA83D42186DA",
"fX c #CEBCD06692C4",
"gX c #FBE8DA3C8776",
"hX c #E5CDD456919D",
"jX c #E790E7C38753",
"kX c #EE91F2B88850",
"lX c #FC2DFC91843E",
"zX c #FC88FD7B8B61",
"xX c #F8A3F6E88973",
"cX c #FBF7FCF493F4",
"vX c #FF09F7539B94",
"bX c #FC1EFC9F9D18",
"nX c #F8EEF5089939",
"mX c #F652E910932C",
"MX c #CDF4CEB8A4CA",
"NX c #FFE4C371AB72",
"BX c #F930D498AC9E",
"VX c #DEEEE1B8B194",
"CX c #E282E47AAB11",
"ZX c #F8A0EA9BA9CC",
"AX c #FC66FD24A274",
"SX c #FC3EFCA5AC5F",
"DX c #F660F636A620",
"FX c #E9F0EA9FBAB6",
"GX c #F97FEB45B858",
"HX c #FCECFDAFB500",
"JX c #FCD9FDA7BB92",
"KX c #FA14F453B88B",
"LX c #FDBCFDBAC532",
"PX c #FDF4FDFECAA2",
"IX c #F90EF3DAC1F4",
"UX c None",
/* pixels */
"UXUXUXUXUXUXUXUXUXUXUXUXUXUXUXUXUXUXUXUXUXUXUXUXUXUXUXUXUXUXUXUXUXUXUXUXUXUXUXUXUXUXUXUXUXUXUXUX",
"UXUXUXUXUXUXUXUXUXUXUXUXUXUXUXUXUXUXUXUXUXUXUXUXUXUXUXUXUXUXUXUXUXUXUXUXUXUXUXUXUXUXUXUXUXUXUXUX",
"UXUXUXUXUXUXUXUXUXUXUXUXUXUXUXUXUXUXUXUXUXUXUXUXUXUXUXUXUXUXUXUXUXUXUXUXUXUXUXUXUXUXUXUXUXUXUXUX",
"UXUXUXUXUXUXUXUXUXUXUXUXUXUXUXUXUXUXUXUXUXUXUXUXUXUXUXUXUXUXUXUXUXUXUXUXUXUXUXUXUXUXUXUXUXUXUXUX",
"UXUXUXUXUXUXUXUXUXUXUXUXUXUXUXUXUXUXUXUXUXUXUXUXUXUXUXUXUXUXUXUXUXUXUXUXUXUXUXUXUXUXUXUXUXUXUXUX",
"UXUXUXUXUXUXUXUXUXUXUXUXUXUXUXUXUXUXUXUXUXUXUXUXUXUXUXUXUXUXUXUXUXUXUXUXUXUXUXUXUXUXUXUXUXUXUXUX",
"UXUXUXUXUXUXUXUXUXUXUXUXUXUXUXUXUXUXUXUXUXUXUXUXUXUXUXUXUXUXUXUXUXUXUXUXUXUXUXUXUXUXUXUXUXUXUXUX",
"UXUXUXUXUXUXUXUXUXUXUXUXUXUXUXUXUXUXUXUXUXUXUXUXUXUXUXUXUXUXUXUXUXUXUXUXUXUXUXUXUXUXUXUXUXUXUXUX",
"UXUXUXUXUXUXUXUXUXUXUXUXUXUXUXUXUXUXUXUXUXUXUXUXUXUXUXUXUXUXUXUXUXUXUXUXUXUXUXUXUXUXUXUXUXUXUXUX",
"UXUXUXUXUXUXUXUXUXUXUXUXUXUXUXUXUXUXUXUXUXUXUXUXUXUXUXUXUXUXUXUXUXUXUXUXUXUXUXUXUXUXUXUXUXUXUXUX",
"UXUXUXUXUXUXUXUXUXUXUXUXUXUXUXUXUXUXUXUXUXUXUXUXUXUXUXUXUXUXUXUXUXUXUXUXUXUXUXUXUXUXUXUXUXUXUXUX",
"UXUXbXbXbXbXbXbXbXbXAXbXbXbXbXbXAXAXbXbXbXbXbXcXUXUXUXUXUXUXUXUXUXUXUXUXUXUXUXUXUXUXUXUXUXUXUXUX",
"UXDXHXHXHXJXJXJXJXJXJXJXJXHXvXmX[.I.jXSXHXHXHXSXSXxXK.UXUXUXUXUXUXUXUXUXUXUXUXUXUXUXUXUXUXUXUXUX",
"UXDXJXLXLXLXPXLXLXLXLXJXmX[.I.~.%.O.m.CXJXJXJXHXHXSXDX'.UXUXUXUXUXUXUXUXUXUXUXUXUXUXUXUXUXUXUXUX",
"UXSXJXLXPXPXPXPXPXPXZX[.I. X XR.X._ c.FXLXLXLXJXJXHXSXnX'.UXUXUXUXUXUXUXUXUXUXUXUXUXUXUXUXUXUXUX",
"UXSXLXPXPXPXPXPXLXmXI. X#Xp..._ c.MXFXIXIXGXKXJXJXHXSXSXbXjX_.c.z.z.z.l.l.l.g.g.g.g._.zXlX@XUXUX",
"UXDXJXPXPXPXLXLXgX~.#X X1./ k.MXIXBXpXiXuXB.B.uXhXZXSXDXvXbXbXcXcXzXzXzXlXlXzX@X@XlX@X@X+X+X!.UX",
"UXDXJXLXPXPXLXgXP.#X Xo._ x.VXGXiXuXiXiXpXiXy q w u hXvXAXvXcXcXzXzXzXzXzXlXlX@X@X@X@X+X+XoX/.UX",
"UXmXHXJXPXPXmXP.#XlXo._ x.CXZXuXuXpXNXNXsXiXiXy t 9 0 dXcXbXcXcXcXzXzXzXlXlXlXzX@X@X@X+XoXoX).UX",
"UXkXSXJXJXKXP.~.vXp./ k.CXZXB.uXsXsXuXu 0 0 0 q q q * e jXcXcXzXzXlXlXxXlXlX@X@X@X@X@X+XoXXX^.UX",
"UXUXAXSXJX[.1.nX~...a.fXSXA.B.sXiX8 8 6 N.e 7 7 w 9 9 = Z.#XxXlXlXlXlX@X@X@X@X+X+X+X+XoXXX(.Q.UX",
"UXUXbXAXnX;.~.vX1.T x.mXgXt iXy 8 s.].jXjXjXZ.6X5X8 3 = 6 '.@X@X@X+X+X+X+X+XoX+XoXoXoXoX(.^.T.UX",
"UXUXzXbX`.' vX.X) a.dXnXC.y t , s.'.xXkXF F $XN.2X3Xw 3 5 _.+X+XoX+XoXoXXXoXXXXXXXXXXX(.^.W.y.UX",
"UXUX@XxX~ D.vX2.T g.kXgXq t , s.'.lXzX`.m M `.[.6X8X7X3 2 h./.OXXXXXXXXX(.XX(.XX(.(.(.^.^.E.UXUX",
"UXUXOX$Xc G.xXX.E z.lXA.9 w > ].#X@X@XS.N M L. Xj.8XrXw 2 h.~.OX(.(.(.(.(.^.^.^.(.^.^.^.W.u.UXUX",
"UXUXOXK.k D.~.X.E _.#Xr 9 : h.|.+XoX|.V N x K. X0X8XtX5 & h.).).^.^.^.^.^.^.^.^.^.W.^.W.E.i.UXUX",
"UXUX^.J.k b o.( Q _./.9 = > L.XXXXXXS.N n Q !.).qX8XyX4 & F.Q.^.W.W.W.W.W.Q.E.W.W.W.W.E.i.t.UXUX",
"UXUXT.J.k I $.( E F.I.* - ! !.(.(.L.C N f f.E.K.2X8XtX1 ; <.E.E.E.E.E.E.E.E.E.E.E.E.W.E.i.e.UXUX",
"UXUXT.J.g K D.( T ! U.* < H.).^.Y.D Z n z <.E.b.>XwXwXO Q e.E.E.i.E.i.E.i.E.E.i.E.E.W.E.i.e.UXUX",
"UXUXUX5.l k U ' ) Y H.M.U.T.E.J.D Z N s ! t.T.9X>XeX1X% ] u.y.y.i.i.y.i.i.i.i.E.E.W.E.E.u.t.UXUX",
"UXUXUXi.v g P P c R Q { ,.,.d.V K n p x <.y.b.>XwX8X-XQ 6.y.y.y.y.y.y.i.i.i.E.E.E.E.W.E.i.t.UXUX",
"UXUXUX0.,.s g L L j l V V C K J a   o ] t.<.4X8XwX:X@ ] 9.y.y.y.y.i.y.y.i.E.E.E.W.^.W.E.u.5.UXUX",
"UXUXUXq.0.` i a j J L L J J h i . d R 7.r.G ,XwX;X&XW 7.y.0.y.y.y.y.i.u.E.E.E.W.W.^.^.E.i.<.UXUX",
"UXUXUX=.0.9.`   . i p p p . .   z ' $.6.H ,XwX;X%XA >.0.0.y.y.y.i.i.i.i.E.E.E.W.W.^.W.E.E.UXUXUX",
"UXUXUX$.*.0.9.[ z s       s z ~  .q.<.G ,X,X=X%X# ;.9.0.y.y.y.y.i.i.E.E.E.W.W.^.^.^.W.E.u.UXUXUX",
"UXUXUX+.*.*.0.0.8.4.[ ] [ :. .#.3.d.9X,X:X*X&XA :.9.0.y.y.y.i.i.u.E.E.W.W.W.^.^.^.^.W.E.u.UXUXUX",
"UXUXUX+.&.*.8.8.8.8.8.8.&.8.3.d.9X,X>X=X*X+ W >.9.y.y.y.i.i.E.E.E.E.W.W.^.W.^.W.^.^.W.i.t.UXUXUX",
"UXUXUX+.#.&.&.*.*.*.*.*.&.$.@ :X:X=X&X+ S ;.7.0.0.y.y.y.i.i.i.E.E.E.E.W.W.W.W.W.W.E.E.i.t.UXUXUX",
"UXUXUX} #.@.@.@.@.@.@.@.@.&.H + $ A ^  .q.q.0.0.0.0.y.y.y.i.i.E.i.E.u.i.E.i.E.i.i.i.y.y.r.UXUXUX",
"UXUXUXUX} } } | | | | |  . .:.;.:.:.>.>.3.6.6.3.w.w.w.w.w.w.w.w.r.r.w.w.w.6.r.6.6.r.6.6.UXUXUXUX",
"UXUXUXUXUXUXUXUXUXUXUXUXUXUXUXUXUXUXUXUXUXUXUXUXUXUXUXUXUXUXUXUXUXUXUXUXUXUXUXUXUXUXUXUXUXUXUXUX",
"UXUXUXUXUXUXUXUXUXUXUXUXUXUXUXUXUXUXUXUXUXUXUXUXUXUXUXUXUXUXUXUXUXUXUXUXUXUXUXUXUXUXUXUXUXUXUXUX",
"UXUXUXUXUXUXUXUXUXUXUXUXUXUXUXUXUXUXUXUXUXUXUXUXUXUXUXUXUXUXUXUXUXUXUXUXUXUXUXUXUXUXUXUXUXUXUXUX",
"UXUXUXUXUXUXUXUXUXUXUXUXUXUXUXUXUXUXUXUXUXUXUXUXUXUXUXUXUXUXUXUXUXUXUXUXUXUXUXUXUXUXUXUXUXUXUXUX",
"UXUXUXUXUXUXUXUXUXUXUXUXUXUXUXUXUXUXUXUXUXUXUXUXUXUXUXUXUXUXUXUXUXUXUXUXUXUXUXUXUXUXUXUXUXUXUXUX",
"UXUXUXUXUXUXUXUXUXUXUXUXUXUXUXUXUXUXUXUXUXUXUXUXUXUXUXUXUXUXUXUXUXUXUXUXUXUXUXUXUXUXUXUXUXUXUXUX",
"UXUXUXUXUXUXUXUXUXUXUXUXUXUXUXUXUXUXUXUXUXUXUXUXUXUXUXUXUXUXUXUXUXUXUXUXUXUXUXUXUXUXUXUXUXUXUXUX",
"UXUXUXUXUXUXUXUXUXUXUXUXUXUXUXUXUXUXUXUXUXUXUXUXUXUXUXUXUXUXUXUXUXUXUXUXUXUXUXUXUXUXUXUXUXUXUXUX"
};
